G04*
G04 #@! TF.GenerationSoftware,Altium Limited,Altium Designer,26.7.1 (11)*
G04*
G04 Layer_Color=8388736*
G04 Board_Origin=283254961|169887245*
%FSLAX25Y25*%
%MOIN*%
G70*
G04*
G04 #@! TF.SameCoordinates,EF0A1A49-9E27-4F19-A3BC-71090C91D45F*
G04*
G04*
G04 #@! TF.FilePolarity,Negative*
G04*
G01*
G75*
%ADD20R,0.03347X0.01772*%
%ADD21R,0.03347X0.01575*%
%ADD22C,0.02362*%
%ADD23C,0.01575*%
%ADD24O,0.01339X0.06161*%
%ADD25R,0.01555X0.00965*%
%ADD26R,0.02362X0.05354*%
%ADD27C,0.05394*%
G04:AMPARAMS|DCode=28|XSize=35.43mil|YSize=31.5mil|CornerRadius=9.55mil|HoleSize=0mil|Usage=FLASHONLY|Rotation=0.000|XOffset=0mil|YOffset=0mil|HoleType=Round|Shape=RoundedRectangle|*
%AMROUNDEDRECTD28*
21,1,0.03543,0.01240,0,0,0.0*
21,1,0.01634,0.03150,0,0,0.0*
1,1,0.01909,0.00817,-0.00620*
1,1,0.01909,-0.00817,-0.00620*
1,1,0.01909,-0.00817,0.00620*
1,1,0.01909,0.00817,0.00620*
%
%ADD28ROUNDEDRECTD28*%
G04:AMPARAMS|DCode=29|XSize=82.68mil|YSize=35.43mil|CornerRadius=9.84mil|HoleSize=0mil|Usage=FLASHONLY|Rotation=180.000|XOffset=0mil|YOffset=0mil|HoleType=Round|Shape=RoundedRectangle|*
%AMROUNDEDRECTD29*
21,1,0.08268,0.01575,0,0,180.0*
21,1,0.06299,0.03543,0,0,180.0*
1,1,0.01968,-0.03150,0.00787*
1,1,0.01968,0.03150,0.00787*
1,1,0.01968,0.03150,-0.00787*
1,1,0.01968,-0.03150,-0.00787*
%
%ADD29ROUNDEDRECTD29*%
D20*
X16059Y35850D02*
D03*
Y42150D02*
D03*
X10941Y35850D02*
D03*
Y42150D02*
D03*
X16059Y15850D02*
D03*
Y22150D02*
D03*
X10941Y15850D02*
D03*
Y22150D02*
D03*
X82382Y17134D02*
D03*
Y10835D02*
D03*
X87500Y17134D02*
D03*
Y10835D02*
D03*
X82382Y37134D02*
D03*
Y30835D02*
D03*
X87500Y37134D02*
D03*
Y30835D02*
D03*
X82382Y57134D02*
D03*
Y50835D02*
D03*
X87500Y57134D02*
D03*
Y50835D02*
D03*
X82382Y77134D02*
D03*
Y70835D02*
D03*
X87500Y77134D02*
D03*
Y70835D02*
D03*
X16059Y54350D02*
D03*
Y60650D02*
D03*
X10941Y54350D02*
D03*
Y60650D02*
D03*
D21*
X16059Y38016D02*
D03*
Y39984D02*
D03*
X10941Y38016D02*
D03*
Y39984D02*
D03*
X16059Y18016D02*
D03*
Y19984D02*
D03*
X10941Y18016D02*
D03*
Y19984D02*
D03*
X82382Y14968D02*
D03*
Y13000D02*
D03*
X87500Y14968D02*
D03*
Y13000D02*
D03*
X82382Y34969D02*
D03*
Y33000D02*
D03*
X87500Y34969D02*
D03*
Y33000D02*
D03*
X82382Y54969D02*
D03*
Y53000D02*
D03*
X87500Y54969D02*
D03*
Y53000D02*
D03*
X82382Y74968D02*
D03*
Y73000D02*
D03*
X87500Y74968D02*
D03*
Y73000D02*
D03*
X16059Y56516D02*
D03*
Y58484D02*
D03*
X10941Y56516D02*
D03*
Y58484D02*
D03*
D22*
X7531Y81500D02*
D03*
X11468D02*
D03*
X46000Y10000D02*
D03*
Y6063D02*
D03*
X7531Y76500D02*
D03*
X11468D02*
D03*
X29500Y62468D02*
D03*
Y58531D02*
D03*
X42968Y76000D02*
D03*
X39031D02*
D03*
X31032D02*
D03*
X34969D02*
D03*
X24500Y81032D02*
D03*
Y84969D02*
D03*
X34969Y89500D02*
D03*
X31032D02*
D03*
D23*
X2500Y12000D02*
D03*
X95500Y6500D02*
D03*
X2500Y17000D02*
D03*
X96000Y11500D02*
D03*
X2500Y22000D02*
D03*
X96000Y16500D02*
D03*
X2500Y27000D02*
D03*
X96000Y21500D02*
D03*
X2500Y32000D02*
D03*
X96000Y26500D02*
D03*
X2500Y37000D02*
D03*
X95500Y31500D02*
D03*
X2500Y42000D02*
D03*
X96000Y36500D02*
D03*
X2500Y47000D02*
D03*
X96000Y41500D02*
D03*
Y46500D02*
D03*
Y51500D02*
D03*
Y56500D02*
D03*
Y61500D02*
D03*
Y66500D02*
D03*
Y71500D02*
D03*
Y76500D02*
D03*
X2500Y82000D02*
D03*
Y77000D02*
D03*
Y52000D02*
D03*
Y57000D02*
D03*
Y62000D02*
D03*
Y67000D02*
D03*
Y7000D02*
D03*
D24*
X63764Y67337D02*
D03*
X61795D02*
D03*
X59827D02*
D03*
X57858D02*
D03*
X55890D02*
D03*
X53921D02*
D03*
X51953D02*
D03*
X49984D02*
D03*
X48016D02*
D03*
X46047D02*
D03*
X44079D02*
D03*
X42110D02*
D03*
X40142D02*
D03*
X38173D02*
D03*
X36205D02*
D03*
X34236D02*
D03*
X63764Y15663D02*
D03*
X61795D02*
D03*
X59827D02*
D03*
X57858D02*
D03*
X55890D02*
D03*
X53921D02*
D03*
X51953D02*
D03*
X49984D02*
D03*
X48016D02*
D03*
X46047D02*
D03*
X44079D02*
D03*
X42110D02*
D03*
X40142D02*
D03*
X38173D02*
D03*
X36205D02*
D03*
X34236D02*
D03*
D25*
X27850Y84969D02*
D03*
Y83000D02*
D03*
Y81032D02*
D03*
X34150D02*
D03*
Y83000D02*
D03*
Y84969D02*
D03*
D26*
X31000Y83000D02*
D03*
D27*
X46000Y81500D02*
D03*
X54500D02*
D03*
D28*
X20000Y80047D02*
D03*
Y85953D02*
D03*
X39000D02*
D03*
Y80047D02*
D03*
D29*
X0Y61260D02*
D03*
Y81260D02*
D03*
Y66260D02*
D03*
Y76260D02*
D03*
Y71260D02*
D03*
Y86260D02*
D03*
Y56260D02*
D03*
Y51260D02*
D03*
Y16260D02*
D03*
Y21260D02*
D03*
Y46260D02*
D03*
Y41260D02*
D03*
Y31260D02*
D03*
Y36260D02*
D03*
Y6260D02*
D03*
Y11260D02*
D03*
Y26260D02*
D03*
X98425Y6260D02*
D03*
Y11260D02*
D03*
Y16260D02*
D03*
Y21260D02*
D03*
Y26260D02*
D03*
Y31260D02*
D03*
Y36260D02*
D03*
Y41260D02*
D03*
Y46260D02*
D03*
Y51260D02*
D03*
Y56260D02*
D03*
Y61260D02*
D03*
Y66260D02*
D03*
Y71260D02*
D03*
Y76260D02*
D03*
Y81260D02*
D03*
Y86260D02*
D03*
M02*
