M48
;Layer_Color=9474304
;FILE_FORMAT=2:5
INCH,LZ
;TYPE=PLATED
T01F00S00C0.01181
T02F00S00C0.01968
%
T01
X004Y001
X0046
X00485Y0008
X00755Y00105
Y00155
X0078553Y0017491
X00785Y0013
X00815Y00445
X0079Y00475
X00645Y0052
Y00555
X00605Y0052
Y00485
X00485Y0056
X0046Y00815
X00545
X0036Y0083
X0037Y0076
X0031Y0078659
Y0087201
X0027Y0087
X0039Y0088512
X002Y0077
X0014Y00765
Y00815
X0021534Y0061523
X0042Y00245
X0045445Y0024555
X0042Y00205
X0076036Y0072367
X00785Y007
X00735Y0075
T02
X0Y000626
Y001126
Y001626
X0098425Y001626
Y001126
Y000626
Y002126
Y002626
Y003126
Y003626
Y004126
Y004626
Y005126
Y005626
Y006126
Y006626
Y007126
Y007626
Y008126
Y008626
X0Y008626
Y008126
Y007626
Y007126
Y006626
Y006126
Y005626
Y005126
Y004626
Y004126
Y003626
Y003126
Y002626
Y002126
M30
