G04*
G04 #@! TF.GenerationSoftware,Altium Limited,Altium Designer,26.7.1 (11)*
G04*
G04 Layer_Physical_Order=1*
G04 Layer_Color=255*
G04 Board_Origin=283254961|169887245*
%FSLAX25Y25*%
%MOIN*%
G70*
G04*
G04 #@! TF.SameCoordinates,EF0A1A49-9E27-4F19-A3BC-71090C91D45F*
G04*
G04*
G04 #@! TF.FilePolarity,Positive*
G04*
G01*
G75*
%ADD11C,0.00787*%
%ADD12C,0.00984*%
%ADD13R,0.02953X0.01378*%
%ADD14R,0.02953X0.01181*%
%ADD15C,0.01968*%
%ADD16C,0.01181*%
%ADD17O,0.01378X0.06201*%
%ADD18R,0.01595X0.01004*%
%ADD19R,0.01968X0.04961*%
%ADD22C,0.02362*%
%ADD30C,0.05000*%
G04:AMPARAMS|DCode=31|XSize=31.5mil|YSize=27.56mil|CornerRadius=7.58mil|HoleSize=0mil|Usage=FLASHONLY|Rotation=0.000|XOffset=0mil|YOffset=0mil|HoleType=Round|Shape=RoundedRectangle|*
%AMROUNDEDRECTD31*
21,1,0.03150,0.01240,0,0,0.0*
21,1,0.01634,0.02756,0,0,0.0*
1,1,0.01516,0.00817,-0.00620*
1,1,0.01516,-0.00817,-0.00620*
1,1,0.01516,-0.00817,0.00620*
1,1,0.01516,0.00817,0.00620*
%
%ADD31ROUNDEDRECTD31*%
%ADD32C,0.01968*%
%ADD33C,0.01181*%
G04:AMPARAMS|DCode=34|XSize=78.74mil|YSize=31.5mil|CornerRadius=7.87mil|HoleSize=0mil|Usage=FLASHONLY|Rotation=180.000|XOffset=0mil|YOffset=0mil|HoleType=Round|Shape=RoundedRectangle|*
%AMROUNDEDRECTD34*
21,1,0.07874,0.01575,0,0,180.0*
21,1,0.06299,0.03150,0,0,180.0*
1,1,0.01575,-0.03150,0.00787*
1,1,0.01575,0.03150,0.00787*
1,1,0.01575,0.03150,-0.00787*
1,1,0.01575,-0.03150,-0.00787*
%
%ADD34ROUNDEDRECTD34*%
G36*
X83275Y6330D02*
X83301D01*
X83334Y6325D01*
X83371Y6320D01*
X83414Y6313D01*
X83461Y6306D01*
X83508Y6295D01*
X83560Y6280D01*
X83612Y6261D01*
X83664Y6240D01*
X83718Y6217D01*
X83770Y6186D01*
X83820Y6153D01*
X83867Y6115D01*
X83869Y6113D01*
X83879Y6106D01*
X83891Y6092D01*
X83907Y6075D01*
X83926Y6054D01*
X83947Y6025D01*
X83971Y5995D01*
X83997Y5959D01*
X84023Y5919D01*
X84049Y5875D01*
X84075Y5825D01*
X84096Y5771D01*
X84119Y5714D01*
X84138Y5653D01*
X84153Y5587D01*
X84164Y5518D01*
X83766Y5487D01*
Y5490D01*
X83763Y5497D01*
X83761Y5511D01*
X83756Y5525D01*
X83749Y5546D01*
X83744Y5568D01*
X83725Y5620D01*
X83704Y5674D01*
X83678Y5731D01*
X83648Y5785D01*
X83631Y5808D01*
X83612Y5830D01*
X83610Y5832D01*
X83605Y5837D01*
X83596Y5846D01*
X83584Y5856D01*
X83567Y5870D01*
X83548Y5884D01*
X83527Y5900D01*
X83501Y5917D01*
X83473Y5931D01*
X83442Y5948D01*
X83412Y5962D01*
X83376Y5976D01*
X83338Y5985D01*
X83298Y5995D01*
X83256Y6000D01*
X83213Y6002D01*
X83194D01*
X83180Y6000D01*
X83164D01*
X83145Y5997D01*
X83124Y5993D01*
X83098Y5988D01*
X83046Y5976D01*
X82989Y5957D01*
X82932Y5929D01*
X82904Y5912D01*
X82876Y5893D01*
X82873Y5891D01*
X82869Y5886D01*
X82857Y5879D01*
X82845Y5867D01*
X82829Y5853D01*
X82810Y5837D01*
X82791Y5816D01*
X82767Y5792D01*
X82744Y5766D01*
X82720Y5735D01*
X82694Y5702D01*
X82670Y5667D01*
X82644Y5627D01*
X82621Y5584D01*
X82597Y5539D01*
X82576Y5492D01*
Y5490D01*
X82571Y5480D01*
X82567Y5464D01*
X82560Y5443D01*
X82550Y5417D01*
X82541Y5384D01*
X82531Y5344D01*
X82522Y5299D01*
X82512Y5249D01*
X82501Y5192D01*
X82491Y5129D01*
X82484Y5063D01*
X82477Y4989D01*
X82470Y4912D01*
X82468Y4827D01*
X82465Y4737D01*
X82468Y4739D01*
X82472Y4746D01*
X82479Y4758D01*
X82491Y4772D01*
X82505Y4791D01*
X82522Y4812D01*
X82541Y4836D01*
X82564Y4862D01*
X82588Y4888D01*
X82614Y4914D01*
X82675Y4968D01*
X82741Y5020D01*
X82779Y5044D01*
X82817Y5065D01*
X82819Y5067D01*
X82826Y5070D01*
X82838Y5074D01*
X82852Y5082D01*
X82873Y5091D01*
X82895Y5100D01*
X82921Y5110D01*
X82951Y5119D01*
X82982Y5129D01*
X83017Y5138D01*
X83091Y5157D01*
X83173Y5169D01*
X83216Y5174D01*
X83277D01*
X83298Y5171D01*
X83324Y5169D01*
X83360Y5164D01*
X83400Y5157D01*
X83445Y5148D01*
X83494Y5136D01*
X83546Y5122D01*
X83600Y5100D01*
X83657Y5077D01*
X83716Y5049D01*
X83773Y5013D01*
X83829Y4975D01*
X83886Y4928D01*
X83940Y4876D01*
X83943Y4874D01*
X83952Y4862D01*
X83966Y4845D01*
X83985Y4822D01*
X84006Y4794D01*
X84030Y4758D01*
X84056Y4718D01*
X84082Y4671D01*
X84108Y4619D01*
X84134Y4560D01*
X84157Y4499D01*
X84179Y4430D01*
X84197Y4357D01*
X84212Y4281D01*
X84221Y4199D01*
X84223Y4114D01*
Y4112D01*
Y4100D01*
Y4083D01*
X84221Y4062D01*
X84219Y4034D01*
X84216Y4003D01*
X84212Y3968D01*
X84207Y3928D01*
X84200Y3885D01*
X84190Y3840D01*
X84181Y3793D01*
X84167Y3743D01*
X84150Y3694D01*
X84134Y3644D01*
X84112Y3592D01*
X84089Y3543D01*
X84087Y3540D01*
X84082Y3531D01*
X84075Y3517D01*
X84065Y3500D01*
X84051Y3477D01*
X84035Y3451D01*
X84016Y3425D01*
X83994Y3394D01*
X83969Y3361D01*
X83943Y3328D01*
X83912Y3295D01*
X83879Y3262D01*
X83846Y3229D01*
X83808Y3196D01*
X83768Y3168D01*
X83725Y3139D01*
X83723Y3137D01*
X83716Y3132D01*
X83702Y3127D01*
X83685Y3118D01*
X83662Y3106D01*
X83636Y3094D01*
X83607Y3083D01*
X83572Y3071D01*
X83537Y3057D01*
X83496Y3045D01*
X83452Y3033D01*
X83407Y3021D01*
X83357Y3012D01*
X83308Y3007D01*
X83253Y3002D01*
X83199Y3000D01*
X83178D01*
X83166Y3002D01*
X83152D01*
X83117Y3005D01*
X83074Y3012D01*
X83025Y3019D01*
X82970Y3031D01*
X82909Y3047D01*
X82845Y3066D01*
X82779Y3090D01*
X82713Y3120D01*
X82644Y3156D01*
X82576Y3198D01*
X82508Y3248D01*
X82444Y3304D01*
X82383Y3368D01*
X82380Y3373D01*
X82368Y3385D01*
X82354Y3408D01*
X82333Y3439D01*
X82309Y3479D01*
X82295Y3503D01*
X82283Y3529D01*
X82269Y3557D01*
X82255Y3588D01*
X82239Y3623D01*
X82224Y3658D01*
X82210Y3696D01*
X82196Y3736D01*
X82180Y3781D01*
X82165Y3826D01*
X82154Y3876D01*
X82139Y3925D01*
X82128Y3979D01*
X82116Y4036D01*
X82104Y4095D01*
X82095Y4156D01*
X82088Y4220D01*
X82081Y4286D01*
X82073Y4357D01*
X82071Y4428D01*
X82066Y4503D01*
Y4581D01*
Y4584D01*
Y4593D01*
Y4605D01*
Y4624D01*
X82069Y4645D01*
Y4671D01*
X82071Y4702D01*
Y4737D01*
X82073Y4772D01*
X82078Y4815D01*
X82081Y4857D01*
X82085Y4905D01*
X82095Y5001D01*
X82111Y5108D01*
X82128Y5218D01*
X82151Y5334D01*
X82180Y5447D01*
X82213Y5561D01*
X82253Y5672D01*
X82300Y5775D01*
X82326Y5825D01*
X82354Y5870D01*
X82385Y5915D01*
X82416Y5957D01*
X82420Y5962D01*
X82430Y5974D01*
X82446Y5993D01*
X82472Y6016D01*
X82503Y6044D01*
X82538Y6075D01*
X82583Y6111D01*
X82633Y6146D01*
X82689Y6179D01*
X82751Y6214D01*
X82817Y6245D01*
X82890Y6273D01*
X82970Y6297D01*
X83053Y6316D01*
X83143Y6328D01*
X83237Y6332D01*
X83253D01*
X83275Y6330D01*
D02*
G37*
G36*
X67128Y5471D02*
X67151Y5469D01*
X67175Y5466D01*
X67203Y5464D01*
X67262Y5454D01*
X67328Y5440D01*
X67397Y5421D01*
X67465Y5395D01*
X67467D01*
X67472Y5393D01*
X67481Y5388D01*
X67496Y5381D01*
X67510Y5374D01*
X67526Y5365D01*
X67567Y5341D01*
X67609Y5313D01*
X67654Y5277D01*
X67696Y5237D01*
X67734Y5192D01*
Y5190D01*
X67739Y5188D01*
X67743Y5181D01*
X67748Y5171D01*
X67755Y5159D01*
X67765Y5145D01*
X67784Y5110D01*
X67805Y5067D01*
X67824Y5015D01*
X67843Y4959D01*
X67859Y4897D01*
Y4895D01*
Y4893D01*
X67861Y4886D01*
X67864Y4876D01*
Y4864D01*
X67866Y4848D01*
X67869Y4829D01*
X67871Y4808D01*
X67873Y4782D01*
X67876Y4753D01*
X67878Y4723D01*
Y4687D01*
X67880Y4647D01*
X67883Y4605D01*
Y4558D01*
Y4508D01*
Y3054D01*
X67481D01*
Y4492D01*
Y4494D01*
Y4503D01*
Y4515D01*
Y4532D01*
X67479Y4553D01*
Y4577D01*
X67477Y4602D01*
Y4628D01*
X67470Y4690D01*
X67463Y4749D01*
X67451Y4808D01*
X67444Y4834D01*
X67434Y4857D01*
Y4860D01*
X67432Y4862D01*
X67430Y4869D01*
X67425Y4879D01*
X67413Y4900D01*
X67397Y4928D01*
X67373Y4959D01*
X67345Y4992D01*
X67309Y5025D01*
X67267Y5053D01*
X67264D01*
X67262Y5056D01*
X67255Y5060D01*
X67246Y5065D01*
X67222Y5077D01*
X67189Y5091D01*
X67146Y5103D01*
X67099Y5115D01*
X67047Y5124D01*
X66988Y5126D01*
X66962D01*
X66946Y5124D01*
X66922Y5122D01*
X66896Y5117D01*
X66868Y5112D01*
X66837Y5105D01*
X66802Y5098D01*
X66766Y5086D01*
X66731Y5074D01*
X66693Y5058D01*
X66655Y5039D01*
X66618Y5018D01*
X66580Y4992D01*
X66545Y4964D01*
X66542Y4961D01*
X66537Y4956D01*
X66528Y4945D01*
X66516Y4930D01*
X66502Y4912D01*
X66486Y4888D01*
X66469Y4860D01*
X66453Y4824D01*
X66436Y4786D01*
X66420Y4742D01*
X66403Y4690D01*
X66389Y4633D01*
X66377Y4572D01*
X66368Y4503D01*
X66363Y4428D01*
X66360Y4345D01*
Y3054D01*
X65959D01*
Y5421D01*
X66320D01*
Y5084D01*
X66323Y5089D01*
X66332Y5100D01*
X66349Y5119D01*
X66368Y5145D01*
X66396Y5174D01*
X66429Y5207D01*
X66467Y5242D01*
X66512Y5280D01*
X66561Y5315D01*
X66618Y5351D01*
X66679Y5384D01*
X66748Y5412D01*
X66821Y5438D01*
X66899Y5457D01*
X66984Y5469D01*
X67073Y5473D01*
X67109D01*
X67128Y5471D01*
D02*
G37*
G36*
X62806D02*
X62825Y5469D01*
X62846Y5466D01*
X62870Y5461D01*
X62898Y5457D01*
X62929Y5450D01*
X62962Y5443D01*
X63031Y5419D01*
X63068Y5405D01*
X63106Y5386D01*
X63144Y5367D01*
X63184Y5344D01*
X63042Y4973D01*
X63040D01*
X63035Y4978D01*
X63028Y4980D01*
X63016Y4987D01*
X63005Y4992D01*
X62988Y4999D01*
X62950Y5015D01*
X62908Y5032D01*
X62858Y5044D01*
X62804Y5053D01*
X62750Y5058D01*
X62729D01*
X62703Y5053D01*
X62672Y5049D01*
X62636Y5039D01*
X62596Y5025D01*
X62556Y5004D01*
X62516Y4978D01*
X62511Y4973D01*
X62500Y4964D01*
X62481Y4945D01*
X62459Y4921D01*
X62433Y4890D01*
X62410Y4853D01*
X62386Y4808D01*
X62367Y4758D01*
Y4756D01*
X62365Y4749D01*
X62360Y4737D01*
X62358Y4720D01*
X62353Y4702D01*
X62346Y4678D01*
X62341Y4650D01*
X62334Y4621D01*
X62327Y4586D01*
X62323Y4550D01*
X62318Y4513D01*
X62311Y4473D01*
X62304Y4385D01*
X62301Y4291D01*
Y3054D01*
X61900D01*
Y5421D01*
X62261D01*
Y5058D01*
X62264Y5060D01*
X62268Y5070D01*
X62275Y5082D01*
X62285Y5098D01*
X62297Y5119D01*
X62311Y5143D01*
X62344Y5195D01*
X62384Y5249D01*
X62426Y5306D01*
X62448Y5329D01*
X62469Y5353D01*
X62493Y5374D01*
X62514Y5391D01*
X62516D01*
X62518Y5395D01*
X62525Y5398D01*
X62535Y5405D01*
X62559Y5417D01*
X62589Y5433D01*
X62629Y5447D01*
X62672Y5461D01*
X62719Y5471D01*
X62771Y5473D01*
X62792D01*
X62806Y5471D01*
D02*
G37*
G36*
X71881D02*
X71909Y5469D01*
X71942Y5466D01*
X71977Y5464D01*
X72013Y5459D01*
X72053Y5454D01*
X72135Y5440D01*
X72220Y5419D01*
X72301Y5393D01*
X72303D01*
X72310Y5388D01*
X72322Y5386D01*
X72336Y5379D01*
X72353Y5369D01*
X72371Y5360D01*
X72419Y5336D01*
X72468Y5306D01*
X72520Y5268D01*
X72567Y5226D01*
X72591Y5202D01*
X72610Y5176D01*
X72612Y5174D01*
X72615Y5169D01*
X72619Y5162D01*
X72626Y5150D01*
X72636Y5138D01*
X72645Y5122D01*
X72655Y5100D01*
X72666Y5079D01*
X72678Y5053D01*
X72690Y5027D01*
X72702Y4997D01*
X72711Y4964D01*
X72723Y4928D01*
X72735Y4893D01*
X72751Y4810D01*
X72360Y4756D01*
Y4758D01*
X72357Y4763D01*
Y4772D01*
X72353Y4786D01*
X72350Y4801D01*
X72343Y4820D01*
X72329Y4860D01*
X72308Y4905D01*
X72282Y4952D01*
X72246Y4999D01*
X72225Y5020D01*
X72202Y5039D01*
X72199Y5041D01*
X72197Y5044D01*
X72187Y5049D01*
X72178Y5056D01*
X72164Y5063D01*
X72150Y5072D01*
X72131Y5082D01*
X72110Y5091D01*
X72083Y5100D01*
X72058Y5110D01*
X72027Y5119D01*
X71996Y5126D01*
X71961Y5133D01*
X71923Y5138D01*
X71883Y5143D01*
X71815D01*
X71796Y5141D01*
X71772D01*
X71746Y5138D01*
X71718Y5136D01*
X71687Y5131D01*
X71621Y5122D01*
X71555Y5105D01*
X71524Y5093D01*
X71496Y5082D01*
X71468Y5067D01*
X71444Y5051D01*
X71442D01*
X71439Y5046D01*
X71425Y5034D01*
X71406Y5015D01*
X71385Y4989D01*
X71364Y4959D01*
X71345Y4923D01*
X71331Y4883D01*
X71328Y4860D01*
X71326Y4838D01*
Y4836D01*
Y4824D01*
X71328Y4810D01*
X71333Y4791D01*
X71338Y4770D01*
X71345Y4746D01*
X71357Y4720D01*
X71373Y4697D01*
X71376Y4694D01*
X71383Y4687D01*
X71394Y4676D01*
X71411Y4659D01*
X71432Y4643D01*
X71460Y4626D01*
X71491Y4607D01*
X71529Y4591D01*
X71531D01*
X71536Y4588D01*
X71543Y4586D01*
X71552Y4584D01*
X71564Y4579D01*
X71579Y4577D01*
X71595Y4569D01*
X71616Y4565D01*
X71642Y4558D01*
X71671Y4548D01*
X71704Y4539D01*
X71741Y4529D01*
X71784Y4518D01*
X71833Y4503D01*
X71885Y4489D01*
X71888D01*
X71890Y4487D01*
X71904Y4484D01*
X71925Y4477D01*
X71954Y4470D01*
X71989Y4461D01*
X72029Y4449D01*
X72074Y4437D01*
X72119Y4423D01*
X72218Y4395D01*
X72317Y4362D01*
X72362Y4348D01*
X72407Y4331D01*
X72445Y4317D01*
X72480Y4303D01*
X72482D01*
X72487Y4300D01*
X72496Y4296D01*
X72508Y4289D01*
X72522Y4281D01*
X72539Y4272D01*
X72577Y4248D01*
X72619Y4218D01*
X72662Y4182D01*
X72704Y4140D01*
X72744Y4090D01*
Y4088D01*
X72749Y4083D01*
X72754Y4076D01*
X72759Y4067D01*
X72768Y4053D01*
X72775Y4036D01*
X72784Y4017D01*
X72794Y3996D01*
X72801Y3972D01*
X72810Y3946D01*
X72827Y3890D01*
X72836Y3824D01*
X72841Y3751D01*
Y3748D01*
Y3741D01*
Y3732D01*
X72839Y3717D01*
Y3699D01*
X72834Y3677D01*
X72832Y3654D01*
X72827Y3628D01*
X72813Y3571D01*
X72791Y3507D01*
X72777Y3474D01*
X72763Y3439D01*
X72744Y3406D01*
X72723Y3373D01*
X72721Y3370D01*
X72718Y3366D01*
X72711Y3356D01*
X72702Y3345D01*
X72690Y3328D01*
X72673Y3311D01*
X72657Y3293D01*
X72636Y3271D01*
X72615Y3250D01*
X72589Y3229D01*
X72560Y3205D01*
X72530Y3182D01*
X72496Y3161D01*
X72461Y3139D01*
X72423Y3118D01*
X72383Y3099D01*
X72381D01*
X72374Y3094D01*
X72362Y3090D01*
X72346Y3085D01*
X72324Y3078D01*
X72298Y3068D01*
X72270Y3059D01*
X72239Y3052D01*
X72204Y3042D01*
X72166Y3033D01*
X72124Y3026D01*
X72081Y3016D01*
X71987Y3007D01*
X71885Y3002D01*
X71864D01*
X71840Y3005D01*
X71810D01*
X71770Y3009D01*
X71727Y3012D01*
X71678Y3019D01*
X71623Y3026D01*
X71567Y3035D01*
X71510Y3050D01*
X71451Y3064D01*
X71392Y3083D01*
X71335Y3104D01*
X71279Y3130D01*
X71227Y3161D01*
X71180Y3193D01*
X71177Y3196D01*
X71170Y3203D01*
X71156Y3215D01*
X71142Y3229D01*
X71123Y3250D01*
X71099Y3274D01*
X71076Y3302D01*
X71052Y3337D01*
X71026Y3375D01*
X70998Y3415D01*
X70974Y3463D01*
X70948Y3514D01*
X70925Y3569D01*
X70906Y3630D01*
X70887Y3694D01*
X70873Y3762D01*
X71269Y3824D01*
Y3821D01*
X71272Y3814D01*
X71274Y3800D01*
X71276Y3783D01*
X71281Y3765D01*
X71288Y3741D01*
X71295Y3715D01*
X71305Y3689D01*
X71328Y3630D01*
X71361Y3569D01*
X71380Y3538D01*
X71402Y3510D01*
X71427Y3484D01*
X71453Y3458D01*
X71456Y3455D01*
X71460Y3453D01*
X71470Y3446D01*
X71482Y3439D01*
X71498Y3430D01*
X71517Y3418D01*
X71538Y3406D01*
X71564Y3396D01*
X71593Y3385D01*
X71626Y3373D01*
X71661Y3361D01*
X71699Y3352D01*
X71741Y3345D01*
X71786Y3337D01*
X71833Y3335D01*
X71883Y3333D01*
X71909D01*
X71928Y3335D01*
X71951D01*
X71977Y3340D01*
X72006Y3342D01*
X72039Y3347D01*
X72105Y3361D01*
X72173Y3380D01*
X72237Y3408D01*
X72268Y3425D01*
X72294Y3444D01*
X72296Y3446D01*
X72298Y3448D01*
X72305Y3455D01*
X72315Y3465D01*
X72336Y3489D01*
X72362Y3519D01*
X72386Y3557D01*
X72407Y3604D01*
X72416Y3628D01*
X72423Y3654D01*
X72426Y3680D01*
X72428Y3708D01*
Y3710D01*
Y3715D01*
Y3722D01*
X72426Y3729D01*
X72421Y3755D01*
X72414Y3786D01*
X72400Y3819D01*
X72378Y3854D01*
X72364Y3871D01*
X72348Y3890D01*
X72329Y3906D01*
X72308Y3920D01*
X72303Y3923D01*
X72298Y3925D01*
X72291Y3930D01*
X72279Y3935D01*
X72265Y3942D01*
X72246Y3949D01*
X72228Y3958D01*
X72202Y3968D01*
X72173Y3977D01*
X72138Y3989D01*
X72100Y4001D01*
X72058Y4012D01*
X72010Y4027D01*
X71956Y4041D01*
X71897Y4055D01*
X71895D01*
X71892Y4057D01*
X71878Y4060D01*
X71855Y4067D01*
X71826Y4074D01*
X71789Y4083D01*
X71748Y4095D01*
X71704Y4107D01*
X71654Y4121D01*
X71552Y4152D01*
X71451Y4185D01*
X71404Y4201D01*
X71359Y4218D01*
X71319Y4234D01*
X71284Y4248D01*
X71281D01*
X71276Y4253D01*
X71267Y4258D01*
X71255Y4263D01*
X71241Y4272D01*
X71224Y4281D01*
X71187Y4307D01*
X71147Y4338D01*
X71104Y4376D01*
X71062Y4421D01*
X71026Y4473D01*
Y4475D01*
X71021Y4480D01*
X71019Y4487D01*
X71012Y4499D01*
X71005Y4510D01*
X70998Y4527D01*
X70991Y4546D01*
X70984Y4567D01*
X70967Y4614D01*
X70953Y4668D01*
X70944Y4727D01*
X70939Y4791D01*
Y4794D01*
Y4798D01*
Y4808D01*
X70941Y4817D01*
Y4831D01*
X70944Y4848D01*
X70948Y4888D01*
X70955Y4933D01*
X70970Y4982D01*
X70986Y5032D01*
X71010Y5084D01*
Y5086D01*
X71012Y5091D01*
X71017Y5098D01*
X71024Y5108D01*
X71040Y5131D01*
X71062Y5162D01*
X71090Y5197D01*
X71125Y5235D01*
X71163Y5273D01*
X71208Y5308D01*
X71213Y5310D01*
X71224Y5320D01*
X71246Y5332D01*
X71276Y5348D01*
X71312Y5367D01*
X71354Y5386D01*
X71406Y5405D01*
X71463Y5424D01*
X71465D01*
X71470Y5426D01*
X71479Y5428D01*
X71491Y5431D01*
X71505Y5435D01*
X71524Y5440D01*
X71545Y5445D01*
X71567Y5450D01*
X71619Y5457D01*
X71678Y5466D01*
X71741Y5471D01*
X71810Y5473D01*
X71857D01*
X71881Y5471D01*
D02*
G37*
G36*
X60614D02*
X60640D01*
X60673Y5466D01*
X60711Y5464D01*
X60753Y5457D01*
X60800Y5450D01*
X60850Y5438D01*
X60900Y5426D01*
X60951Y5410D01*
X61006Y5391D01*
X61058Y5369D01*
X61110Y5341D01*
X61159Y5313D01*
X61206Y5277D01*
X61209Y5275D01*
X61218Y5268D01*
X61230Y5256D01*
X61246Y5242D01*
X61265Y5221D01*
X61289Y5197D01*
X61313Y5169D01*
X61338Y5136D01*
X61364Y5098D01*
X61390Y5056D01*
X61419Y5011D01*
X61442Y4961D01*
X61468Y4909D01*
X61489Y4850D01*
X61508Y4791D01*
X61523Y4725D01*
X61133Y4666D01*
Y4668D01*
X61131Y4676D01*
X61126Y4690D01*
X61121Y4704D01*
X61117Y4725D01*
X61107Y4746D01*
X61098Y4772D01*
X61088Y4798D01*
X61060Y4857D01*
X61025Y4916D01*
X60984Y4973D01*
X60961Y4999D01*
X60935Y5023D01*
X60932Y5025D01*
X60928Y5027D01*
X60921Y5034D01*
X60909Y5041D01*
X60897Y5051D01*
X60881Y5060D01*
X60862Y5072D01*
X60838Y5084D01*
X60789Y5105D01*
X60732Y5124D01*
X60666Y5138D01*
X60630Y5141D01*
X60593Y5143D01*
X60579D01*
X60564Y5141D01*
X60543D01*
X60517Y5136D01*
X60487Y5131D01*
X60453Y5124D01*
X60418Y5117D01*
X60380Y5105D01*
X60340Y5091D01*
X60300Y5072D01*
X60258Y5051D01*
X60217Y5027D01*
X60177Y4997D01*
X60140Y4964D01*
X60102Y4926D01*
X60099Y4923D01*
X60095Y4916D01*
X60085Y4902D01*
X60074Y4886D01*
X60057Y4862D01*
X60043Y4831D01*
X60024Y4798D01*
X60007Y4758D01*
X59991Y4713D01*
X59972Y4664D01*
X59958Y4607D01*
X59944Y4543D01*
X59930Y4477D01*
X59920Y4404D01*
X59915Y4324D01*
X59913Y4239D01*
Y4237D01*
Y4234D01*
Y4227D01*
Y4218D01*
X59915Y4194D01*
Y4161D01*
X59918Y4121D01*
X59922Y4076D01*
X59927Y4027D01*
X59937Y3975D01*
X59946Y3918D01*
X59958Y3861D01*
X59972Y3802D01*
X59991Y3746D01*
X60010Y3692D01*
X60036Y3640D01*
X60062Y3590D01*
X60095Y3548D01*
X60097Y3545D01*
X60104Y3538D01*
X60114Y3529D01*
X60128Y3514D01*
X60147Y3498D01*
X60168Y3479D01*
X60194Y3460D01*
X60222Y3441D01*
X60255Y3420D01*
X60291Y3401D01*
X60331Y3382D01*
X60373Y3366D01*
X60418Y3352D01*
X60465Y3342D01*
X60517Y3335D01*
X60571Y3333D01*
X60595D01*
X60612Y3335D01*
X60630Y3337D01*
X60654Y3340D01*
X60680Y3345D01*
X60708Y3352D01*
X60772Y3368D01*
X60805Y3380D01*
X60838Y3394D01*
X60871Y3411D01*
X60904Y3430D01*
X60935Y3451D01*
X60966Y3477D01*
X60968Y3479D01*
X60973Y3484D01*
X60980Y3493D01*
X60992Y3505D01*
X61003Y3519D01*
X61018Y3538D01*
X61034Y3562D01*
X61050Y3588D01*
X61067Y3616D01*
X61084Y3649D01*
X61100Y3684D01*
X61117Y3727D01*
X61133Y3769D01*
X61145Y3817D01*
X61157Y3869D01*
X61166Y3923D01*
X61560Y3869D01*
Y3864D01*
X61558Y3850D01*
X61553Y3828D01*
X61546Y3800D01*
X61537Y3767D01*
X61525Y3727D01*
X61511Y3684D01*
X61494Y3635D01*
X61473Y3585D01*
X61449Y3533D01*
X61423Y3481D01*
X61393Y3427D01*
X61357Y3375D01*
X61320Y3323D01*
X61275Y3276D01*
X61228Y3231D01*
X61225Y3229D01*
X61216Y3222D01*
X61202Y3210D01*
X61180Y3196D01*
X61154Y3179D01*
X61124Y3158D01*
X61088Y3139D01*
X61046Y3118D01*
X61001Y3094D01*
X60951Y3076D01*
X60897Y3057D01*
X60840Y3038D01*
X60779Y3024D01*
X60713Y3012D01*
X60645Y3005D01*
X60574Y3002D01*
X60553D01*
X60527Y3005D01*
X60494Y3007D01*
X60453Y3012D01*
X60406Y3019D01*
X60352Y3028D01*
X60295Y3042D01*
X60234Y3059D01*
X60170Y3080D01*
X60106Y3106D01*
X60040Y3137D01*
X59977Y3172D01*
X59913Y3215D01*
X59852Y3262D01*
X59795Y3319D01*
X59793Y3323D01*
X59783Y3333D01*
X59767Y3352D01*
X59750Y3378D01*
X59727Y3411D01*
X59701Y3451D01*
X59675Y3498D01*
X59649Y3550D01*
X59620Y3611D01*
X59594Y3680D01*
X59568Y3755D01*
X59547Y3835D01*
X59528Y3923D01*
X59512Y4017D01*
X59502Y4119D01*
X59500Y4227D01*
Y4232D01*
Y4244D01*
Y4265D01*
X59502Y4291D01*
X59505Y4324D01*
X59507Y4364D01*
X59509Y4407D01*
X59517Y4454D01*
X59521Y4506D01*
X59531Y4560D01*
X59552Y4671D01*
X59566Y4730D01*
X59585Y4786D01*
X59604Y4843D01*
X59625Y4897D01*
X59627Y4900D01*
X59632Y4909D01*
X59639Y4926D01*
X59649Y4945D01*
X59663Y4968D01*
X59679Y4997D01*
X59698Y5027D01*
X59722Y5060D01*
X59748Y5093D01*
X59776Y5129D01*
X59807Y5167D01*
X59842Y5202D01*
X59880Y5235D01*
X59920Y5270D01*
X59965Y5301D01*
X60012Y5329D01*
X60014Y5332D01*
X60024Y5336D01*
X60038Y5344D01*
X60057Y5353D01*
X60081Y5362D01*
X60111Y5374D01*
X60144Y5388D01*
X60180Y5403D01*
X60220Y5414D01*
X60265Y5428D01*
X60309Y5440D01*
X60359Y5452D01*
X60411Y5459D01*
X60465Y5466D01*
X60519Y5471D01*
X60576Y5473D01*
X60593D01*
X60614Y5471D01*
D02*
G37*
G36*
X80674Y6330D02*
X80707Y6328D01*
X80747Y6325D01*
X80792Y6318D01*
X80844Y6311D01*
X80898Y6299D01*
X80957Y6285D01*
X81016Y6269D01*
X81080Y6247D01*
X81141Y6221D01*
X81203Y6191D01*
X81262Y6158D01*
X81318Y6118D01*
X81372Y6070D01*
X81375Y6068D01*
X81384Y6059D01*
X81398Y6044D01*
X81415Y6023D01*
X81436Y6000D01*
X81460Y5969D01*
X81486Y5934D01*
X81512Y5893D01*
X81535Y5849D01*
X81561Y5799D01*
X81585Y5745D01*
X81606Y5688D01*
X81623Y5627D01*
X81637Y5563D01*
X81646Y5494D01*
X81649Y5424D01*
Y5421D01*
Y5414D01*
Y5405D01*
Y5391D01*
X81646Y5372D01*
X81644Y5353D01*
X81642Y5329D01*
X81639Y5303D01*
X81630Y5244D01*
X81616Y5178D01*
X81594Y5110D01*
X81568Y5039D01*
Y5037D01*
X81564Y5030D01*
X81559Y5020D01*
X81552Y5006D01*
X81545Y4989D01*
X81533Y4968D01*
X81521Y4945D01*
X81505Y4919D01*
X81488Y4890D01*
X81469Y4860D01*
X81422Y4791D01*
X81396Y4756D01*
X81368Y4718D01*
X81335Y4680D01*
X81302Y4640D01*
X81299Y4638D01*
X81292Y4631D01*
X81283Y4619D01*
X81266Y4602D01*
X81245Y4581D01*
X81219Y4555D01*
X81191Y4525D01*
X81155Y4489D01*
X81115Y4451D01*
X81068Y4409D01*
X81019Y4362D01*
X80962Y4310D01*
X80901Y4256D01*
X80834Y4197D01*
X80761Y4133D01*
X80683Y4067D01*
X80679Y4064D01*
X80667Y4053D01*
X80650Y4038D01*
X80627Y4017D01*
X80596Y3994D01*
X80565Y3965D01*
X80530Y3935D01*
X80492Y3901D01*
X80412Y3833D01*
X80374Y3798D01*
X80336Y3765D01*
X80301Y3732D01*
X80270Y3703D01*
X80242Y3677D01*
X80221Y3654D01*
X80216Y3649D01*
X80204Y3635D01*
X80185Y3614D01*
X80162Y3588D01*
X80136Y3555D01*
X80107Y3519D01*
X80079Y3479D01*
X80053Y3439D01*
X81653D01*
Y3054D01*
X79496D01*
Y3057D01*
Y3061D01*
Y3068D01*
Y3078D01*
Y3092D01*
X79499Y3106D01*
X79501Y3144D01*
X79506Y3184D01*
X79513Y3231D01*
X79525Y3281D01*
X79541Y3330D01*
Y3333D01*
X79546Y3340D01*
X79551Y3352D01*
X79558Y3368D01*
X79565Y3389D01*
X79576Y3413D01*
X79591Y3439D01*
X79605Y3467D01*
X79621Y3500D01*
X79643Y3533D01*
X79687Y3607D01*
X79742Y3684D01*
X79805Y3765D01*
X79808Y3767D01*
X79815Y3774D01*
X79824Y3786D01*
X79839Y3802D01*
X79857Y3824D01*
X79881Y3847D01*
X79907Y3876D01*
X79940Y3906D01*
X79975Y3942D01*
X80013Y3979D01*
X80056Y4019D01*
X80103Y4064D01*
X80155Y4109D01*
X80209Y4156D01*
X80268Y4206D01*
X80329Y4258D01*
X80332Y4260D01*
X80336Y4263D01*
X80344Y4270D01*
X80353Y4277D01*
X80365Y4289D01*
X80379Y4300D01*
X80414Y4331D01*
X80459Y4366D01*
X80506Y4411D01*
X80561Y4459D01*
X80617Y4510D01*
X80679Y4565D01*
X80738Y4621D01*
X80799Y4678D01*
X80856Y4737D01*
X80912Y4794D01*
X80962Y4848D01*
X81009Y4902D01*
X81047Y4952D01*
X81049Y4954D01*
X81054Y4964D01*
X81063Y4978D01*
X81077Y4994D01*
X81092Y5018D01*
X81106Y5044D01*
X81125Y5074D01*
X81141Y5108D01*
X81158Y5143D01*
X81177Y5181D01*
X81207Y5263D01*
X81219Y5306D01*
X81229Y5348D01*
X81233Y5391D01*
X81236Y5433D01*
Y5435D01*
Y5445D01*
Y5457D01*
X81233Y5473D01*
X81231Y5494D01*
X81226Y5518D01*
X81221Y5544D01*
X81214Y5572D01*
X81205Y5603D01*
X81193Y5636D01*
X81179Y5669D01*
X81162Y5702D01*
X81144Y5738D01*
X81120Y5771D01*
X81094Y5804D01*
X81063Y5834D01*
X81061Y5837D01*
X81056Y5841D01*
X81047Y5849D01*
X81033Y5860D01*
X81016Y5872D01*
X80995Y5886D01*
X80971Y5903D01*
X80945Y5917D01*
X80915Y5934D01*
X80882Y5948D01*
X80844Y5962D01*
X80806Y5974D01*
X80764Y5985D01*
X80719Y5993D01*
X80672Y5997D01*
X80622Y6000D01*
X80594D01*
X80575Y5997D01*
X80549Y5995D01*
X80520Y5990D01*
X80490Y5985D01*
X80454Y5978D01*
X80419Y5969D01*
X80381Y5957D01*
X80344Y5943D01*
X80303Y5926D01*
X80266Y5905D01*
X80228Y5882D01*
X80190Y5856D01*
X80157Y5825D01*
X80155Y5823D01*
X80150Y5818D01*
X80141Y5806D01*
X80131Y5794D01*
X80117Y5775D01*
X80103Y5754D01*
X80086Y5728D01*
X80072Y5700D01*
X80056Y5669D01*
X80039Y5631D01*
X80025Y5594D01*
X80011Y5551D01*
X80001Y5504D01*
X79992Y5454D01*
X79987Y5403D01*
X79985Y5346D01*
X79572Y5388D01*
Y5391D01*
Y5393D01*
X79574Y5400D01*
Y5410D01*
X79576Y5433D01*
X79584Y5464D01*
X79591Y5502D01*
X79600Y5546D01*
X79612Y5596D01*
X79626Y5648D01*
X79645Y5705D01*
X79666Y5761D01*
X79692Y5820D01*
X79723Y5879D01*
X79756Y5936D01*
X79796Y5990D01*
X79839Y6042D01*
X79888Y6089D01*
X79890Y6092D01*
X79900Y6099D01*
X79916Y6113D01*
X79938Y6127D01*
X79966Y6146D01*
X79999Y6167D01*
X80039Y6188D01*
X80084Y6212D01*
X80136Y6233D01*
X80190Y6254D01*
X80251Y6276D01*
X80318Y6295D01*
X80388Y6311D01*
X80464Y6323D01*
X80544Y6330D01*
X80629Y6332D01*
X80650D01*
X80674Y6330D01*
D02*
G37*
G36*
X75600D02*
X75633Y6328D01*
X75673Y6325D01*
X75718Y6318D01*
X75770Y6311D01*
X75824Y6299D01*
X75883Y6285D01*
X75942Y6269D01*
X76006Y6247D01*
X76067Y6221D01*
X76129Y6191D01*
X76188Y6158D01*
X76244Y6118D01*
X76298Y6070D01*
X76301Y6068D01*
X76310Y6059D01*
X76324Y6044D01*
X76341Y6023D01*
X76362Y6000D01*
X76386Y5969D01*
X76412Y5934D01*
X76438Y5893D01*
X76461Y5849D01*
X76487Y5799D01*
X76511Y5745D01*
X76532Y5688D01*
X76549Y5627D01*
X76563Y5563D01*
X76572Y5494D01*
X76575Y5424D01*
Y5421D01*
Y5414D01*
Y5405D01*
Y5391D01*
X76572Y5372D01*
X76570Y5353D01*
X76568Y5329D01*
X76565Y5303D01*
X76556Y5244D01*
X76542Y5178D01*
X76520Y5110D01*
X76494Y5039D01*
Y5037D01*
X76490Y5030D01*
X76485Y5020D01*
X76478Y5006D01*
X76471Y4989D01*
X76459Y4968D01*
X76447Y4945D01*
X76431Y4919D01*
X76414Y4890D01*
X76395Y4860D01*
X76348Y4791D01*
X76322Y4756D01*
X76294Y4718D01*
X76261Y4680D01*
X76228Y4640D01*
X76225Y4638D01*
X76218Y4631D01*
X76209Y4619D01*
X76192Y4602D01*
X76171Y4581D01*
X76145Y4555D01*
X76117Y4525D01*
X76081Y4489D01*
X76041Y4451D01*
X75994Y4409D01*
X75945Y4362D01*
X75888Y4310D01*
X75827Y4256D01*
X75760Y4197D01*
X75687Y4133D01*
X75609Y4067D01*
X75605Y4064D01*
X75593Y4053D01*
X75576Y4038D01*
X75553Y4017D01*
X75522Y3994D01*
X75491Y3965D01*
X75456Y3935D01*
X75418Y3901D01*
X75338Y3833D01*
X75300Y3798D01*
X75262Y3765D01*
X75227Y3732D01*
X75196Y3703D01*
X75168Y3677D01*
X75147Y3654D01*
X75142Y3649D01*
X75130Y3635D01*
X75111Y3614D01*
X75088Y3588D01*
X75062Y3555D01*
X75033Y3519D01*
X75005Y3479D01*
X74979Y3439D01*
X76579D01*
Y3054D01*
X74422D01*
Y3057D01*
Y3061D01*
Y3068D01*
Y3078D01*
Y3092D01*
X74425Y3106D01*
X74427Y3144D01*
X74432Y3184D01*
X74439Y3231D01*
X74451Y3281D01*
X74467Y3330D01*
Y3333D01*
X74472Y3340D01*
X74477Y3352D01*
X74484Y3368D01*
X74491Y3389D01*
X74502Y3413D01*
X74517Y3439D01*
X74531Y3467D01*
X74547Y3500D01*
X74569Y3533D01*
X74613Y3607D01*
X74668Y3684D01*
X74731Y3765D01*
X74734Y3767D01*
X74741Y3774D01*
X74750Y3786D01*
X74765Y3802D01*
X74783Y3824D01*
X74807Y3847D01*
X74833Y3876D01*
X74866Y3906D01*
X74901Y3942D01*
X74939Y3979D01*
X74982Y4019D01*
X75029Y4064D01*
X75081Y4109D01*
X75135Y4156D01*
X75194Y4206D01*
X75255Y4258D01*
X75258Y4260D01*
X75262Y4263D01*
X75270Y4270D01*
X75279Y4277D01*
X75291Y4289D01*
X75305Y4300D01*
X75340Y4331D01*
X75385Y4366D01*
X75432Y4411D01*
X75487Y4459D01*
X75543Y4510D01*
X75605Y4565D01*
X75664Y4621D01*
X75725Y4678D01*
X75782Y4737D01*
X75838Y4794D01*
X75888Y4848D01*
X75935Y4902D01*
X75973Y4952D01*
X75975Y4954D01*
X75980Y4964D01*
X75989Y4978D01*
X76003Y4994D01*
X76018Y5018D01*
X76032Y5044D01*
X76051Y5074D01*
X76067Y5108D01*
X76084Y5143D01*
X76103Y5181D01*
X76133Y5263D01*
X76145Y5306D01*
X76155Y5348D01*
X76159Y5391D01*
X76162Y5433D01*
Y5435D01*
Y5445D01*
Y5457D01*
X76159Y5473D01*
X76157Y5494D01*
X76152Y5518D01*
X76147Y5544D01*
X76140Y5572D01*
X76131Y5603D01*
X76119Y5636D01*
X76105Y5669D01*
X76088Y5702D01*
X76070Y5738D01*
X76046Y5771D01*
X76020Y5804D01*
X75989Y5834D01*
X75987Y5837D01*
X75982Y5841D01*
X75973Y5849D01*
X75959Y5860D01*
X75942Y5872D01*
X75921Y5886D01*
X75897Y5903D01*
X75871Y5917D01*
X75841Y5934D01*
X75808Y5948D01*
X75770Y5962D01*
X75732Y5974D01*
X75690Y5985D01*
X75645Y5993D01*
X75598Y5997D01*
X75548Y6000D01*
X75520D01*
X75501Y5997D01*
X75475Y5995D01*
X75446Y5990D01*
X75416Y5985D01*
X75380Y5978D01*
X75345Y5969D01*
X75307Y5957D01*
X75270Y5943D01*
X75229Y5926D01*
X75192Y5905D01*
X75154Y5882D01*
X75116Y5856D01*
X75083Y5825D01*
X75081Y5823D01*
X75076Y5818D01*
X75067Y5806D01*
X75057Y5794D01*
X75043Y5775D01*
X75029Y5754D01*
X75012Y5728D01*
X74998Y5700D01*
X74982Y5669D01*
X74965Y5631D01*
X74951Y5594D01*
X74937Y5551D01*
X74927Y5504D01*
X74918Y5454D01*
X74913Y5403D01*
X74911Y5346D01*
X74498Y5388D01*
Y5391D01*
Y5393D01*
X74500Y5400D01*
Y5410D01*
X74502Y5433D01*
X74510Y5464D01*
X74517Y5502D01*
X74526Y5546D01*
X74538Y5596D01*
X74552Y5648D01*
X74571Y5705D01*
X74592Y5761D01*
X74618Y5820D01*
X74649Y5879D01*
X74682Y5936D01*
X74722Y5990D01*
X74765Y6042D01*
X74814Y6089D01*
X74816Y6092D01*
X74826Y6099D01*
X74842Y6113D01*
X74864Y6127D01*
X74892Y6146D01*
X74925Y6167D01*
X74965Y6188D01*
X75010Y6212D01*
X75062Y6233D01*
X75116Y6254D01*
X75178Y6276D01*
X75244Y6295D01*
X75314Y6311D01*
X75390Y6323D01*
X75470Y6330D01*
X75555Y6332D01*
X75576D01*
X75600Y6330D01*
D02*
G37*
G36*
X69502Y5471D02*
X69535Y5469D01*
X69577Y5464D01*
X69624Y5457D01*
X69679Y5447D01*
X69738Y5433D01*
X69799Y5417D01*
X69865Y5395D01*
X69931Y5369D01*
X69997Y5339D01*
X70063Y5301D01*
X70129Y5258D01*
X70193Y5209D01*
X70252Y5152D01*
X70257Y5148D01*
X70266Y5138D01*
X70280Y5119D01*
X70302Y5093D01*
X70325Y5060D01*
X70351Y5023D01*
X70380Y4975D01*
X70408Y4923D01*
X70436Y4862D01*
X70465Y4796D01*
X70490Y4725D01*
X70514Y4645D01*
X70535Y4560D01*
X70549Y4470D01*
X70561Y4374D01*
X70564Y4270D01*
Y4267D01*
Y4265D01*
Y4258D01*
Y4251D01*
Y4225D01*
X70561Y4194D01*
X70559Y4156D01*
X70557Y4112D01*
X70552Y4062D01*
X70547Y4010D01*
X70540Y3953D01*
X70531Y3894D01*
X70519Y3835D01*
X70505Y3774D01*
X70488Y3715D01*
X70472Y3658D01*
X70448Y3604D01*
X70424Y3552D01*
X70422Y3550D01*
X70417Y3540D01*
X70410Y3526D01*
X70398Y3510D01*
X70384Y3486D01*
X70368Y3463D01*
X70347Y3434D01*
X70323Y3404D01*
X70297Y3370D01*
X70266Y3337D01*
X70233Y3304D01*
X70198Y3271D01*
X70160Y3238D01*
X70118Y3205D01*
X70073Y3175D01*
X70026Y3146D01*
X70023Y3144D01*
X70014Y3139D01*
X70000Y3132D01*
X69981Y3125D01*
X69955Y3113D01*
X69927Y3101D01*
X69893Y3087D01*
X69858Y3076D01*
X69816Y3061D01*
X69773Y3047D01*
X69726Y3035D01*
X69676Y3026D01*
X69622Y3016D01*
X69568Y3009D01*
X69513Y3005D01*
X69454Y3002D01*
X69433D01*
X69421Y3005D01*
X69407D01*
X69372Y3007D01*
X69329Y3012D01*
X69282Y3019D01*
X69228Y3028D01*
X69169Y3042D01*
X69105Y3059D01*
X69042Y3080D01*
X68973Y3106D01*
X68907Y3137D01*
X68841Y3172D01*
X68775Y3215D01*
X68711Y3262D01*
X68652Y3319D01*
X68650Y3323D01*
X68638Y3333D01*
X68624Y3352D01*
X68605Y3378D01*
X68581Y3411D01*
X68555Y3451D01*
X68529Y3498D01*
X68501Y3552D01*
X68473Y3614D01*
X68444Y3682D01*
X68418Y3758D01*
X68395Y3840D01*
X68376Y3930D01*
X68362Y4024D01*
X68350Y4128D01*
X68348Y4237D01*
Y4239D01*
Y4244D01*
Y4253D01*
Y4265D01*
X68350Y4281D01*
Y4300D01*
X68352Y4322D01*
Y4345D01*
X68355Y4371D01*
X68359Y4400D01*
X68366Y4461D01*
X68378Y4529D01*
X68392Y4605D01*
X68411Y4683D01*
X68437Y4763D01*
X68466Y4843D01*
X68501Y4923D01*
X68543Y5001D01*
X68591Y5077D01*
X68647Y5145D01*
X68711Y5209D01*
X68716Y5211D01*
X68725Y5221D01*
X68742Y5233D01*
X68765Y5251D01*
X68796Y5270D01*
X68831Y5292D01*
X68872Y5317D01*
X68919Y5341D01*
X68971Y5365D01*
X69027Y5391D01*
X69089Y5412D01*
X69155Y5433D01*
X69223Y5450D01*
X69296Y5461D01*
X69374Y5471D01*
X69454Y5473D01*
X69488D01*
X69502Y5471D01*
D02*
G37*
G36*
X64428D02*
X64461Y5469D01*
X64503Y5464D01*
X64550Y5457D01*
X64605Y5447D01*
X64664Y5433D01*
X64725Y5417D01*
X64791Y5395D01*
X64857Y5369D01*
X64923Y5339D01*
X64989Y5301D01*
X65055Y5258D01*
X65119Y5209D01*
X65178Y5152D01*
X65183Y5148D01*
X65192Y5138D01*
X65206Y5119D01*
X65228Y5093D01*
X65251Y5060D01*
X65277Y5023D01*
X65306Y4975D01*
X65334Y4923D01*
X65362Y4862D01*
X65391Y4796D01*
X65417Y4725D01*
X65440Y4645D01*
X65461Y4560D01*
X65475Y4470D01*
X65487Y4374D01*
X65490Y4270D01*
Y4267D01*
Y4265D01*
Y4258D01*
Y4251D01*
Y4225D01*
X65487Y4194D01*
X65485Y4156D01*
X65483Y4112D01*
X65478Y4062D01*
X65473Y4010D01*
X65466Y3953D01*
X65457Y3894D01*
X65445Y3835D01*
X65431Y3774D01*
X65414Y3715D01*
X65398Y3658D01*
X65374Y3604D01*
X65350Y3552D01*
X65348Y3550D01*
X65343Y3540D01*
X65336Y3526D01*
X65324Y3510D01*
X65310Y3486D01*
X65294Y3463D01*
X65273Y3434D01*
X65249Y3404D01*
X65223Y3370D01*
X65192Y3337D01*
X65159Y3304D01*
X65124Y3271D01*
X65086Y3238D01*
X65044Y3205D01*
X64999Y3175D01*
X64952Y3146D01*
X64949Y3144D01*
X64940Y3139D01*
X64926Y3132D01*
X64907Y3125D01*
X64881Y3113D01*
X64852Y3101D01*
X64819Y3087D01*
X64784Y3076D01*
X64742Y3061D01*
X64699Y3047D01*
X64652Y3035D01*
X64602Y3026D01*
X64548Y3016D01*
X64494Y3009D01*
X64439Y3005D01*
X64381Y3002D01*
X64359D01*
X64347Y3005D01*
X64333D01*
X64298Y3007D01*
X64255Y3012D01*
X64208Y3019D01*
X64154Y3028D01*
X64095Y3042D01*
X64031Y3059D01*
X63968Y3080D01*
X63899Y3106D01*
X63833Y3137D01*
X63767Y3172D01*
X63701Y3215D01*
X63637Y3262D01*
X63578Y3319D01*
X63576Y3323D01*
X63564Y3333D01*
X63550Y3352D01*
X63531Y3378D01*
X63507Y3411D01*
X63481Y3451D01*
X63455Y3498D01*
X63427Y3552D01*
X63399Y3614D01*
X63370Y3682D01*
X63344Y3758D01*
X63321Y3840D01*
X63302Y3930D01*
X63288Y4024D01*
X63276Y4128D01*
X63274Y4237D01*
Y4239D01*
Y4244D01*
Y4253D01*
Y4265D01*
X63276Y4281D01*
Y4300D01*
X63278Y4322D01*
Y4345D01*
X63281Y4371D01*
X63285Y4400D01*
X63292Y4461D01*
X63304Y4529D01*
X63319Y4605D01*
X63337Y4683D01*
X63363Y4763D01*
X63392Y4843D01*
X63427Y4923D01*
X63469Y5001D01*
X63517Y5077D01*
X63573Y5145D01*
X63637Y5209D01*
X63642Y5211D01*
X63651Y5221D01*
X63668Y5233D01*
X63691Y5251D01*
X63722Y5270D01*
X63757Y5292D01*
X63798Y5317D01*
X63845Y5341D01*
X63897Y5365D01*
X63953Y5391D01*
X64015Y5412D01*
X64081Y5433D01*
X64149Y5450D01*
X64222Y5461D01*
X64300Y5471D01*
X64381Y5473D01*
X64413D01*
X64428Y5471D01*
D02*
G37*
G36*
X78118Y6330D02*
X78139D01*
X78168Y6328D01*
X78196Y6323D01*
X78229Y6318D01*
X78300Y6306D01*
X78378Y6288D01*
X78458Y6261D01*
X78496Y6245D01*
X78533Y6226D01*
X78536D01*
X78543Y6221D01*
X78552Y6214D01*
X78566Y6207D01*
X78583Y6195D01*
X78602Y6181D01*
X78625Y6167D01*
X78649Y6148D01*
X78701Y6106D01*
X78755Y6052D01*
X78809Y5990D01*
X78859Y5919D01*
X78861Y5917D01*
X78864Y5910D01*
X78871Y5898D01*
X78880Y5884D01*
X78892Y5865D01*
X78904Y5841D01*
X78918Y5816D01*
X78932Y5785D01*
X78949Y5752D01*
X78965Y5714D01*
X78982Y5674D01*
X79001Y5631D01*
X79017Y5587D01*
X79031Y5539D01*
X79048Y5487D01*
X79062Y5435D01*
Y5433D01*
X79064Y5421D01*
X79069Y5407D01*
X79074Y5384D01*
X79079Y5355D01*
X79086Y5320D01*
X79093Y5280D01*
X79100Y5233D01*
X79107Y5181D01*
X79114Y5122D01*
X79121Y5058D01*
X79126Y4989D01*
X79131Y4916D01*
X79135Y4836D01*
X79138Y4753D01*
Y4664D01*
Y4661D01*
Y4657D01*
Y4650D01*
Y4638D01*
Y4626D01*
Y4609D01*
X79135Y4591D01*
Y4569D01*
X79133Y4520D01*
X79131Y4463D01*
X79128Y4402D01*
X79123Y4333D01*
X79116Y4260D01*
X79109Y4185D01*
X79088Y4031D01*
X79074Y3953D01*
X79057Y3878D01*
X79038Y3805D01*
X79017Y3736D01*
X79015Y3732D01*
X79013Y3720D01*
X79005Y3703D01*
X78996Y3677D01*
X78982Y3649D01*
X78968Y3614D01*
X78949Y3576D01*
X78930Y3536D01*
X78906Y3493D01*
X78878Y3448D01*
X78850Y3404D01*
X78819Y3356D01*
X78784Y3311D01*
X78746Y3269D01*
X78706Y3229D01*
X78663Y3191D01*
X78661Y3189D01*
X78651Y3184D01*
X78640Y3175D01*
X78621Y3161D01*
X78597Y3146D01*
X78571Y3130D01*
X78538Y3113D01*
X78503Y3097D01*
X78460Y3078D01*
X78415Y3061D01*
X78368Y3045D01*
X78316Y3031D01*
X78260Y3019D01*
X78201Y3009D01*
X78139Y3002D01*
X78073Y3000D01*
X78052D01*
X78028Y3002D01*
X77995Y3005D01*
X77955Y3009D01*
X77908Y3019D01*
X77858Y3028D01*
X77802Y3042D01*
X77743Y3059D01*
X77684Y3083D01*
X77622Y3109D01*
X77559Y3142D01*
X77497Y3179D01*
X77438Y3224D01*
X77382Y3276D01*
X77330Y3335D01*
Y3337D01*
X77327Y3340D01*
X77323Y3347D01*
X77316Y3354D01*
X77309Y3366D01*
X77299Y3380D01*
X77290Y3394D01*
X77280Y3413D01*
X77268Y3434D01*
X77254Y3458D01*
X77242Y3484D01*
X77228Y3512D01*
X77214Y3545D01*
X77200Y3578D01*
X77184Y3616D01*
X77169Y3654D01*
X77155Y3696D01*
X77139Y3741D01*
X77125Y3788D01*
X77110Y3840D01*
X77096Y3892D01*
X77084Y3949D01*
X77070Y4005D01*
X77058Y4069D01*
X77049Y4133D01*
X77039Y4199D01*
X77030Y4270D01*
X77023Y4343D01*
X77016Y4418D01*
X77014Y4496D01*
X77009Y4579D01*
Y4664D01*
Y4666D01*
Y4671D01*
Y4678D01*
Y4690D01*
Y4704D01*
Y4720D01*
X77011Y4739D01*
Y4761D01*
X77014Y4808D01*
X77016Y4864D01*
X77018Y4928D01*
X77023Y4997D01*
X77030Y5070D01*
X77037Y5145D01*
X77058Y5301D01*
X77073Y5379D01*
X77089Y5454D01*
X77106Y5528D01*
X77127Y5596D01*
X77129Y5601D01*
X77132Y5613D01*
X77139Y5629D01*
X77148Y5655D01*
X77162Y5683D01*
X77176Y5719D01*
X77195Y5756D01*
X77217Y5797D01*
X77238Y5839D01*
X77266Y5884D01*
X77294Y5931D01*
X77325Y5976D01*
X77360Y6021D01*
X77398Y6063D01*
X77438Y6103D01*
X77481Y6141D01*
X77483Y6143D01*
X77493Y6151D01*
X77504Y6160D01*
X77523Y6172D01*
X77547Y6186D01*
X77575Y6202D01*
X77606Y6219D01*
X77644Y6238D01*
X77684Y6254D01*
X77729Y6271D01*
X77778Y6288D01*
X77830Y6302D01*
X77887Y6316D01*
X77946Y6325D01*
X78007Y6330D01*
X78073Y6332D01*
X78099D01*
X78118Y6330D01*
D02*
G37*
G36*
X85434Y81052D02*
X85061D01*
Y81352D01*
X85059Y81347D01*
X85052Y81337D01*
X85038Y81319D01*
X85019Y81297D01*
X84995Y81269D01*
X84967Y81241D01*
X84931Y81208D01*
X84894Y81177D01*
X84849Y81144D01*
X84799Y81111D01*
X84745Y81083D01*
X84686Y81054D01*
X84622Y81033D01*
X84551Y81014D01*
X84478Y81005D01*
X84398Y81000D01*
X84370D01*
X84351Y81002D01*
X84325Y81005D01*
X84297Y81009D01*
X84263Y81014D01*
X84228Y81019D01*
X84188Y81028D01*
X84148Y81038D01*
X84105Y81050D01*
X84061Y81066D01*
X84016Y81083D01*
X83969Y81104D01*
X83924Y81127D01*
X83879Y81156D01*
X83876Y81158D01*
X83869Y81163D01*
X83855Y81172D01*
X83841Y81184D01*
X83820Y81201D01*
X83796Y81220D01*
X83773Y81243D01*
X83744Y81269D01*
X83716Y81297D01*
X83685Y81330D01*
X83655Y81366D01*
X83624Y81406D01*
X83596Y81446D01*
X83565Y81491D01*
X83539Y81540D01*
X83513Y81590D01*
X83511Y81592D01*
X83508Y81602D01*
X83501Y81618D01*
X83492Y81640D01*
X83482Y81665D01*
X83473Y81696D01*
X83461Y81734D01*
X83449Y81774D01*
X83435Y81819D01*
X83423Y81868D01*
X83414Y81923D01*
X83404Y81979D01*
X83395Y82038D01*
X83388Y82100D01*
X83386Y82166D01*
X83383Y82232D01*
Y82237D01*
Y82248D01*
Y82267D01*
X83386Y82291D01*
X83388Y82324D01*
X83390Y82359D01*
X83393Y82399D01*
X83397Y82444D01*
X83404Y82494D01*
X83412Y82543D01*
X83433Y82652D01*
X83445Y82709D01*
X83461Y82763D01*
X83478Y82820D01*
X83499Y82874D01*
X83501Y82876D01*
X83504Y82886D01*
X83511Y82902D01*
X83520Y82921D01*
X83534Y82945D01*
X83548Y82973D01*
X83567Y83004D01*
X83588Y83037D01*
X83610Y83072D01*
X83638Y83108D01*
X83666Y83145D01*
X83697Y83181D01*
X83732Y83218D01*
X83770Y83251D01*
X83810Y83284D01*
X83853Y83315D01*
X83855Y83318D01*
X83865Y83322D01*
X83876Y83329D01*
X83895Y83339D01*
X83917Y83351D01*
X83943Y83365D01*
X83973Y83379D01*
X84006Y83393D01*
X84044Y83407D01*
X84084Y83421D01*
X84129Y83435D01*
X84174Y83447D01*
X84223Y83457D01*
X84273Y83464D01*
X84325Y83469D01*
X84379Y83471D01*
X84400D01*
X84414Y83469D01*
X84433D01*
X84457Y83466D01*
X84481Y83464D01*
X84507Y83459D01*
X84566Y83450D01*
X84629Y83433D01*
X84695Y83410D01*
X84759Y83379D01*
X84761D01*
X84766Y83374D01*
X84776Y83369D01*
X84787Y83362D01*
X84802Y83353D01*
X84818Y83343D01*
X84856Y83315D01*
X84901Y83282D01*
X84945Y83242D01*
X84990Y83195D01*
X85033Y83143D01*
Y84318D01*
X85434D01*
Y81052D01*
D02*
G37*
G36*
X62072D02*
X61626D01*
X59915Y83615D01*
Y81052D01*
X59500D01*
Y84318D01*
X59944D01*
X61657Y81753D01*
Y84318D01*
X62072D01*
Y81052D01*
D02*
G37*
G36*
X80351D02*
X79933D01*
Y83785D01*
X78982Y81052D01*
X78590D01*
X77648Y83832D01*
Y81052D01*
X77231D01*
Y84318D01*
X77880D01*
X78654Y82005D01*
X78656Y82001D01*
X78658Y81991D01*
X78663Y81975D01*
X78670Y81953D01*
X78680Y81925D01*
X78689Y81894D01*
X78701Y81861D01*
X78713Y81824D01*
X78739Y81746D01*
X78765Y81665D01*
X78777Y81625D01*
X78788Y81588D01*
X78800Y81555D01*
X78809Y81522D01*
Y81524D01*
X78812Y81531D01*
X78817Y81540D01*
X78821Y81555D01*
X78826Y81573D01*
X78833Y81597D01*
X78843Y81623D01*
X78852Y81654D01*
X78864Y81689D01*
X78878Y81727D01*
X78892Y81769D01*
X78906Y81817D01*
X78925Y81868D01*
X78942Y81923D01*
X78963Y81982D01*
X78984Y82046D01*
X79768Y84318D01*
X80351D01*
Y81052D01*
D02*
G37*
G36*
X75284D02*
X74866D01*
Y83785D01*
X73915Y81052D01*
X73523D01*
X72581Y83832D01*
Y81052D01*
X72164D01*
Y84318D01*
X72813D01*
X73587Y82005D01*
X73589Y82001D01*
X73592Y81991D01*
X73596Y81975D01*
X73603Y81953D01*
X73613Y81925D01*
X73622Y81894D01*
X73634Y81861D01*
X73646Y81824D01*
X73672Y81746D01*
X73698Y81665D01*
X73710Y81625D01*
X73721Y81588D01*
X73733Y81555D01*
X73743Y81522D01*
Y81524D01*
X73745Y81531D01*
X73750Y81540D01*
X73754Y81555D01*
X73759Y81573D01*
X73766Y81597D01*
X73776Y81623D01*
X73785Y81654D01*
X73797Y81689D01*
X73811Y81727D01*
X73825Y81769D01*
X73839Y81817D01*
X73858Y81868D01*
X73875Y81923D01*
X73896Y81982D01*
X73917Y82046D01*
X74701Y84318D01*
X75284D01*
Y81052D01*
D02*
G37*
G36*
X64175D02*
X63729D01*
X62464Y84318D01*
X62934D01*
X63781Y81944D01*
X63783Y81942D01*
X63786Y81932D01*
X63791Y81916D01*
X63798Y81894D01*
X63807Y81871D01*
X63816Y81840D01*
X63828Y81807D01*
X63842Y81769D01*
X63854Y81729D01*
X63868Y81687D01*
X63897Y81597D01*
X63927Y81503D01*
X63953Y81408D01*
Y81411D01*
X63956Y81420D01*
X63960Y81434D01*
X63968Y81453D01*
X63975Y81479D01*
X63982Y81507D01*
X63993Y81540D01*
X64003Y81576D01*
X64017Y81614D01*
X64029Y81656D01*
X64045Y81701D01*
X64060Y81746D01*
X64093Y81845D01*
X64130Y81944D01*
X65013Y84318D01*
X65454D01*
X64175Y81052D01*
D02*
G37*
G36*
X87976D02*
X87617D01*
Y81399D01*
X87615Y81394D01*
X87605Y81382D01*
X87589Y81361D01*
X87568Y81337D01*
X87539Y81307D01*
X87504Y81274D01*
X87466Y81236D01*
X87419Y81201D01*
X87369Y81163D01*
X87313Y81127D01*
X87251Y81092D01*
X87185Y81061D01*
X87112Y81038D01*
X87034Y81016D01*
X86954Y81005D01*
X86867Y81000D01*
X86845D01*
X86831Y81002D01*
X86812D01*
X86791Y81005D01*
X86765Y81007D01*
X86739Y81009D01*
X86678Y81019D01*
X86612Y81033D01*
X86543Y81052D01*
X86475Y81078D01*
X86472D01*
X86468Y81083D01*
X86458Y81087D01*
X86444Y81092D01*
X86430Y81099D01*
X86413Y81109D01*
X86373Y81132D01*
X86329Y81163D01*
X86284Y81196D01*
X86243Y81236D01*
X86206Y81279D01*
Y81281D01*
X86201Y81283D01*
X86199Y81290D01*
X86192Y81300D01*
X86185Y81312D01*
X86177Y81326D01*
X86159Y81361D01*
X86137Y81406D01*
X86116Y81458D01*
X86100Y81515D01*
X86083Y81578D01*
Y81581D01*
Y81583D01*
X86081Y81590D01*
X86078Y81602D01*
Y81614D01*
X86076Y81630D01*
X86074Y81647D01*
X86071Y81670D01*
X86069Y81694D01*
X86067Y81722D01*
X86064Y81753D01*
Y81786D01*
X86062Y81821D01*
X86059Y81861D01*
Y81904D01*
Y81951D01*
Y83419D01*
X86461D01*
Y82104D01*
Y82102D01*
Y82090D01*
Y82074D01*
Y82055D01*
Y82029D01*
X86463Y82001D01*
Y81968D01*
Y81935D01*
X86465Y81864D01*
X86470Y81793D01*
X86472Y81762D01*
X86477Y81732D01*
X86480Y81706D01*
X86484Y81682D01*
Y81680D01*
X86487Y81675D01*
X86489Y81668D01*
X86491Y81656D01*
X86496Y81642D01*
X86503Y81628D01*
X86520Y81592D01*
X86541Y81552D01*
X86567Y81510D01*
X86602Y81470D01*
X86645Y81434D01*
X86647D01*
X86649Y81429D01*
X86656Y81427D01*
X86666Y81420D01*
X86678Y81413D01*
X86692Y81406D01*
X86730Y81389D01*
X86772Y81373D01*
X86824Y81359D01*
X86883Y81349D01*
X86947Y81345D01*
X86963D01*
X86977Y81347D01*
X86994D01*
X87013Y81349D01*
X87034Y81352D01*
X87055Y81356D01*
X87107Y81368D01*
X87164Y81382D01*
X87225Y81406D01*
X87284Y81437D01*
X87287D01*
X87291Y81441D01*
X87298Y81446D01*
X87310Y81453D01*
X87339Y81474D01*
X87372Y81503D01*
X87409Y81538D01*
X87445Y81581D01*
X87480Y81630D01*
X87508Y81687D01*
Y81689D01*
X87511Y81694D01*
X87516Y81703D01*
X87518Y81717D01*
X87525Y81734D01*
X87530Y81753D01*
X87534Y81776D01*
X87542Y81805D01*
X87549Y81835D01*
X87553Y81871D01*
X87560Y81909D01*
X87565Y81949D01*
X87568Y81994D01*
X87572Y82043D01*
X87575Y82095D01*
Y82149D01*
Y83419D01*
X87976D01*
Y81052D01*
D02*
G37*
G36*
X88998D02*
X88596D01*
Y84318D01*
X88998D01*
Y81052D01*
D02*
G37*
G36*
X71833D02*
X71342D01*
X70965Y82041D01*
X69594D01*
X69237Y81052D01*
X68782D01*
X70035Y84318D01*
X70498D01*
X71833Y81052D01*
D02*
G37*
G36*
X67366Y84316D02*
X67404D01*
X67446Y84313D01*
X67491Y84311D01*
X67543Y84306D01*
X67595Y84302D01*
X67649Y84297D01*
X67760Y84280D01*
X67812Y84271D01*
X67864Y84259D01*
X67913Y84245D01*
X67958Y84228D01*
X67961D01*
X67968Y84224D01*
X67980Y84219D01*
X67996Y84212D01*
X68015Y84202D01*
X68036Y84188D01*
X68062Y84174D01*
X68088Y84158D01*
X68116Y84136D01*
X68147Y84115D01*
X68178Y84089D01*
X68208Y84061D01*
X68237Y84028D01*
X68267Y83995D01*
X68296Y83957D01*
X68322Y83917D01*
X68324Y83915D01*
X68329Y83908D01*
X68334Y83896D01*
X68343Y83879D01*
X68352Y83858D01*
X68364Y83832D01*
X68378Y83804D01*
X68390Y83773D01*
X68402Y83738D01*
X68416Y83700D01*
X68428Y83660D01*
X68437Y83617D01*
X68447Y83572D01*
X68454Y83525D01*
X68456Y83476D01*
X68459Y83426D01*
Y83421D01*
Y83412D01*
X68456Y83393D01*
Y83367D01*
X68451Y83339D01*
X68447Y83303D01*
X68440Y83266D01*
X68430Y83223D01*
X68418Y83178D01*
X68404Y83131D01*
X68385Y83082D01*
X68364Y83032D01*
X68338Y82982D01*
X68308Y82935D01*
X68272Y82886D01*
X68232Y82841D01*
X68230Y82838D01*
X68223Y82831D01*
X68208Y82820D01*
X68190Y82803D01*
X68166Y82784D01*
X68135Y82763D01*
X68102Y82739D01*
X68062Y82713D01*
X68015Y82687D01*
X67965Y82661D01*
X67906Y82638D01*
X67845Y82612D01*
X67777Y82591D01*
X67703Y82569D01*
X67623Y82553D01*
X67538Y82539D01*
X67541D01*
X67545Y82534D01*
X67555Y82532D01*
X67567Y82525D01*
X67581Y82517D01*
X67597Y82508D01*
X67635Y82487D01*
X67677Y82463D01*
X67720Y82435D01*
X67760Y82407D01*
X67798Y82376D01*
X67800Y82373D01*
X67807Y82369D01*
X67817Y82357D01*
X67831Y82345D01*
X67847Y82326D01*
X67866Y82307D01*
X67890Y82284D01*
X67913Y82256D01*
X67939Y82225D01*
X67968Y82192D01*
X67998Y82156D01*
X68029Y82119D01*
X68060Y82076D01*
X68093Y82034D01*
X68156Y81939D01*
X68721Y81052D01*
X68180D01*
X67748Y81732D01*
X67746Y81734D01*
X67739Y81743D01*
X67729Y81760D01*
X67717Y81779D01*
X67701Y81805D01*
X67682Y81833D01*
X67661Y81864D01*
X67640Y81897D01*
X67590Y81970D01*
X67538Y82046D01*
X67486Y82116D01*
X67460Y82149D01*
X67437Y82180D01*
X67434Y82182D01*
X67432Y82187D01*
X67425Y82194D01*
X67415Y82206D01*
X67392Y82234D01*
X67364Y82267D01*
X67328Y82303D01*
X67293Y82341D01*
X67255Y82373D01*
X67217Y82399D01*
X67212Y82402D01*
X67201Y82409D01*
X67182Y82421D01*
X67156Y82433D01*
X67128Y82447D01*
X67094Y82463D01*
X67059Y82475D01*
X67021Y82487D01*
X67019D01*
X67007Y82489D01*
X66988Y82491D01*
X66965Y82496D01*
X66932Y82499D01*
X66889Y82501D01*
X66840Y82503D01*
X66280D01*
Y81052D01*
X65848D01*
Y84318D01*
X67338D01*
X67366Y84316D01*
D02*
G37*
G36*
X90633Y83469D02*
X90666Y83466D01*
X90709Y83461D01*
X90754Y83454D01*
X90805Y83445D01*
X90862Y83431D01*
X90923Y83414D01*
X90985Y83393D01*
X91051Y83367D01*
X91115Y83334D01*
X91181Y83299D01*
X91242Y83254D01*
X91303Y83204D01*
X91362Y83148D01*
X91365Y83143D01*
X91377Y83133D01*
X91391Y83115D01*
X91410Y83089D01*
X91433Y83056D01*
X91459Y83015D01*
X91485Y82968D01*
X91513Y82914D01*
X91542Y82853D01*
X91570Y82784D01*
X91594Y82709D01*
X91617Y82628D01*
X91636Y82541D01*
X91653Y82447D01*
X91662Y82345D01*
X91664Y82239D01*
Y82237D01*
Y82232D01*
Y82225D01*
Y82213D01*
Y82196D01*
Y82180D01*
X91662Y82159D01*
Y82133D01*
X89897D01*
Y82128D01*
X89899Y82116D01*
Y82095D01*
X89904Y82069D01*
X89909Y82036D01*
X89913Y81998D01*
X89923Y81958D01*
X89932Y81913D01*
X89944Y81864D01*
X89960Y81817D01*
X89977Y81767D01*
X89998Y81717D01*
X90022Y81668D01*
X90050Y81621D01*
X90081Y81576D01*
X90116Y81536D01*
X90119Y81533D01*
X90126Y81526D01*
X90137Y81517D01*
X90152Y81503D01*
X90171Y81489D01*
X90194Y81472D01*
X90223Y81453D01*
X90253Y81434D01*
X90286Y81413D01*
X90324Y81397D01*
X90364Y81378D01*
X90409Y81363D01*
X90456Y81349D01*
X90506Y81340D01*
X90558Y81333D01*
X90612Y81330D01*
X90633D01*
X90650Y81333D01*
X90668Y81335D01*
X90690Y81337D01*
X90716Y81340D01*
X90742Y81345D01*
X90801Y81359D01*
X90864Y81380D01*
X90897Y81392D01*
X90928Y81408D01*
X90959Y81425D01*
X90990Y81446D01*
X90992Y81448D01*
X90997Y81451D01*
X91004Y81458D01*
X91015Y81467D01*
X91030Y81481D01*
X91044Y81496D01*
X91060Y81515D01*
X91079Y81536D01*
X91098Y81562D01*
X91119Y81588D01*
X91138Y81618D01*
X91159Y81651D01*
X91181Y81689D01*
X91199Y81729D01*
X91218Y81772D01*
X91237Y81819D01*
X91650Y81765D01*
Y81760D01*
X91646Y81748D01*
X91638Y81729D01*
X91631Y81706D01*
X91620Y81675D01*
X91605Y81640D01*
X91589Y81599D01*
X91568Y81557D01*
X91544Y81515D01*
X91518Y81467D01*
X91487Y81420D01*
X91454Y81373D01*
X91419Y81328D01*
X91379Y81283D01*
X91334Y81241D01*
X91287Y81201D01*
X91285Y81198D01*
X91275Y81191D01*
X91261Y81182D01*
X91240Y81170D01*
X91214Y81153D01*
X91181Y81137D01*
X91145Y81118D01*
X91103Y81102D01*
X91056Y81083D01*
X91006Y81064D01*
X90949Y81047D01*
X90890Y81031D01*
X90827Y81019D01*
X90758Y81009D01*
X90685Y81002D01*
X90610Y81000D01*
X90586D01*
X90574Y81002D01*
X90560D01*
X90525Y81005D01*
X90480Y81009D01*
X90430Y81016D01*
X90373Y81026D01*
X90312Y81040D01*
X90248Y81057D01*
X90180Y81078D01*
X90112Y81104D01*
X90043Y81134D01*
X89975Y81170D01*
X89909Y81212D01*
X89845Y81262D01*
X89786Y81319D01*
X89784Y81323D01*
X89774Y81333D01*
X89758Y81352D01*
X89739Y81378D01*
X89715Y81411D01*
X89692Y81451D01*
X89663Y81496D01*
X89635Y81550D01*
X89606Y81611D01*
X89581Y81677D01*
X89555Y81751D01*
X89531Y81831D01*
X89512Y81918D01*
X89498Y82010D01*
X89486Y82109D01*
X89484Y82215D01*
Y82218D01*
Y82222D01*
Y82230D01*
Y82241D01*
X89486Y82256D01*
Y82272D01*
Y82291D01*
X89489Y82314D01*
X89493Y82364D01*
X89500Y82421D01*
X89510Y82484D01*
X89522Y82555D01*
X89538Y82626D01*
X89559Y82702D01*
X89583Y82779D01*
X89614Y82857D01*
X89649Y82933D01*
X89689Y83006D01*
X89736Y83077D01*
X89791Y83140D01*
X89795Y83145D01*
X89805Y83155D01*
X89821Y83171D01*
X89847Y83192D01*
X89878Y83218D01*
X89913Y83244D01*
X89956Y83275D01*
X90005Y83306D01*
X90060Y83336D01*
X90121Y83367D01*
X90185Y83395D01*
X90255Y83419D01*
X90333Y83440D01*
X90414Y83457D01*
X90499Y83466D01*
X90588Y83471D01*
X90610D01*
X90633Y83469D01*
D02*
G37*
G36*
X81998D02*
X82031Y83466D01*
X82073Y83461D01*
X82121Y83454D01*
X82175Y83445D01*
X82234Y83431D01*
X82295Y83414D01*
X82361Y83393D01*
X82427Y83367D01*
X82494Y83336D01*
X82560Y83299D01*
X82626Y83256D01*
X82689Y83207D01*
X82748Y83150D01*
X82753Y83145D01*
X82762Y83136D01*
X82777Y83117D01*
X82798Y83091D01*
X82822Y83058D01*
X82847Y83020D01*
X82876Y82973D01*
X82904Y82921D01*
X82932Y82860D01*
X82961Y82794D01*
X82987Y82723D01*
X83010Y82643D01*
X83032Y82558D01*
X83046Y82468D01*
X83057Y82371D01*
X83060Y82267D01*
Y82265D01*
Y82263D01*
Y82256D01*
Y82248D01*
Y82222D01*
X83057Y82192D01*
X83055Y82154D01*
X83053Y82109D01*
X83048Y82060D01*
X83043Y82008D01*
X83036Y81951D01*
X83027Y81892D01*
X83015Y81833D01*
X83001Y81772D01*
X82984Y81713D01*
X82968Y81656D01*
X82944Y81602D01*
X82921Y81550D01*
X82918Y81547D01*
X82914Y81538D01*
X82907Y81524D01*
X82895Y81507D01*
X82881Y81484D01*
X82864Y81460D01*
X82843Y81432D01*
X82819Y81401D01*
X82793Y81368D01*
X82762Y81335D01*
X82730Y81302D01*
X82694Y81269D01*
X82656Y81236D01*
X82614Y81203D01*
X82569Y81172D01*
X82522Y81144D01*
X82519Y81142D01*
X82510Y81137D01*
X82496Y81130D01*
X82477Y81123D01*
X82451Y81111D01*
X82423Y81099D01*
X82390Y81085D01*
X82354Y81073D01*
X82312Y81059D01*
X82269Y81045D01*
X82222Y81033D01*
X82173Y81024D01*
X82118Y81014D01*
X82064Y81007D01*
X82010Y81002D01*
X81951Y81000D01*
X81929D01*
X81918Y81002D01*
X81903D01*
X81868Y81005D01*
X81826Y81009D01*
X81778Y81016D01*
X81724Y81026D01*
X81665Y81040D01*
X81601Y81057D01*
X81538Y81078D01*
X81469Y81104D01*
X81403Y81134D01*
X81337Y81170D01*
X81271Y81212D01*
X81207Y81260D01*
X81148Y81316D01*
X81146Y81321D01*
X81134Y81330D01*
X81120Y81349D01*
X81101Y81375D01*
X81077Y81408D01*
X81051Y81448D01*
X81026Y81496D01*
X80997Y81550D01*
X80969Y81611D01*
X80941Y81680D01*
X80915Y81755D01*
X80891Y81838D01*
X80872Y81928D01*
X80858Y82022D01*
X80846Y82126D01*
X80844Y82234D01*
Y82237D01*
Y82241D01*
Y82251D01*
Y82263D01*
X80846Y82279D01*
Y82298D01*
X80849Y82319D01*
Y82343D01*
X80851Y82369D01*
X80856Y82397D01*
X80863Y82459D01*
X80875Y82527D01*
X80889Y82602D01*
X80908Y82680D01*
X80933Y82761D01*
X80962Y82841D01*
X80997Y82921D01*
X81040Y82999D01*
X81087Y83074D01*
X81144Y83143D01*
X81207Y83207D01*
X81212Y83209D01*
X81221Y83218D01*
X81238Y83230D01*
X81262Y83249D01*
X81292Y83268D01*
X81328Y83289D01*
X81368Y83315D01*
X81415Y83339D01*
X81467Y83362D01*
X81524Y83388D01*
X81585Y83410D01*
X81651Y83431D01*
X81719Y83447D01*
X81793Y83459D01*
X81870Y83469D01*
X81951Y83471D01*
X81984D01*
X81998Y83469D01*
D02*
G37*
G36*
X66581Y88358D02*
X66180D01*
Y88818D01*
X66581D01*
Y88358D01*
D02*
G37*
G36*
X62999Y85552D02*
X62581D01*
Y88285D01*
X61630Y85552D01*
X61238D01*
X60297Y88332D01*
Y85552D01*
X59879D01*
Y88818D01*
X60528D01*
X61302Y86505D01*
X61304Y86501D01*
X61307Y86491D01*
X61311Y86475D01*
X61318Y86453D01*
X61328Y86425D01*
X61337Y86394D01*
X61349Y86361D01*
X61361Y86324D01*
X61387Y86246D01*
X61413Y86165D01*
X61425Y86125D01*
X61436Y86088D01*
X61448Y86055D01*
X61458Y86022D01*
Y86024D01*
X61460Y86031D01*
X61465Y86040D01*
X61470Y86055D01*
X61474Y86073D01*
X61481Y86097D01*
X61491Y86123D01*
X61500Y86154D01*
X61512Y86189D01*
X61526Y86227D01*
X61540Y86269D01*
X61554Y86317D01*
X61573Y86369D01*
X61590Y86423D01*
X61611Y86482D01*
X61632Y86545D01*
X62416Y88818D01*
X62999D01*
Y85552D01*
D02*
G37*
G36*
X66581D02*
X66180D01*
Y87919D01*
X66581D01*
Y85552D01*
D02*
G37*
G36*
X58704D02*
X58302D01*
Y88105D01*
X58300Y88103D01*
X58295Y88098D01*
X58288Y88091D01*
X58276Y88082D01*
X58262Y88070D01*
X58243Y88054D01*
X58222Y88037D01*
X58201Y88018D01*
X58173Y87999D01*
X58144Y87976D01*
X58114Y87954D01*
X58081Y87928D01*
X58043Y87905D01*
X58005Y87879D01*
X57920Y87827D01*
X57918Y87825D01*
X57911Y87820D01*
X57897Y87813D01*
X57880Y87806D01*
X57861Y87794D01*
X57837Y87780D01*
X57809Y87766D01*
X57781Y87749D01*
X57715Y87716D01*
X57644Y87683D01*
X57571Y87650D01*
X57500Y87622D01*
Y88009D01*
X57505Y88011D01*
X57514Y88016D01*
X57533Y88025D01*
X57557Y88037D01*
X57585Y88051D01*
X57620Y88070D01*
X57658Y88091D01*
X57698Y88115D01*
X57743Y88143D01*
X57790Y88171D01*
X57889Y88238D01*
X57991Y88311D01*
X58088Y88391D01*
X58090Y88393D01*
X58099Y88400D01*
X58111Y88412D01*
X58128Y88429D01*
X58149Y88450D01*
X58173Y88474D01*
X58199Y88502D01*
X58227Y88530D01*
X58255Y88563D01*
X58286Y88599D01*
X58345Y88672D01*
X58399Y88750D01*
X58423Y88790D01*
X58444Y88830D01*
X58704D01*
Y85552D01*
D02*
G37*
G36*
X67667Y87919D02*
X68066D01*
Y87608D01*
X67667D01*
Y86222D01*
Y86220D01*
Y86215D01*
Y86206D01*
Y86194D01*
Y86165D01*
X67669Y86130D01*
X67672Y86095D01*
X67674Y86057D01*
X67679Y86026D01*
X67683Y86014D01*
X67686Y86003D01*
Y86000D01*
X67690Y85996D01*
X67695Y85986D01*
X67702Y85974D01*
X67724Y85948D01*
X67738Y85937D01*
X67754Y85925D01*
X67757D01*
X67764Y85920D01*
X67773Y85915D01*
X67790Y85911D01*
X67809Y85906D01*
X67832Y85901D01*
X67860Y85899D01*
X67891Y85896D01*
X67917D01*
X67938Y85899D01*
X67962D01*
X67993Y85904D01*
X68028Y85906D01*
X68066Y85911D01*
X68125Y85557D01*
X68122D01*
X68118Y85554D01*
X68108D01*
X68096Y85552D01*
X68082Y85550D01*
X68063Y85545D01*
X68023Y85540D01*
X67976Y85533D01*
X67924Y85526D01*
X67872Y85524D01*
X67820Y85521D01*
X67785D01*
X67766Y85524D01*
X67745Y85526D01*
X67698Y85531D01*
X67643Y85538D01*
X67587Y85550D01*
X67532Y85566D01*
X67483Y85590D01*
X67480D01*
X67478Y85592D01*
X67464Y85602D01*
X67443Y85618D01*
X67417Y85637D01*
X67388Y85663D01*
X67360Y85694D01*
X67334Y85729D01*
X67313Y85769D01*
Y85771D01*
X67311Y85774D01*
X67308Y85781D01*
X67306Y85793D01*
X67301Y85807D01*
X67299Y85823D01*
X67294Y85845D01*
X67289Y85870D01*
X67285Y85901D01*
X67280Y85934D01*
X67277Y85974D01*
X67273Y86017D01*
X67270Y86066D01*
X67268Y86118D01*
X67266Y86180D01*
Y86243D01*
Y87608D01*
X66968D01*
Y87919D01*
X67266D01*
Y88504D01*
X67667Y88745D01*
Y87919D01*
D02*
G37*
G36*
X64040Y87650D02*
X64042Y87655D01*
X64051Y87664D01*
X64065Y87681D01*
X64084Y87700D01*
X64110Y87726D01*
X64141Y87751D01*
X64176Y87780D01*
X64214Y87810D01*
X64259Y87841D01*
X64309Y87869D01*
X64360Y87895D01*
X64420Y87921D01*
X64481Y87940D01*
X64545Y87957D01*
X64613Y87969D01*
X64686Y87971D01*
X64707D01*
X64724Y87969D01*
X64743D01*
X64766Y87966D01*
X64790Y87964D01*
X64818Y87959D01*
X64882Y87950D01*
X64953Y87933D01*
X65026Y87912D01*
X65099Y87881D01*
X65102D01*
X65109Y87876D01*
X65118Y87872D01*
X65132Y87865D01*
X65149Y87855D01*
X65168Y87846D01*
X65213Y87818D01*
X65264Y87782D01*
X65316Y87740D01*
X65371Y87690D01*
X65420Y87633D01*
X65422Y87631D01*
X65425Y87626D01*
X65432Y87617D01*
X65441Y87605D01*
X65451Y87591D01*
X65463Y87572D01*
X65477Y87551D01*
X65491Y87527D01*
X65508Y87499D01*
X65524Y87471D01*
X65555Y87405D01*
X65588Y87331D01*
X65616Y87251D01*
Y87249D01*
X65618Y87242D01*
X65623Y87230D01*
X65628Y87211D01*
X65633Y87192D01*
X65640Y87166D01*
X65647Y87138D01*
X65654Y87107D01*
X65658Y87072D01*
X65666Y87034D01*
X65673Y86996D01*
X65677Y86954D01*
X65687Y86864D01*
X65689Y86770D01*
Y86767D01*
Y86763D01*
Y86756D01*
Y86744D01*
Y86730D01*
X65687Y86711D01*
Y86692D01*
X65684Y86671D01*
X65680Y86619D01*
X65673Y86560D01*
X65663Y86496D01*
X65651Y86425D01*
X65635Y86350D01*
X65616Y86274D01*
X65590Y86196D01*
X65562Y86118D01*
X65526Y86040D01*
X65486Y85967D01*
X65441Y85896D01*
X65387Y85830D01*
X65385Y85826D01*
X65373Y85816D01*
X65356Y85800D01*
X65333Y85778D01*
X65304Y85755D01*
X65269Y85727D01*
X65229Y85696D01*
X65184Y85665D01*
X65135Y85634D01*
X65080Y85604D01*
X65021Y85578D01*
X64958Y85552D01*
X64889Y85531D01*
X64818Y85514D01*
X64745Y85505D01*
X64667Y85500D01*
X64648D01*
X64627Y85502D01*
X64599Y85505D01*
X64564Y85512D01*
X64521Y85519D01*
X64476Y85528D01*
X64429Y85545D01*
X64377Y85561D01*
X64323Y85585D01*
X64268Y85613D01*
X64214Y85646D01*
X64160Y85686D01*
X64108Y85734D01*
X64058Y85788D01*
X64011Y85849D01*
Y85552D01*
X63638D01*
Y88818D01*
X64040D01*
Y87650D01*
D02*
G37*
G36*
X89234Y89858D02*
X89261D01*
X89294Y89852D01*
X89329Y89849D01*
X89368Y89844D01*
X89411Y89836D01*
X89455Y89828D01*
X89551Y89803D01*
X89603Y89789D01*
X89652Y89770D01*
X89701Y89751D01*
X89750Y89726D01*
X89753Y89724D01*
X89761Y89721D01*
X89775Y89713D01*
X89794Y89702D01*
X89815Y89688D01*
X89840Y89672D01*
X89867Y89653D01*
X89897Y89631D01*
X89963Y89579D01*
X90028Y89516D01*
X90091Y89445D01*
X90121Y89404D01*
X90149Y89363D01*
X90151Y89361D01*
X90154Y89352D01*
X90162Y89341D01*
X90170Y89322D01*
X90181Y89303D01*
X90192Y89276D01*
X90206Y89249D01*
X90219Y89216D01*
X90230Y89180D01*
X90244Y89145D01*
X90266Y89063D01*
X90282Y88973D01*
X90285Y88927D01*
X90288Y88877D01*
Y88875D01*
Y88867D01*
Y88853D01*
X90285Y88836D01*
Y88815D01*
X90280Y88790D01*
X90277Y88760D01*
X90271Y88730D01*
X90255Y88659D01*
X90230Y88585D01*
X90217Y88547D01*
X90198Y88506D01*
X90179Y88468D01*
X90154Y88430D01*
X90151Y88427D01*
X90149Y88421D01*
X90140Y88411D01*
X90129Y88397D01*
X90116Y88381D01*
X90099Y88362D01*
X90080Y88340D01*
X90056Y88315D01*
X90031Y88291D01*
X90001Y88266D01*
X89971Y88239D01*
X89936Y88211D01*
X89897Y88187D01*
X89856Y88159D01*
X89813Y88135D01*
X89766Y88113D01*
X89769D01*
X89780Y88110D01*
X89799Y88105D01*
X89821Y88097D01*
X89851Y88089D01*
X89884Y88075D01*
X89919Y88061D01*
X89957Y88042D01*
X89998Y88023D01*
X90042Y87998D01*
X90086Y87974D01*
X90129Y87944D01*
X90170Y87911D01*
X90211Y87875D01*
X90252Y87835D01*
X90288Y87791D01*
X90290Y87788D01*
X90296Y87780D01*
X90304Y87766D01*
X90318Y87747D01*
X90331Y87723D01*
X90348Y87695D01*
X90364Y87663D01*
X90381Y87624D01*
X90397Y87581D01*
X90416Y87534D01*
X90430Y87485D01*
X90443Y87431D01*
X90457Y87373D01*
X90465Y87313D01*
X90471Y87250D01*
X90473Y87182D01*
Y87177D01*
Y87160D01*
X90471Y87133D01*
X90468Y87100D01*
X90462Y87056D01*
X90454Y87007D01*
X90443Y86953D01*
X90427Y86893D01*
X90408Y86827D01*
X90386Y86762D01*
X90356Y86691D01*
X90320Y86620D01*
X90280Y86549D01*
X90230Y86478D01*
X90173Y86409D01*
X90110Y86344D01*
X90105Y86341D01*
X90094Y86330D01*
X90075Y86311D01*
X90045Y86289D01*
X90009Y86265D01*
X89968Y86235D01*
X89916Y86205D01*
X89862Y86172D01*
X89799Y86139D01*
X89728Y86109D01*
X89654Y86079D01*
X89573Y86055D01*
X89488Y86033D01*
X89395Y86014D01*
X89299Y86003D01*
X89198Y86000D01*
X89177D01*
X89149Y86003D01*
X89117Y86006D01*
X89073Y86008D01*
X89024Y86016D01*
X88969Y86025D01*
X88909Y86038D01*
X88846Y86052D01*
X88778Y86071D01*
X88710Y86096D01*
X88639Y86126D01*
X88571Y86158D01*
X88502Y86197D01*
X88434Y86243D01*
X88371Y86295D01*
X88369Y86298D01*
X88358Y86308D01*
X88341Y86325D01*
X88319Y86349D01*
X88295Y86379D01*
X88265Y86415D01*
X88235Y86456D01*
X88202Y86502D01*
X88169Y86554D01*
X88137Y86614D01*
X88107Y86677D01*
X88076Y86745D01*
X88052Y86819D01*
X88027Y86895D01*
X88011Y86977D01*
X88000Y87065D01*
X88464Y87128D01*
Y87122D01*
X88467Y87111D01*
X88472Y87089D01*
X88481Y87062D01*
X88489Y87029D01*
X88500Y86994D01*
X88513Y86953D01*
X88527Y86909D01*
X88565Y86813D01*
X88612Y86721D01*
X88639Y86674D01*
X88669Y86631D01*
X88699Y86592D01*
X88734Y86557D01*
X88737Y86554D01*
X88743Y86549D01*
X88753Y86541D01*
X88770Y86530D01*
X88786Y86516D01*
X88811Y86502D01*
X88835Y86486D01*
X88865Y86472D01*
X88898Y86456D01*
X88934Y86440D01*
X88972Y86426D01*
X89013Y86412D01*
X89056Y86401D01*
X89103Y86393D01*
X89149Y86388D01*
X89201Y86385D01*
X89215D01*
X89234Y86388D01*
X89256D01*
X89286Y86393D01*
X89319Y86396D01*
X89354Y86404D01*
X89395Y86412D01*
X89436Y86426D01*
X89482Y86440D01*
X89529Y86459D01*
X89575Y86480D01*
X89622Y86508D01*
X89668Y86538D01*
X89712Y86571D01*
X89755Y86611D01*
X89758Y86614D01*
X89766Y86622D01*
X89777Y86633D01*
X89791Y86652D01*
X89807Y86674D01*
X89826Y86702D01*
X89848Y86732D01*
X89870Y86767D01*
X89889Y86805D01*
X89911Y86849D01*
X89930Y86893D01*
X89947Y86945D01*
X89960Y86997D01*
X89971Y87051D01*
X89979Y87111D01*
X89982Y87171D01*
Y87174D01*
Y87185D01*
Y87201D01*
X89979Y87226D01*
X89977Y87250D01*
X89971Y87283D01*
X89966Y87319D01*
X89955Y87357D01*
X89944Y87398D01*
X89930Y87441D01*
X89914Y87485D01*
X89895Y87529D01*
X89870Y87572D01*
X89840Y87616D01*
X89810Y87657D01*
X89772Y87698D01*
X89769Y87701D01*
X89764Y87706D01*
X89750Y87717D01*
X89734Y87731D01*
X89714Y87747D01*
X89690Y87764D01*
X89660Y87783D01*
X89627Y87802D01*
X89592Y87821D01*
X89551Y87840D01*
X89507Y87856D01*
X89461Y87873D01*
X89411Y87886D01*
X89357Y87897D01*
X89302Y87903D01*
X89242Y87906D01*
X89218D01*
X89190Y87903D01*
X89152Y87900D01*
X89103Y87895D01*
X89048Y87884D01*
X88986Y87873D01*
X88915Y87856D01*
X88966Y88263D01*
X88975D01*
X88983Y88260D01*
X88994D01*
X89018Y88258D01*
X89070D01*
X89089Y88260D01*
X89117Y88263D01*
X89147Y88266D01*
X89179Y88271D01*
X89218Y88277D01*
X89258Y88285D01*
X89299Y88296D01*
X89390Y88323D01*
X89436Y88340D01*
X89482Y88362D01*
X89529Y88383D01*
X89573Y88411D01*
X89575Y88413D01*
X89583Y88419D01*
X89594Y88427D01*
X89611Y88441D01*
X89627Y88457D01*
X89649Y88476D01*
X89668Y88501D01*
X89693Y88528D01*
X89714Y88561D01*
X89736Y88596D01*
X89755Y88635D01*
X89772Y88678D01*
X89788Y88724D01*
X89799Y88776D01*
X89807Y88831D01*
X89810Y88888D01*
Y88891D01*
Y88899D01*
Y88913D01*
X89807Y88932D01*
X89805Y88951D01*
X89802Y88978D01*
X89796Y89006D01*
X89788Y89036D01*
X89766Y89101D01*
X89753Y89137D01*
X89736Y89172D01*
X89717Y89208D01*
X89693Y89243D01*
X89665Y89276D01*
X89635Y89309D01*
X89632Y89311D01*
X89627Y89317D01*
X89619Y89325D01*
X89605Y89336D01*
X89586Y89347D01*
X89567Y89363D01*
X89542Y89377D01*
X89515Y89393D01*
X89485Y89410D01*
X89452Y89423D01*
X89414Y89440D01*
X89376Y89451D01*
X89332Y89462D01*
X89289Y89470D01*
X89239Y89475D01*
X89190Y89478D01*
X89163D01*
X89147Y89475D01*
X89122Y89473D01*
X89095Y89470D01*
X89065Y89464D01*
X89032Y89456D01*
X88961Y89437D01*
X88925Y89423D01*
X88887Y89404D01*
X88849Y89385D01*
X88811Y89363D01*
X88775Y89336D01*
X88740Y89306D01*
X88737Y89303D01*
X88732Y89298D01*
X88723Y89287D01*
X88710Y89273D01*
X88696Y89257D01*
X88680Y89235D01*
X88663Y89208D01*
X88644Y89180D01*
X88625Y89145D01*
X88606Y89107D01*
X88584Y89066D01*
X88568Y89019D01*
X88549Y88970D01*
X88535Y88918D01*
X88521Y88861D01*
X88511Y88798D01*
X88046Y88880D01*
Y88883D01*
Y88886D01*
X88052Y88902D01*
X88057Y88924D01*
X88065Y88957D01*
X88076Y88998D01*
X88090Y89041D01*
X88107Y89090D01*
X88126Y89145D01*
X88150Y89202D01*
X88177Y89262D01*
X88210Y89322D01*
X88246Y89382D01*
X88284Y89442D01*
X88328Y89500D01*
X88377Y89555D01*
X88431Y89604D01*
X88434Y89606D01*
X88445Y89614D01*
X88461Y89628D01*
X88486Y89645D01*
X88516Y89664D01*
X88551Y89685D01*
X88592Y89707D01*
X88639Y89732D01*
X88691Y89757D01*
X88748Y89778D01*
X88808Y89800D01*
X88874Y89819D01*
X88945Y89836D01*
X89021Y89849D01*
X89100Y89858D01*
X89182Y89860D01*
X89212D01*
X89234Y89858D01*
D02*
G37*
G36*
X92884Y87398D02*
X93395D01*
Y86972D01*
X92884D01*
Y86068D01*
X92420D01*
Y86972D01*
X90782D01*
Y87398D01*
X92505Y89847D01*
X92884D01*
Y87398D01*
D02*
G37*
G36*
X89392Y3563D02*
X88928D01*
Y6517D01*
X88925Y6514D01*
X88920Y6509D01*
X88912Y6500D01*
X88898Y6489D01*
X88882Y6476D01*
X88860Y6457D01*
X88835Y6437D01*
X88811Y6416D01*
X88778Y6394D01*
X88745Y6367D01*
X88710Y6342D01*
X88672Y6312D01*
X88628Y6285D01*
X88584Y6255D01*
X88486Y6194D01*
X88483Y6192D01*
X88475Y6186D01*
X88459Y6178D01*
X88440Y6170D01*
X88418Y6156D01*
X88390Y6140D01*
X88358Y6123D01*
X88325Y6104D01*
X88248Y6066D01*
X88166Y6028D01*
X88082Y5990D01*
X88000Y5957D01*
Y6405D01*
X88006Y6408D01*
X88016Y6413D01*
X88038Y6424D01*
X88065Y6437D01*
X88098Y6454D01*
X88139Y6476D01*
X88183Y6500D01*
X88229Y6528D01*
X88281Y6560D01*
X88336Y6593D01*
X88450Y6669D01*
X88568Y6754D01*
X88680Y6847D01*
X88683Y6850D01*
X88693Y6858D01*
X88707Y6872D01*
X88726Y6891D01*
X88751Y6915D01*
X88778Y6943D01*
X88808Y6975D01*
X88841Y7008D01*
X88874Y7046D01*
X88909Y7087D01*
X88977Y7172D01*
X89040Y7262D01*
X89067Y7308D01*
X89092Y7355D01*
X89392D01*
Y3563D01*
D02*
G37*
G36*
X91857Y7352D02*
X91893Y7349D01*
X91934Y7347D01*
X91983Y7338D01*
X92038Y7330D01*
X92095Y7319D01*
X92158Y7303D01*
X92223Y7284D01*
X92289Y7262D01*
X92354Y7232D01*
X92420Y7199D01*
X92485Y7161D01*
X92548Y7117D01*
X92606Y7065D01*
X92608Y7063D01*
X92619Y7052D01*
X92633Y7035D01*
X92652Y7013D01*
X92677Y6986D01*
X92701Y6953D01*
X92728Y6915D01*
X92758Y6872D01*
X92786Y6822D01*
X92813Y6768D01*
X92838Y6711D01*
X92862Y6650D01*
X92881Y6585D01*
X92895Y6514D01*
X92906Y6443D01*
X92909Y6367D01*
Y6364D01*
Y6356D01*
Y6342D01*
X92906Y6323D01*
X92903Y6301D01*
X92900Y6274D01*
X92898Y6244D01*
X92892Y6211D01*
X92876Y6140D01*
X92851Y6064D01*
X92835Y6025D01*
X92816Y5987D01*
X92794Y5949D01*
X92769Y5911D01*
X92767Y5908D01*
X92764Y5902D01*
X92756Y5892D01*
X92742Y5878D01*
X92728Y5861D01*
X92709Y5845D01*
X92690Y5823D01*
X92666Y5801D01*
X92636Y5777D01*
X92606Y5752D01*
X92570Y5728D01*
X92535Y5703D01*
X92491Y5678D01*
X92447Y5654D01*
X92401Y5632D01*
X92349Y5610D01*
X92352D01*
X92365Y5605D01*
X92382Y5599D01*
X92406Y5588D01*
X92436Y5578D01*
X92469Y5561D01*
X92507Y5545D01*
X92545Y5523D01*
X92589Y5498D01*
X92633Y5471D01*
X92677Y5441D01*
X92720Y5408D01*
X92764Y5373D01*
X92805Y5332D01*
X92846Y5291D01*
X92881Y5244D01*
X92884Y5242D01*
X92889Y5234D01*
X92898Y5220D01*
X92911Y5201D01*
X92925Y5176D01*
X92939Y5146D01*
X92955Y5113D01*
X92974Y5075D01*
X92990Y5032D01*
X93007Y4988D01*
X93020Y4936D01*
X93037Y4884D01*
X93048Y4827D01*
X93056Y4769D01*
X93061Y4707D01*
X93064Y4641D01*
Y4636D01*
Y4619D01*
X93061Y4595D01*
X93059Y4559D01*
X93053Y4518D01*
X93045Y4472D01*
X93034Y4417D01*
X93020Y4357D01*
X93004Y4294D01*
X92980Y4229D01*
X92952Y4163D01*
X92919Y4095D01*
X92879Y4024D01*
X92835Y3959D01*
X92780Y3890D01*
X92720Y3828D01*
X92717Y3825D01*
X92704Y3814D01*
X92685Y3798D01*
X92657Y3776D01*
X92625Y3751D01*
X92581Y3724D01*
X92535Y3694D01*
X92480Y3664D01*
X92417Y3634D01*
X92349Y3604D01*
X92275Y3576D01*
X92196Y3552D01*
X92109Y3530D01*
X92019Y3514D01*
X91920Y3503D01*
X91819Y3500D01*
X91795D01*
X91765Y3503D01*
X91726Y3506D01*
X91680Y3511D01*
X91625Y3516D01*
X91563Y3527D01*
X91497Y3541D01*
X91426Y3560D01*
X91352Y3582D01*
X91279Y3607D01*
X91202Y3639D01*
X91126Y3678D01*
X91052Y3721D01*
X90984Y3773D01*
X90916Y3830D01*
X90913Y3833D01*
X90902Y3847D01*
X90883Y3863D01*
X90864Y3890D01*
X90837Y3923D01*
X90806Y3961D01*
X90776Y4005D01*
X90746Y4057D01*
X90714Y4114D01*
X90684Y4177D01*
X90654Y4245D01*
X90629Y4316D01*
X90607Y4395D01*
X90588Y4477D01*
X90577Y4565D01*
X90574Y4655D01*
Y4660D01*
Y4671D01*
Y4690D01*
X90577Y4718D01*
X90580Y4748D01*
X90585Y4786D01*
X90591Y4827D01*
X90599Y4871D01*
X90607Y4917D01*
X90621Y4969D01*
X90635Y5018D01*
X90654Y5070D01*
X90675Y5122D01*
X90700Y5173D01*
X90727Y5223D01*
X90760Y5272D01*
X90763Y5274D01*
X90768Y5283D01*
X90779Y5296D01*
X90795Y5313D01*
X90815Y5332D01*
X90839Y5356D01*
X90867Y5381D01*
X90896Y5408D01*
X90935Y5436D01*
X90973Y5463D01*
X91017Y5493D01*
X91066Y5520D01*
X91118Y5545D01*
X91172Y5569D01*
X91232Y5591D01*
X91295Y5610D01*
X91292D01*
X91281Y5616D01*
X91268Y5621D01*
X91249Y5629D01*
X91224Y5640D01*
X91197Y5654D01*
X91167Y5670D01*
X91134Y5687D01*
X91063Y5730D01*
X90992Y5782D01*
X90924Y5842D01*
X90894Y5875D01*
X90867Y5911D01*
X90864Y5913D01*
X90861Y5919D01*
X90853Y5930D01*
X90845Y5946D01*
X90834Y5965D01*
X90823Y5987D01*
X90809Y6014D01*
X90798Y6044D01*
X90785Y6077D01*
X90771Y6113D01*
X90760Y6151D01*
X90749Y6192D01*
X90733Y6282D01*
X90730Y6331D01*
X90727Y6380D01*
Y6386D01*
Y6399D01*
X90730Y6421D01*
X90733Y6448D01*
X90736Y6484D01*
X90744Y6525D01*
X90752Y6571D01*
X90766Y6620D01*
X90779Y6675D01*
X90798Y6730D01*
X90823Y6787D01*
X90853Y6847D01*
X90886Y6904D01*
X90924Y6964D01*
X90970Y7019D01*
X91022Y7074D01*
X91025Y7076D01*
X91036Y7085D01*
X91052Y7101D01*
X91077Y7117D01*
X91107Y7139D01*
X91142Y7164D01*
X91183Y7188D01*
X91232Y7215D01*
X91284Y7240D01*
X91344Y7265D01*
X91410Y7289D01*
X91481Y7311D01*
X91554Y7330D01*
X91636Y7344D01*
X91721Y7352D01*
X91811Y7355D01*
X91833D01*
X91857Y7352D01*
D02*
G37*
G36*
X10556Y11369D02*
X10553Y11363D01*
X10540Y11352D01*
X10520Y11328D01*
X10493Y11298D01*
X10460Y11260D01*
X10422Y11213D01*
X10379Y11159D01*
X10332Y11096D01*
X10280Y11028D01*
X10223Y10951D01*
X10163Y10866D01*
X10103Y10776D01*
X10037Y10678D01*
X9974Y10574D01*
X9906Y10465D01*
X9841Y10348D01*
Y10345D01*
X9838Y10340D01*
X9832Y10331D01*
X9824Y10321D01*
X9816Y10304D01*
X9808Y10285D01*
X9794Y10263D01*
X9783Y10239D01*
X9767Y10211D01*
X9753Y10178D01*
X9718Y10110D01*
X9680Y10034D01*
X9639Y9946D01*
X9595Y9851D01*
X9551Y9747D01*
X9505Y9641D01*
X9461Y9526D01*
X9415Y9409D01*
X9374Y9289D01*
X9333Y9163D01*
X9295Y9037D01*
X9292Y9032D01*
X9289Y9016D01*
X9281Y8991D01*
X9273Y8956D01*
X9262Y8909D01*
X9248Y8857D01*
X9235Y8797D01*
X9221Y8729D01*
X9205Y8655D01*
X9191Y8576D01*
X9175Y8489D01*
X9161Y8399D01*
X9147Y8306D01*
X9136Y8207D01*
X9125Y8104D01*
X9117Y8000D01*
X8640D01*
Y8005D01*
Y8019D01*
X8642Y8046D01*
Y8079D01*
X8645Y8123D01*
X8650Y8175D01*
X8656Y8235D01*
X8664Y8300D01*
X8672Y8377D01*
X8683Y8459D01*
X8697Y8546D01*
X8713Y8642D01*
X8735Y8743D01*
X8757Y8849D01*
X8782Y8961D01*
X8811Y9076D01*
Y9078D01*
X8814Y9084D01*
X8817Y9092D01*
X8820Y9103D01*
X8825Y9119D01*
X8831Y9138D01*
X8836Y9160D01*
X8844Y9185D01*
X8861Y9239D01*
X8883Y9308D01*
X8907Y9381D01*
X8934Y9466D01*
X8967Y9556D01*
X9003Y9652D01*
X9043Y9753D01*
X9085Y9856D01*
X9131Y9963D01*
X9183Y10072D01*
X9235Y10184D01*
X9292Y10293D01*
Y10296D01*
X9295Y10299D01*
X9300Y10307D01*
X9306Y10321D01*
X9314Y10334D01*
X9325Y10351D01*
X9347Y10391D01*
X9377Y10441D01*
X9409Y10501D01*
X9450Y10566D01*
X9494Y10637D01*
X9540Y10714D01*
X9592Y10793D01*
X9650Y10875D01*
X9707Y10959D01*
X9830Y11126D01*
X9895Y11208D01*
X9961Y11284D01*
X8110D01*
Y11729D01*
X10556D01*
Y11369D01*
D02*
G37*
G36*
X6892Y8000D02*
X6428D01*
Y10954D01*
X6425Y10951D01*
X6420Y10946D01*
X6412Y10938D01*
X6398Y10927D01*
X6382Y10913D01*
X6360Y10894D01*
X6335Y10875D01*
X6311Y10853D01*
X6278Y10831D01*
X6245Y10804D01*
X6210Y10779D01*
X6172Y10749D01*
X6128Y10722D01*
X6084Y10692D01*
X5986Y10632D01*
X5983Y10629D01*
X5975Y10623D01*
X5959Y10615D01*
X5940Y10607D01*
X5918Y10593D01*
X5890Y10577D01*
X5858Y10561D01*
X5825Y10542D01*
X5748Y10503D01*
X5666Y10465D01*
X5582Y10427D01*
X5500Y10394D01*
Y10842D01*
X5505Y10845D01*
X5516Y10850D01*
X5538Y10861D01*
X5565Y10875D01*
X5598Y10891D01*
X5639Y10913D01*
X5683Y10938D01*
X5729Y10965D01*
X5781Y10998D01*
X5836Y11030D01*
X5951Y11107D01*
X6068Y11191D01*
X6180Y11284D01*
X6182Y11287D01*
X6193Y11295D01*
X6207Y11309D01*
X6226Y11328D01*
X6251Y11352D01*
X6278Y11380D01*
X6308Y11412D01*
X6341Y11445D01*
X6374Y11484D01*
X6409Y11524D01*
X6477Y11609D01*
X6540Y11699D01*
X6567Y11746D01*
X6592Y11792D01*
X6892D01*
Y8000D01*
D02*
G37*
G36*
X7392Y86000D02*
X6928D01*
Y88954D01*
X6926Y88951D01*
X6920Y88946D01*
X6912Y88937D01*
X6898Y88927D01*
X6882Y88913D01*
X6860Y88894D01*
X6835Y88875D01*
X6811Y88853D01*
X6778Y88831D01*
X6745Y88804D01*
X6710Y88779D01*
X6672Y88749D01*
X6628Y88722D01*
X6584Y88692D01*
X6486Y88632D01*
X6483Y88629D01*
X6475Y88623D01*
X6459Y88615D01*
X6440Y88607D01*
X6418Y88594D01*
X6390Y88577D01*
X6358Y88561D01*
X6325Y88542D01*
X6248Y88503D01*
X6166Y88465D01*
X6082Y88427D01*
X6000Y88394D01*
Y88842D01*
X6005Y88845D01*
X6016Y88850D01*
X6038Y88861D01*
X6066Y88875D01*
X6098Y88891D01*
X6139Y88913D01*
X6183Y88937D01*
X6229Y88965D01*
X6281Y88998D01*
X6336Y89030D01*
X6450Y89107D01*
X6568Y89191D01*
X6680Y89284D01*
X6683Y89287D01*
X6693Y89295D01*
X6707Y89309D01*
X6726Y89328D01*
X6751Y89352D01*
X6778Y89380D01*
X6808Y89412D01*
X6841Y89445D01*
X6874Y89483D01*
X6909Y89524D01*
X6977Y89609D01*
X7040Y89699D01*
X7067Y89746D01*
X7092Y89792D01*
X7392D01*
Y86000D01*
D02*
G37*
%LPC*%
G36*
X83175Y4820D02*
X83164D01*
X83150Y4817D01*
X83131D01*
X83107Y4812D01*
X83079Y4810D01*
X83050Y4803D01*
X83017Y4796D01*
X82982Y4784D01*
X82944Y4772D01*
X82907Y4756D01*
X82866Y4737D01*
X82829Y4716D01*
X82788Y4687D01*
X82751Y4659D01*
X82715Y4624D01*
X82713Y4621D01*
X82708Y4614D01*
X82699Y4602D01*
X82687Y4588D01*
X82670Y4569D01*
X82656Y4546D01*
X82637Y4518D01*
X82621Y4487D01*
X82604Y4451D01*
X82586Y4414D01*
X82571Y4371D01*
X82557Y4326D01*
X82543Y4277D01*
X82534Y4225D01*
X82529Y4171D01*
X82526Y4114D01*
Y4112D01*
Y4104D01*
Y4093D01*
X82529Y4078D01*
Y4060D01*
X82531Y4038D01*
X82534Y4012D01*
X82538Y3986D01*
X82548Y3925D01*
X82564Y3859D01*
X82586Y3788D01*
X82614Y3715D01*
Y3713D01*
X82619Y3708D01*
X82623Y3696D01*
X82630Y3684D01*
X82640Y3668D01*
X82649Y3651D01*
X82678Y3609D01*
X82711Y3562D01*
X82753Y3514D01*
X82803Y3467D01*
X82857Y3427D01*
X82859D01*
X82864Y3422D01*
X82873Y3418D01*
X82885Y3413D01*
X82899Y3406D01*
X82916Y3396D01*
X82935Y3387D01*
X82958Y3380D01*
X83008Y3361D01*
X83065Y3345D01*
X83126Y3335D01*
X83190Y3330D01*
X83201D01*
X83216Y3333D01*
X83232D01*
X83253Y3337D01*
X83279Y3342D01*
X83308Y3347D01*
X83341Y3356D01*
X83374Y3366D01*
X83409Y3380D01*
X83445Y3396D01*
X83482Y3415D01*
X83518Y3439D01*
X83556Y3467D01*
X83591Y3498D01*
X83626Y3533D01*
X83629Y3536D01*
X83633Y3543D01*
X83643Y3555D01*
X83655Y3571D01*
X83669Y3592D01*
X83685Y3616D01*
X83702Y3647D01*
X83718Y3680D01*
X83735Y3717D01*
X83751Y3760D01*
X83768Y3805D01*
X83782Y3854D01*
X83794Y3909D01*
X83803Y3965D01*
X83808Y4027D01*
X83810Y4090D01*
Y4095D01*
Y4104D01*
Y4123D01*
X83808Y4147D01*
X83806Y4175D01*
X83801Y4208D01*
X83796Y4244D01*
X83787Y4284D01*
X83777Y4326D01*
X83766Y4369D01*
X83751Y4414D01*
X83735Y4459D01*
X83714Y4501D01*
X83688Y4543D01*
X83662Y4586D01*
X83629Y4624D01*
X83626Y4626D01*
X83622Y4633D01*
X83610Y4643D01*
X83596Y4654D01*
X83579Y4668D01*
X83558Y4685D01*
X83532Y4704D01*
X83506Y4723D01*
X83473Y4739D01*
X83440Y4758D01*
X83402Y4775D01*
X83362Y4789D01*
X83319Y4801D01*
X83275Y4810D01*
X83225Y4817D01*
X83175Y4820D01*
D02*
G37*
G36*
X69454Y5141D02*
X69440D01*
X69426Y5138D01*
X69405D01*
X69379Y5133D01*
X69348Y5129D01*
X69315Y5122D01*
X69280Y5112D01*
X69242Y5100D01*
X69202Y5086D01*
X69160Y5067D01*
X69117Y5046D01*
X69077Y5020D01*
X69034Y4989D01*
X68994Y4954D01*
X68957Y4914D01*
X68954Y4912D01*
X68947Y4905D01*
X68938Y4890D01*
X68926Y4871D01*
X68912Y4848D01*
X68895Y4820D01*
X68876Y4784D01*
X68860Y4746D01*
X68841Y4699D01*
X68822Y4650D01*
X68805Y4595D01*
X68791Y4534D01*
X68779Y4468D01*
X68770Y4395D01*
X68763Y4319D01*
X68761Y4237D01*
Y4234D01*
Y4232D01*
Y4225D01*
Y4218D01*
X68763Y4194D01*
Y4163D01*
X68768Y4126D01*
X68770Y4081D01*
X68777Y4034D01*
X68784Y3982D01*
X68796Y3928D01*
X68808Y3871D01*
X68824Y3814D01*
X68843Y3760D01*
X68867Y3703D01*
X68893Y3651D01*
X68921Y3602D01*
X68957Y3557D01*
X68959Y3555D01*
X68966Y3548D01*
X68978Y3536D01*
X68992Y3522D01*
X69011Y3505D01*
X69034Y3486D01*
X69063Y3465D01*
X69093Y3446D01*
X69126Y3425D01*
X69164Y3404D01*
X69207Y3385D01*
X69249Y3368D01*
X69296Y3354D01*
X69348Y3342D01*
X69400Y3335D01*
X69454Y3333D01*
X69469D01*
X69483Y3335D01*
X69504Y3337D01*
X69530Y3340D01*
X69561Y3345D01*
X69594Y3352D01*
X69629Y3361D01*
X69667Y3373D01*
X69707Y3387D01*
X69749Y3406D01*
X69792Y3430D01*
X69832Y3455D01*
X69875Y3484D01*
X69915Y3519D01*
X69952Y3559D01*
X69955Y3562D01*
X69962Y3571D01*
X69971Y3583D01*
X69983Y3602D01*
X70000Y3625D01*
X70016Y3656D01*
X70033Y3692D01*
X70052Y3732D01*
X70070Y3776D01*
X70087Y3828D01*
X70106Y3885D01*
X70120Y3946D01*
X70132Y4015D01*
X70141Y4088D01*
X70148Y4166D01*
X70151Y4251D01*
Y4253D01*
Y4256D01*
Y4270D01*
X70148Y4293D01*
Y4322D01*
X70144Y4359D01*
X70141Y4402D01*
X70134Y4447D01*
X70125Y4499D01*
X70115Y4550D01*
X70101Y4605D01*
X70085Y4659D01*
X70066Y4716D01*
X70042Y4768D01*
X70016Y4820D01*
X69986Y4869D01*
X69950Y4914D01*
X69948Y4916D01*
X69941Y4923D01*
X69929Y4935D01*
X69915Y4949D01*
X69896Y4966D01*
X69872Y4985D01*
X69844Y5006D01*
X69813Y5027D01*
X69780Y5049D01*
X69742Y5070D01*
X69702Y5089D01*
X69657Y5105D01*
X69610Y5119D01*
X69561Y5131D01*
X69509Y5138D01*
X69454Y5141D01*
D02*
G37*
G36*
X64381D02*
X64366D01*
X64352Y5138D01*
X64331D01*
X64305Y5133D01*
X64274Y5129D01*
X64241Y5122D01*
X64206Y5112D01*
X64168Y5100D01*
X64128Y5086D01*
X64086Y5067D01*
X64043Y5046D01*
X64003Y5020D01*
X63960Y4989D01*
X63920Y4954D01*
X63882Y4914D01*
X63880Y4912D01*
X63873Y4905D01*
X63864Y4890D01*
X63852Y4871D01*
X63838Y4848D01*
X63821Y4820D01*
X63802Y4784D01*
X63786Y4746D01*
X63767Y4699D01*
X63748Y4650D01*
X63731Y4595D01*
X63717Y4534D01*
X63705Y4468D01*
X63696Y4395D01*
X63689Y4319D01*
X63687Y4237D01*
Y4234D01*
Y4232D01*
Y4225D01*
Y4218D01*
X63689Y4194D01*
Y4163D01*
X63694Y4126D01*
X63696Y4081D01*
X63703Y4034D01*
X63710Y3982D01*
X63722Y3928D01*
X63734Y3871D01*
X63750Y3814D01*
X63769Y3760D01*
X63793Y3703D01*
X63819Y3651D01*
X63847Y3602D01*
X63882Y3557D01*
X63885Y3555D01*
X63892Y3548D01*
X63904Y3536D01*
X63918Y3522D01*
X63937Y3505D01*
X63960Y3486D01*
X63989Y3465D01*
X64019Y3446D01*
X64052Y3425D01*
X64090Y3404D01*
X64133Y3385D01*
X64175Y3368D01*
X64222Y3354D01*
X64274Y3342D01*
X64326Y3335D01*
X64381Y3333D01*
X64395D01*
X64409Y3335D01*
X64430Y3337D01*
X64456Y3340D01*
X64487Y3345D01*
X64520Y3352D01*
X64555Y3361D01*
X64593Y3373D01*
X64633Y3387D01*
X64675Y3406D01*
X64718Y3430D01*
X64758Y3455D01*
X64801Y3484D01*
X64841Y3519D01*
X64878Y3559D01*
X64881Y3562D01*
X64888Y3571D01*
X64897Y3583D01*
X64909Y3602D01*
X64926Y3625D01*
X64942Y3656D01*
X64959Y3692D01*
X64978Y3732D01*
X64996Y3776D01*
X65013Y3828D01*
X65032Y3885D01*
X65046Y3946D01*
X65058Y4015D01*
X65067Y4088D01*
X65074Y4166D01*
X65077Y4251D01*
Y4253D01*
Y4256D01*
Y4270D01*
X65074Y4293D01*
Y4322D01*
X65070Y4359D01*
X65067Y4402D01*
X65060Y4447D01*
X65051Y4499D01*
X65041Y4550D01*
X65027Y4605D01*
X65011Y4659D01*
X64992Y4716D01*
X64968Y4768D01*
X64942Y4820D01*
X64912Y4869D01*
X64876Y4914D01*
X64874Y4916D01*
X64867Y4923D01*
X64855Y4935D01*
X64841Y4949D01*
X64822Y4966D01*
X64798Y4985D01*
X64770Y5006D01*
X64739Y5027D01*
X64706Y5049D01*
X64668Y5070D01*
X64628Y5089D01*
X64583Y5105D01*
X64536Y5119D01*
X64487Y5131D01*
X64435Y5138D01*
X64381Y5141D01*
D02*
G37*
G36*
X78069Y6000D02*
X78057D01*
X78043Y5997D01*
X78024Y5995D01*
X78000Y5993D01*
X77972Y5988D01*
X77943Y5981D01*
X77910Y5971D01*
X77875Y5957D01*
X77840Y5943D01*
X77802Y5924D01*
X77766Y5900D01*
X77729Y5875D01*
X77693Y5844D01*
X77660Y5806D01*
X77627Y5766D01*
X77625Y5764D01*
X77618Y5752D01*
X77608Y5733D01*
X77594Y5707D01*
X77580Y5672D01*
X77563Y5629D01*
X77545Y5577D01*
X77526Y5516D01*
X77514Y5483D01*
X77504Y5445D01*
X77495Y5407D01*
X77488Y5365D01*
X77478Y5322D01*
X77469Y5275D01*
X77462Y5226D01*
X77455Y5174D01*
X77448Y5119D01*
X77441Y5063D01*
X77436Y5004D01*
X77431Y4942D01*
X77427Y4876D01*
X77424Y4808D01*
X77422Y4737D01*
Y4664D01*
Y4661D01*
Y4654D01*
Y4645D01*
Y4628D01*
Y4609D01*
X77424Y4588D01*
Y4562D01*
Y4534D01*
X77427Y4503D01*
Y4470D01*
X77431Y4395D01*
X77438Y4315D01*
X77445Y4230D01*
X77455Y4140D01*
X77467Y4050D01*
X77483Y3960D01*
X77500Y3873D01*
X77521Y3791D01*
X77547Y3717D01*
X77561Y3682D01*
X77575Y3651D01*
X77592Y3621D01*
X77608Y3595D01*
X77611Y3592D01*
X77618Y3583D01*
X77627Y3571D01*
X77641Y3555D01*
X77660Y3533D01*
X77684Y3512D01*
X77707Y3486D01*
X77738Y3463D01*
X77769Y3439D01*
X77804Y3413D01*
X77842Y3392D01*
X77884Y3373D01*
X77927Y3354D01*
X77974Y3342D01*
X78024Y3333D01*
X78073Y3330D01*
X78085D01*
X78099Y3333D01*
X78118Y3335D01*
X78142Y3337D01*
X78170Y3345D01*
X78201Y3352D01*
X78234Y3363D01*
X78269Y3378D01*
X78307Y3394D01*
X78345Y3415D01*
X78385Y3441D01*
X78422Y3472D01*
X78463Y3507D01*
X78500Y3548D01*
X78536Y3595D01*
X78538Y3597D01*
X78543Y3609D01*
X78552Y3625D01*
X78566Y3649D01*
X78581Y3682D01*
X78595Y3722D01*
X78614Y3769D01*
X78630Y3828D01*
X78640Y3861D01*
X78647Y3897D01*
X78656Y3932D01*
X78666Y3972D01*
X78673Y4015D01*
X78680Y4060D01*
X78689Y4107D01*
X78696Y4159D01*
X78701Y4211D01*
X78708Y4267D01*
X78713Y4326D01*
X78717Y4388D01*
X78720Y4451D01*
X78722Y4520D01*
X78725Y4591D01*
Y4664D01*
Y4666D01*
Y4673D01*
Y4685D01*
Y4699D01*
Y4718D01*
Y4739D01*
X78722Y4765D01*
Y4794D01*
X78720Y4824D01*
Y4860D01*
X78715Y4933D01*
X78708Y5013D01*
X78701Y5100D01*
X78692Y5188D01*
X78680Y5277D01*
X78663Y5367D01*
X78644Y5454D01*
X78623Y5537D01*
X78597Y5610D01*
X78583Y5646D01*
X78569Y5676D01*
X78552Y5707D01*
X78536Y5733D01*
X78533Y5735D01*
X78526Y5745D01*
X78517Y5756D01*
X78503Y5775D01*
X78484Y5794D01*
X78463Y5818D01*
X78437Y5841D01*
X78408Y5867D01*
X78375Y5891D01*
X78340Y5915D01*
X78302Y5938D01*
X78260Y5957D01*
X78215Y5976D01*
X78170Y5988D01*
X78120Y5997D01*
X78069Y6000D01*
D02*
G37*
G36*
X84419Y83138D02*
X84407D01*
X84393Y83136D01*
X84374D01*
X84353Y83131D01*
X84325Y83126D01*
X84297Y83119D01*
X84263Y83110D01*
X84228Y83098D01*
X84193Y83084D01*
X84157Y83067D01*
X84119Y83046D01*
X84082Y83020D01*
X84044Y82992D01*
X84009Y82956D01*
X83973Y82919D01*
X83971Y82916D01*
X83966Y82909D01*
X83957Y82895D01*
X83945Y82879D01*
X83933Y82855D01*
X83917Y82824D01*
X83902Y82791D01*
X83886Y82751D01*
X83869Y82706D01*
X83853Y82657D01*
X83836Y82600D01*
X83824Y82536D01*
X83813Y82470D01*
X83803Y82397D01*
X83799Y82317D01*
X83796Y82232D01*
Y82230D01*
Y82227D01*
Y82220D01*
Y82213D01*
X83799Y82189D01*
Y82159D01*
X83803Y82121D01*
X83806Y82076D01*
X83813Y82029D01*
X83820Y81977D01*
X83829Y81923D01*
X83843Y81868D01*
X83858Y81812D01*
X83876Y81755D01*
X83898Y81701D01*
X83924Y81649D01*
X83954Y81599D01*
X83987Y81555D01*
X83990Y81552D01*
X83997Y81545D01*
X84006Y81533D01*
X84020Y81519D01*
X84039Y81503D01*
X84061Y81484D01*
X84087Y81463D01*
X84115Y81444D01*
X84148Y81422D01*
X84181Y81401D01*
X84219Y81382D01*
X84259Y81366D01*
X84301Y81352D01*
X84344Y81340D01*
X84391Y81333D01*
X84438Y81330D01*
X84450D01*
X84464Y81333D01*
X84483D01*
X84504Y81337D01*
X84530Y81342D01*
X84561Y81349D01*
X84592Y81356D01*
X84627Y81368D01*
X84662Y81382D01*
X84700Y81399D01*
X84738Y81420D01*
X84776Y81444D01*
X84813Y81472D01*
X84849Y81505D01*
X84884Y81543D01*
X84886Y81545D01*
X84891Y81552D01*
X84901Y81566D01*
X84913Y81583D01*
X84927Y81607D01*
X84943Y81635D01*
X84960Y81668D01*
X84976Y81706D01*
X84993Y81748D01*
X85009Y81798D01*
X85026Y81852D01*
X85040Y81911D01*
X85052Y81975D01*
X85061Y82043D01*
X85066Y82119D01*
X85068Y82199D01*
Y82201D01*
Y82204D01*
Y82211D01*
Y82220D01*
Y82246D01*
X85066Y82279D01*
X85063Y82319D01*
X85059Y82364D01*
X85052Y82414D01*
X85045Y82470D01*
X85035Y82527D01*
X85023Y82586D01*
X85007Y82645D01*
X84988Y82704D01*
X84967Y82761D01*
X84941Y82815D01*
X84913Y82864D01*
X84879Y82909D01*
X84877Y82912D01*
X84870Y82919D01*
X84861Y82930D01*
X84846Y82945D01*
X84828Y82964D01*
X84806Y82982D01*
X84780Y83001D01*
X84752Y83025D01*
X84721Y83046D01*
X84686Y83065D01*
X84648Y83086D01*
X84606Y83103D01*
X84563Y83117D01*
X84518Y83129D01*
X84469Y83136D01*
X84419Y83138D01*
D02*
G37*
G36*
X70254Y83976D02*
Y83971D01*
X70252Y83962D01*
X70247Y83945D01*
X70243Y83922D01*
X70236Y83893D01*
X70229Y83860D01*
X70219Y83823D01*
X70210Y83780D01*
X70196Y83733D01*
X70184Y83683D01*
X70170Y83634D01*
X70153Y83579D01*
X70118Y83466D01*
X70078Y83351D01*
X69719Y82392D01*
X70828D01*
X70486Y83296D01*
Y83299D01*
X70483Y83301D01*
X70479Y83315D01*
X70472Y83336D01*
X70460Y83365D01*
X70448Y83400D01*
X70432Y83440D01*
X70417Y83487D01*
X70398Y83537D01*
X70380Y83589D01*
X70361Y83643D01*
X70323Y83757D01*
X70285Y83870D01*
X70269Y83924D01*
X70254Y83976D01*
D02*
G37*
G36*
X67312Y83957D02*
X66280D01*
Y82879D01*
X67257D01*
X67281Y82881D01*
X67312D01*
X67342Y82883D01*
X67378Y82886D01*
X67451Y82893D01*
X67529Y82904D01*
X67604Y82919D01*
X67637Y82928D01*
X67670Y82938D01*
X67673D01*
X67677Y82940D01*
X67687Y82945D01*
X67699Y82949D01*
X67713Y82956D01*
X67727Y82964D01*
X67765Y82985D01*
X67807Y83013D01*
X67850Y83046D01*
X67890Y83086D01*
X67925Y83133D01*
Y83136D01*
X67930Y83140D01*
X67932Y83148D01*
X67939Y83157D01*
X67946Y83169D01*
X67953Y83185D01*
X67970Y83221D01*
X67984Y83263D01*
X67998Y83313D01*
X68008Y83367D01*
X68012Y83426D01*
Y83428D01*
Y83435D01*
Y83447D01*
X68010Y83464D01*
X68008Y83485D01*
X68003Y83506D01*
X67998Y83532D01*
X67991Y83561D01*
X67982Y83589D01*
X67970Y83620D01*
X67958Y83653D01*
X67942Y83683D01*
X67921Y83716D01*
X67899Y83747D01*
X67873Y83778D01*
X67843Y83806D01*
X67840Y83808D01*
X67835Y83813D01*
X67824Y83820D01*
X67812Y83830D01*
X67793Y83841D01*
X67769Y83853D01*
X67743Y83867D01*
X67713Y83882D01*
X67680Y83896D01*
X67640Y83910D01*
X67595Y83922D01*
X67548Y83934D01*
X67496Y83943D01*
X67439Y83950D01*
X67378Y83955D01*
X67312Y83957D01*
D02*
G37*
G36*
X90591Y83140D02*
X90565D01*
X90546Y83138D01*
X90520Y83136D01*
X90494Y83131D01*
X90463Y83124D01*
X90430Y83117D01*
X90392Y83108D01*
X90357Y83096D01*
X90317Y83079D01*
X90279Y83063D01*
X90239Y83041D01*
X90199Y83015D01*
X90161Y82987D01*
X90126Y82954D01*
X90123Y82952D01*
X90119Y82945D01*
X90109Y82935D01*
X90095Y82921D01*
X90081Y82902D01*
X90064Y82879D01*
X90048Y82853D01*
X90029Y82824D01*
X90010Y82791D01*
X89991Y82753D01*
X89975Y82713D01*
X89958Y82669D01*
X89944Y82624D01*
X89932Y82572D01*
X89923Y82520D01*
X89918Y82463D01*
X91242D01*
Y82466D01*
X91240Y82477D01*
Y82491D01*
X91235Y82513D01*
X91233Y82536D01*
X91225Y82565D01*
X91221Y82598D01*
X91211Y82631D01*
X91192Y82704D01*
X91167Y82777D01*
X91131Y82848D01*
X91110Y82881D01*
X91089Y82909D01*
X91086Y82912D01*
X91079Y82919D01*
X91070Y82930D01*
X91053Y82945D01*
X91034Y82964D01*
X91013Y82982D01*
X90985Y83004D01*
X90954Y83025D01*
X90921Y83046D01*
X90883Y83067D01*
X90843Y83086D01*
X90798Y83105D01*
X90751Y83119D01*
X90699Y83131D01*
X90647Y83138D01*
X90591Y83140D01*
D02*
G37*
G36*
X81951Y83138D02*
X81937D01*
X81922Y83136D01*
X81901D01*
X81875Y83131D01*
X81845Y83126D01*
X81811Y83119D01*
X81776Y83110D01*
X81738Y83098D01*
X81698Y83084D01*
X81656Y83065D01*
X81613Y83044D01*
X81573Y83018D01*
X81531Y82987D01*
X81490Y82952D01*
X81453Y82912D01*
X81450Y82909D01*
X81443Y82902D01*
X81434Y82888D01*
X81422Y82869D01*
X81408Y82845D01*
X81391Y82817D01*
X81372Y82782D01*
X81356Y82744D01*
X81337Y82697D01*
X81318Y82647D01*
X81302Y82593D01*
X81287Y82532D01*
X81276Y82466D01*
X81266Y82392D01*
X81259Y82317D01*
X81257Y82234D01*
Y82232D01*
Y82230D01*
Y82222D01*
Y82215D01*
X81259Y82192D01*
Y82161D01*
X81264Y82123D01*
X81266Y82078D01*
X81273Y82031D01*
X81280Y81979D01*
X81292Y81925D01*
X81304Y81868D01*
X81321Y81812D01*
X81339Y81758D01*
X81363Y81701D01*
X81389Y81649D01*
X81417Y81599D01*
X81453Y81555D01*
X81455Y81552D01*
X81462Y81545D01*
X81474Y81533D01*
X81488Y81519D01*
X81507Y81503D01*
X81531Y81484D01*
X81559Y81463D01*
X81590Y81444D01*
X81623Y81422D01*
X81660Y81401D01*
X81703Y81382D01*
X81745Y81366D01*
X81793Y81352D01*
X81845Y81340D01*
X81896Y81333D01*
X81951Y81330D01*
X81965D01*
X81979Y81333D01*
X82000Y81335D01*
X82026Y81337D01*
X82057Y81342D01*
X82090Y81349D01*
X82125Y81359D01*
X82163Y81371D01*
X82203Y81385D01*
X82246Y81404D01*
X82288Y81427D01*
X82328Y81453D01*
X82371Y81481D01*
X82411Y81517D01*
X82449Y81557D01*
X82451Y81559D01*
X82458Y81569D01*
X82468Y81581D01*
X82479Y81599D01*
X82496Y81623D01*
X82512Y81654D01*
X82529Y81689D01*
X82548Y81729D01*
X82567Y81774D01*
X82583Y81826D01*
X82602Y81883D01*
X82616Y81944D01*
X82628Y82012D01*
X82637Y82086D01*
X82644Y82164D01*
X82647Y82248D01*
Y82251D01*
Y82253D01*
Y82267D01*
X82644Y82291D01*
Y82319D01*
X82640Y82357D01*
X82637Y82399D01*
X82630Y82444D01*
X82621Y82496D01*
X82612Y82548D01*
X82597Y82602D01*
X82581Y82657D01*
X82562Y82713D01*
X82538Y82765D01*
X82512Y82817D01*
X82482Y82867D01*
X82446Y82912D01*
X82444Y82914D01*
X82437Y82921D01*
X82425Y82933D01*
X82411Y82947D01*
X82392Y82964D01*
X82368Y82982D01*
X82340Y83004D01*
X82309Y83025D01*
X82276Y83046D01*
X82239Y83067D01*
X82199Y83086D01*
X82154Y83103D01*
X82106Y83117D01*
X82057Y83129D01*
X82005Y83136D01*
X81951Y83138D01*
D02*
G37*
G36*
X64648Y87641D02*
X64637D01*
X64622Y87638D01*
X64604D01*
X64582Y87633D01*
X64556Y87629D01*
X64526Y87622D01*
X64493Y87612D01*
X64460Y87600D01*
X64422Y87584D01*
X64384Y87567D01*
X64346Y87544D01*
X64309Y87518D01*
X64271Y87487D01*
X64233Y87452D01*
X64195Y87412D01*
X64193Y87409D01*
X64188Y87402D01*
X64179Y87388D01*
X64167Y87369D01*
X64151Y87345D01*
X64136Y87317D01*
X64117Y87282D01*
X64101Y87244D01*
X64084Y87199D01*
X64065Y87150D01*
X64051Y87095D01*
X64037Y87036D01*
X64023Y86973D01*
X64014Y86904D01*
X64009Y86831D01*
X64007Y86753D01*
Y86748D01*
Y86734D01*
Y86713D01*
X64009Y86685D01*
Y86649D01*
X64014Y86609D01*
X64016Y86564D01*
X64021Y86517D01*
X64035Y86416D01*
X64054Y86314D01*
X64068Y86265D01*
X64082Y86220D01*
X64101Y86175D01*
X64120Y86137D01*
X64122Y86135D01*
X64129Y86123D01*
X64139Y86109D01*
X64155Y86090D01*
X64174Y86066D01*
X64198Y86040D01*
X64224Y86012D01*
X64254Y85984D01*
X64290Y85956D01*
X64328Y85927D01*
X64370Y85901D01*
X64415Y85878D01*
X64464Y85859D01*
X64516Y85845D01*
X64573Y85833D01*
X64632Y85830D01*
X64644D01*
X64658Y85833D01*
X64677Y85835D01*
X64698Y85838D01*
X64724Y85842D01*
X64755Y85849D01*
X64788Y85859D01*
X64821Y85870D01*
X64859Y85885D01*
X64896Y85904D01*
X64934Y85927D01*
X64972Y85953D01*
X65012Y85981D01*
X65050Y86017D01*
X65085Y86057D01*
X65087Y86059D01*
X65095Y86069D01*
X65104Y86081D01*
X65116Y86099D01*
X65130Y86123D01*
X65146Y86154D01*
X65163Y86187D01*
X65182Y86227D01*
X65198Y86274D01*
X65215Y86324D01*
X65231Y86380D01*
X65245Y86439D01*
X65260Y86508D01*
X65269Y86579D01*
X65274Y86654D01*
X65276Y86737D01*
Y86739D01*
Y86741D01*
Y86748D01*
Y86758D01*
Y86782D01*
X65274Y86812D01*
X65272Y86850D01*
X65267Y86895D01*
X65260Y86944D01*
X65253Y86996D01*
X65243Y87050D01*
X65231Y87107D01*
X65217Y87164D01*
X65198Y87220D01*
X65177Y87275D01*
X65153Y87327D01*
X65125Y87374D01*
X65092Y87419D01*
X65090Y87421D01*
X65083Y87428D01*
X65073Y87440D01*
X65059Y87454D01*
X65043Y87471D01*
X65021Y87489D01*
X64995Y87508D01*
X64967Y87530D01*
X64936Y87551D01*
X64903Y87570D01*
X64866Y87589D01*
X64828Y87605D01*
X64785Y87619D01*
X64743Y87631D01*
X64696Y87638D01*
X64648Y87641D01*
D02*
G37*
G36*
X92420Y89101D02*
X91235Y87398D01*
X92420D01*
Y89101D01*
D02*
G37*
G36*
X91817Y6973D02*
X91792D01*
X91773Y6970D01*
X91751Y6967D01*
X91724Y6964D01*
X91694Y6959D01*
X91664Y6951D01*
X91593Y6932D01*
X91557Y6918D01*
X91519Y6899D01*
X91483Y6880D01*
X91445Y6858D01*
X91410Y6831D01*
X91377Y6801D01*
X91374Y6798D01*
X91369Y6792D01*
X91361Y6784D01*
X91350Y6770D01*
X91336Y6754D01*
X91322Y6735D01*
X91306Y6713D01*
X91292Y6686D01*
X91276Y6659D01*
X91260Y6629D01*
X91232Y6558D01*
X91221Y6522D01*
X91213Y6481D01*
X91208Y6440D01*
X91205Y6397D01*
Y6394D01*
Y6386D01*
Y6372D01*
X91208Y6353D01*
X91211Y6328D01*
X91213Y6304D01*
X91219Y6274D01*
X91227Y6241D01*
X91246Y6173D01*
X91260Y6137D01*
X91276Y6099D01*
X91295Y6064D01*
X91320Y6028D01*
X91344Y5993D01*
X91374Y5960D01*
X91377Y5957D01*
X91382Y5951D01*
X91393Y5943D01*
X91404Y5932D01*
X91423Y5922D01*
X91443Y5905D01*
X91467Y5892D01*
X91494Y5875D01*
X91524Y5859D01*
X91560Y5845D01*
X91595Y5829D01*
X91636Y5818D01*
X91677Y5807D01*
X91724Y5799D01*
X91773Y5793D01*
X91822Y5790D01*
X91847D01*
X91866Y5793D01*
X91890Y5796D01*
X91915Y5799D01*
X91945Y5804D01*
X91978Y5812D01*
X92046Y5831D01*
X92081Y5845D01*
X92120Y5861D01*
X92155Y5881D01*
X92190Y5902D01*
X92226Y5927D01*
X92259Y5957D01*
X92261Y5960D01*
X92267Y5965D01*
X92275Y5973D01*
X92286Y5987D01*
X92300Y6003D01*
X92313Y6022D01*
X92330Y6047D01*
X92346Y6072D01*
X92360Y6102D01*
X92376Y6132D01*
X92404Y6203D01*
X92414Y6241D01*
X92423Y6282D01*
X92428Y6325D01*
X92431Y6369D01*
Y6372D01*
Y6380D01*
Y6394D01*
X92428Y6413D01*
X92425Y6435D01*
X92423Y6459D01*
X92417Y6487D01*
X92409Y6519D01*
X92387Y6585D01*
X92374Y6620D01*
X92357Y6659D01*
X92335Y6694D01*
X92311Y6730D01*
X92283Y6765D01*
X92253Y6798D01*
X92251Y6801D01*
X92245Y6806D01*
X92234Y6814D01*
X92223Y6825D01*
X92204Y6839D01*
X92185Y6852D01*
X92160Y6869D01*
X92133Y6885D01*
X92103Y6902D01*
X92070Y6918D01*
X92035Y6932D01*
X91997Y6945D01*
X91953Y6956D01*
X91909Y6964D01*
X91866Y6970D01*
X91817Y6973D01*
D02*
G37*
G36*
X91806Y5411D02*
X91773D01*
X91751Y5408D01*
X91724Y5406D01*
X91691Y5400D01*
X91655Y5392D01*
X91615Y5384D01*
X91574Y5373D01*
X91530Y5359D01*
X91486Y5340D01*
X91440Y5318D01*
X91393Y5294D01*
X91350Y5264D01*
X91306Y5231D01*
X91265Y5193D01*
X91262Y5190D01*
X91257Y5182D01*
X91246Y5171D01*
X91232Y5154D01*
X91216Y5133D01*
X91197Y5108D01*
X91178Y5078D01*
X91159Y5045D01*
X91140Y5007D01*
X91120Y4966D01*
X91101Y4922D01*
X91085Y4873D01*
X91071Y4821D01*
X91060Y4769D01*
X91055Y4712D01*
X91052Y4652D01*
Y4649D01*
Y4644D01*
Y4633D01*
X91055Y4619D01*
Y4600D01*
X91058Y4581D01*
X91060Y4557D01*
X91063Y4532D01*
X91074Y4472D01*
X91090Y4409D01*
X91115Y4341D01*
X91145Y4270D01*
Y4267D01*
X91150Y4262D01*
X91156Y4253D01*
X91161Y4240D01*
X91172Y4223D01*
X91183Y4207D01*
X91216Y4163D01*
X91254Y4120D01*
X91301Y4071D01*
X91358Y4024D01*
X91423Y3983D01*
X91426D01*
X91432Y3978D01*
X91443Y3975D01*
X91456Y3967D01*
X91473Y3959D01*
X91494Y3951D01*
X91516Y3942D01*
X91544Y3934D01*
X91604Y3915D01*
X91669Y3899D01*
X91743Y3888D01*
X91822Y3882D01*
X91836D01*
X91855Y3885D01*
X91877D01*
X91907Y3888D01*
X91939Y3893D01*
X91975Y3901D01*
X92016Y3909D01*
X92057Y3920D01*
X92103Y3934D01*
X92147Y3951D01*
X92193Y3972D01*
X92240Y3997D01*
X92286Y4024D01*
X92330Y4057D01*
X92371Y4095D01*
X92374Y4098D01*
X92379Y4106D01*
X92390Y4117D01*
X92404Y4133D01*
X92420Y4155D01*
X92439Y4180D01*
X92458Y4210D01*
X92480Y4243D01*
X92499Y4281D01*
X92518Y4322D01*
X92537Y4365D01*
X92554Y4414D01*
X92567Y4466D01*
X92578Y4521D01*
X92584Y4578D01*
X92586Y4638D01*
Y4641D01*
Y4652D01*
X92584Y4671D01*
Y4693D01*
X92581Y4723D01*
X92576Y4756D01*
X92567Y4791D01*
X92559Y4832D01*
X92545Y4876D01*
X92532Y4920D01*
X92513Y4966D01*
X92491Y5012D01*
X92466Y5059D01*
X92436Y5102D01*
X92401Y5149D01*
X92362Y5190D01*
X92360Y5193D01*
X92352Y5201D01*
X92341Y5212D01*
X92322Y5225D01*
X92300Y5242D01*
X92275Y5261D01*
X92245Y5280D01*
X92210Y5302D01*
X92171Y5321D01*
X92131Y5340D01*
X92084Y5359D01*
X92035Y5376D01*
X91983Y5392D01*
X91926Y5403D01*
X91868Y5408D01*
X91806Y5411D01*
D02*
G37*
%LPD*%
D11*
X21233Y61221D02*
X21534Y61523D01*
X20223Y60650D02*
X20795Y61221D01*
X21233D01*
X16059Y60650D02*
X20223D01*
X16059Y58484D02*
X25984D01*
X28000Y60500D01*
X16059Y54350D02*
X25319D01*
X5350D02*
X10941D01*
X4484Y58484D02*
X10941D01*
X7350Y60650D02*
X10941D01*
X40071Y10071D02*
Y15593D01*
X40142Y15663D01*
X40000Y10000D02*
X40071Y10071D01*
X51953Y56453D02*
Y67337D01*
X25000Y25000D02*
Y29500D01*
X51953Y56453D01*
X48016Y58516D02*
Y67337D01*
X23000Y25500D02*
Y33500D01*
X48016Y58516D01*
X42968Y76000D02*
Y78469D01*
X46000Y81500D01*
X40468Y73500D02*
X42968Y76000D01*
X34000Y73500D02*
X40468D01*
X29500Y69000D02*
X34000Y73500D01*
X36261Y70761D02*
X37500Y72000D01*
X72000D01*
X85000Y59000D01*
X36261Y67393D02*
Y70761D01*
X36205Y67337D02*
X36261Y67393D01*
X29500Y62468D02*
Y69000D01*
X28000Y60500D02*
X32000D01*
X34236Y62736D01*
Y67337D01*
X29480Y58531D02*
X29500D01*
X38173Y67337D02*
X38286Y67450D01*
X29500Y58531D02*
X34032D01*
X73516Y74984D02*
X82366D01*
X73500Y75000D02*
X73516Y74984D01*
X82366D02*
X82382Y74968D01*
X76036Y72367D02*
X76462D01*
X77096Y73000D01*
X82382D01*
X34032Y58531D02*
X38173Y62673D01*
X25319Y54350D02*
X29500Y58531D01*
X57858Y51142D02*
Y67337D01*
Y51142D02*
X60500Y48500D01*
X59827Y53099D02*
X60500Y52426D01*
Y52000D02*
Y52426D01*
X59827Y53099D02*
Y67337D01*
X61810Y54690D02*
X64500Y52000D01*
X61810Y54690D02*
Y67322D01*
X46047Y60047D02*
Y67337D01*
X21850Y35850D02*
X46047Y60047D01*
X29000Y28500D02*
X55890Y55390D01*
X27000Y29000D02*
X53921Y55921D01*
X27000Y24500D02*
Y29000D01*
X55890Y55390D02*
Y67337D01*
X29000Y24000D02*
Y28500D01*
X53921Y55921D02*
Y67337D01*
X38173Y62673D02*
Y67337D01*
X78726Y17317D02*
X82199D01*
X78553Y17491D02*
X78726Y17317D01*
X63764Y56749D02*
Y67337D01*
Y56749D02*
X64199Y56314D01*
Y55801D02*
X64500Y55500D01*
X64199Y55801D02*
Y56314D01*
X85000Y56000D02*
Y59000D01*
X84000Y55000D02*
X85000Y56000D01*
X82413Y55000D02*
X84000D01*
X82382Y54969D02*
X82413Y55000D01*
X0Y61260D02*
X6740D01*
X7350Y60650D01*
X78500Y70000D02*
X78890D01*
X79724Y70835D01*
X82382D01*
X42000Y24500D02*
X46047Y20453D01*
X48500Y24500D02*
X51953Y21047D01*
Y15663D02*
Y21047D01*
X45500Y24500D02*
X48500D01*
X11468Y76500D02*
X14000D01*
X11468Y81500D02*
X14000D01*
X38173Y24673D02*
X41000Y27500D01*
X54500D01*
X40000Y31500D02*
X53500D01*
X34236Y25736D02*
X40000Y31500D01*
X36205Y15663D02*
Y25205D01*
X40500Y29500D01*
X34236Y15663D02*
Y25736D01*
X38173Y15663D02*
Y24673D01*
X40500Y29500D02*
X54000D01*
X46047Y15663D02*
Y20453D01*
X54500Y27500D02*
X77835Y50835D01*
X54000Y29500D02*
X77500Y53000D01*
X53500Y31500D02*
X79134Y57134D01*
X42055Y15719D02*
X42110Y15663D01*
X42000Y20500D02*
X42055Y20445D01*
Y15719D02*
Y20445D01*
X77000Y44500D02*
X81500D01*
X55890Y23390D02*
X77000Y44500D01*
X55890Y15663D02*
Y23390D01*
X77500Y47500D02*
X79000D01*
X53921Y23921D02*
X77500Y47500D01*
X53921Y15663D02*
Y23921D01*
X79134Y57134D02*
X82382D01*
X77500Y53000D02*
X82382D01*
X77835Y50835D02*
X82382D01*
X57858Y22358D02*
X72634Y37134D01*
X82382D01*
X72969Y34969D02*
X82382D01*
X73500Y33000D02*
X82382D01*
X61795Y21295D02*
X73500Y33000D01*
X59827Y21827D02*
X72969Y34969D01*
X57858Y15663D02*
Y22358D01*
X59827Y15663D02*
Y21827D01*
X61795Y15663D02*
Y21295D01*
X63764Y15663D02*
Y20764D01*
X73835Y30835D02*
X82382D01*
X63764Y20764D02*
X73835Y30835D01*
X20850Y15850D02*
X29000Y24000D01*
X16059Y15850D02*
X20850D01*
X19984Y19984D02*
X25000Y25000D01*
X20516Y18016D02*
X27000Y24500D01*
X16059Y18016D02*
X20516D01*
X16059Y19984D02*
X19984D01*
X19650Y22150D02*
X23000Y25500D01*
X16059Y22150D02*
X19650D01*
X16059Y35850D02*
X21850D01*
X21516Y38016D02*
X44079Y60579D01*
X16059Y38016D02*
X21516D01*
X16059Y39984D02*
X20984D01*
X42110Y61110D01*
X20650Y42150D02*
X40142Y61642D01*
X16059Y42150D02*
X20650D01*
X44079Y60579D02*
Y67337D01*
X42110Y61110D02*
Y67337D01*
X40142Y61642D02*
Y67337D01*
X61795D02*
X61810Y67322D01*
X82128Y10581D02*
X82382Y10835D01*
X75500Y10500D02*
X75581Y10581D01*
X82128D01*
X82199Y17317D02*
X82382Y17134D01*
X78500Y13000D02*
X82382D01*
X75500Y15500D02*
X75933Y15067D01*
X82284D01*
X82382Y14968D01*
X87500Y74968D02*
X94590D01*
X95866Y76244D01*
X98441D01*
X97474Y72211D02*
X98441Y71244D01*
X94957Y72211D02*
X97474D01*
X94957D02*
Y72454D01*
X94411Y73000D02*
X94957Y72454D01*
X87500Y73000D02*
X94411D01*
X95924Y66244D02*
X98441D01*
X87500Y70835D02*
X91333D01*
X95924Y66244D01*
X87500Y54969D02*
X94590D01*
X95866Y56244D01*
X98441D01*
X97474Y52211D02*
X98441Y51244D01*
X94957Y52211D02*
X97474D01*
X94957D02*
Y52454D01*
X94411Y53000D02*
X94957Y52454D01*
X87500Y53000D02*
X94411D01*
X95924Y46244D02*
X98441D01*
X87500Y50835D02*
X91333D01*
X95924Y46244D01*
X87500Y57134D02*
X91969D01*
X96079Y61244D02*
X98441D01*
X91969Y57134D02*
X96079Y61244D01*
X87500Y34969D02*
X94590D01*
X95866Y36244D01*
X98441D01*
X97474Y32211D02*
X98441Y31244D01*
X94957Y32211D02*
X97474D01*
X94957D02*
Y32454D01*
X94411Y33000D02*
X94957Y32454D01*
X87500Y33000D02*
X94411D01*
X95924Y26244D02*
X98441D01*
X87500Y30835D02*
X91333D01*
X95924Y26244D01*
X87500Y37134D02*
X91969D01*
X96079Y41244D02*
X98441D01*
X91969Y37134D02*
X96079Y41244D01*
X87500Y14968D02*
X94590D01*
X95866Y16244D01*
X98441D01*
X97474Y12211D02*
X98441Y11244D01*
X94957Y12211D02*
X97474D01*
X94957D02*
Y12454D01*
X94411Y13000D02*
X94957Y12454D01*
X87500Y13000D02*
X94411D01*
X95924Y6244D02*
X98441D01*
X87500Y10835D02*
X91333D01*
X95924Y6244D01*
X87500Y17134D02*
X91969D01*
X96079Y21244D02*
X98441D01*
X91969Y17134D02*
X96079Y21244D01*
X3851Y19984D02*
X10941D01*
X2575Y21260D02*
X3851Y19984D01*
X0Y21260D02*
X2575D01*
X0Y16260D02*
X967Y17227D01*
X3484D01*
Y17470D01*
X4030Y18016D01*
X10941D01*
X0Y11260D02*
X2517D01*
X7108Y15850D02*
X10941D01*
X2517Y11260D02*
X7108Y15850D01*
X6472Y22150D02*
X10941D01*
X0Y26260D02*
X2362D01*
X6472Y22150D01*
X2362Y46260D02*
X6472Y42150D01*
X0Y46260D02*
X2362D01*
X6472Y42150D02*
X10941D01*
X2517Y31260D02*
X7108Y35850D01*
X10941D01*
X0Y31260D02*
X2517D01*
X4030Y38016D02*
X10941D01*
X3484Y37470D02*
X4030Y38016D01*
X3484Y37227D02*
Y37470D01*
X967Y37227D02*
X3484D01*
X0Y36260D02*
X967Y37227D01*
X0Y41260D02*
X2575D01*
X3851Y39984D01*
X10941D01*
X3484Y57484D02*
X4484Y58484D01*
X0Y56260D02*
X967Y57227D01*
X3484D02*
Y57484D01*
X967Y57227D02*
X3484D01*
Y52484D02*
X5350Y54350D01*
X3484Y52227D02*
Y52484D01*
X967Y52227D02*
X3484D01*
X0Y51260D02*
X967Y52227D01*
X120Y76380D02*
X7411D01*
X0Y76260D02*
X120Y76380D01*
X7411D02*
X7531Y76500D01*
X120Y81380D02*
X7411D01*
X7531Y81500D01*
X0Y81260D02*
X120Y81380D01*
D12*
X27850Y83000D02*
X31000D01*
X34150Y88415D02*
X34969Y89234D01*
X34150Y84969D02*
Y88415D01*
X38547Y80500D02*
X39000Y80047D01*
X34976Y80500D02*
X38547D01*
X46000Y10000D02*
Y10066D01*
X47940Y11940D02*
Y15588D01*
X44154Y11912D02*
Y15588D01*
Y11912D02*
X46000Y10066D01*
X44079Y15663D02*
X44154Y15588D01*
X47940D02*
X48016Y15663D01*
X46000Y10000D02*
X47940Y11940D01*
X37000Y76000D02*
X39031D01*
X34969D02*
X37000D01*
X34969Y89234D02*
Y89500D01*
X34445Y81032D02*
X34976Y80500D01*
X34150Y81032D02*
X34445D01*
X27000Y86627D02*
Y87000D01*
Y86627D02*
X27545Y86082D01*
Y84978D02*
X27555Y84969D01*
X27545Y84978D02*
Y86082D01*
X27555Y84969D02*
X27850D01*
X26459Y83010D02*
X27841D01*
X27850Y83000D01*
X24500Y84969D02*
X26459Y83010D01*
X24500Y81032D02*
X24500Y81032D01*
X27850D01*
D13*
X16059Y35850D02*
D03*
Y42150D02*
D03*
X10941Y35850D02*
D03*
Y42150D02*
D03*
X16059Y15850D02*
D03*
Y22150D02*
D03*
X10941Y15850D02*
D03*
Y22150D02*
D03*
X82382Y17134D02*
D03*
Y10835D02*
D03*
X87500Y17134D02*
D03*
Y10835D02*
D03*
X82382Y37134D02*
D03*
Y30835D02*
D03*
X87500Y37134D02*
D03*
Y30835D02*
D03*
X82382Y57134D02*
D03*
Y50835D02*
D03*
X87500Y57134D02*
D03*
Y50835D02*
D03*
X82382Y77134D02*
D03*
Y70835D02*
D03*
X87500Y77134D02*
D03*
Y70835D02*
D03*
X16059Y54350D02*
D03*
Y60650D02*
D03*
X10941Y54350D02*
D03*
Y60650D02*
D03*
D14*
X16059Y38016D02*
D03*
Y39984D02*
D03*
X10941Y38016D02*
D03*
Y39984D02*
D03*
X16059Y18016D02*
D03*
Y19984D02*
D03*
X10941Y18016D02*
D03*
Y19984D02*
D03*
X82382Y14968D02*
D03*
Y13000D02*
D03*
X87500Y14968D02*
D03*
Y13000D02*
D03*
X82382Y34969D02*
D03*
Y33000D02*
D03*
X87500Y34969D02*
D03*
Y33000D02*
D03*
X82382Y54969D02*
D03*
Y53000D02*
D03*
X87500Y54969D02*
D03*
Y53000D02*
D03*
X82382Y74968D02*
D03*
Y73000D02*
D03*
X87500Y74968D02*
D03*
Y73000D02*
D03*
X16059Y56516D02*
D03*
Y58484D02*
D03*
X10941Y56516D02*
D03*
Y58484D02*
D03*
D15*
X7531Y81500D02*
D03*
X11468D02*
D03*
X46000Y10000D02*
D03*
Y6063D02*
D03*
X7531Y76500D02*
D03*
X11468D02*
D03*
X29500Y62468D02*
D03*
Y58531D02*
D03*
X42968Y76000D02*
D03*
X39031D02*
D03*
X31032D02*
D03*
X34969D02*
D03*
X24500Y81032D02*
D03*
Y84969D02*
D03*
X34969Y89500D02*
D03*
X31032D02*
D03*
D16*
X2500Y12000D02*
D03*
X95500Y6500D02*
D03*
X2500Y17000D02*
D03*
X96000Y11500D02*
D03*
X2500Y22000D02*
D03*
X96000Y16500D02*
D03*
X2500Y27000D02*
D03*
X96000Y21500D02*
D03*
X2500Y32000D02*
D03*
X96000Y26500D02*
D03*
X2500Y37000D02*
D03*
X95500Y31500D02*
D03*
X2500Y42000D02*
D03*
X96000Y36500D02*
D03*
X2500Y47000D02*
D03*
X96000Y41500D02*
D03*
Y46500D02*
D03*
Y51500D02*
D03*
Y56500D02*
D03*
Y61500D02*
D03*
Y66500D02*
D03*
Y71500D02*
D03*
Y76500D02*
D03*
X2500Y82000D02*
D03*
Y77000D02*
D03*
Y52000D02*
D03*
Y57000D02*
D03*
Y62000D02*
D03*
Y67000D02*
D03*
Y7000D02*
D03*
D17*
X63764Y67337D02*
D03*
X61795D02*
D03*
X59827D02*
D03*
X57858D02*
D03*
X55890D02*
D03*
X53921D02*
D03*
X51953D02*
D03*
X49984D02*
D03*
X48016D02*
D03*
X46047D02*
D03*
X44079D02*
D03*
X42110D02*
D03*
X40142D02*
D03*
X38173D02*
D03*
X36205D02*
D03*
X34236D02*
D03*
X63764Y15663D02*
D03*
X61795D02*
D03*
X59827D02*
D03*
X57858D02*
D03*
X55890D02*
D03*
X53921D02*
D03*
X51953D02*
D03*
X49984D02*
D03*
X48016D02*
D03*
X46047D02*
D03*
X44079D02*
D03*
X42110D02*
D03*
X40142D02*
D03*
X38173D02*
D03*
X36205D02*
D03*
X34236D02*
D03*
D18*
X27850Y84969D02*
D03*
Y83000D02*
D03*
Y81032D02*
D03*
X34150D02*
D03*
Y83000D02*
D03*
Y84969D02*
D03*
D19*
X31000Y83000D02*
D03*
D22*
X21534Y61523D02*
D03*
X31000Y87201D02*
D03*
X40000Y10000D02*
D03*
X48500Y56000D02*
D03*
Y8000D02*
D03*
X73500Y75000D02*
D03*
X76036Y72367D02*
D03*
X60500Y48500D02*
D03*
Y52000D02*
D03*
X64500D02*
D03*
X78553Y17491D02*
D03*
X64500Y55500D02*
D03*
X54500Y81500D02*
D03*
X78500Y70000D02*
D03*
X46000Y81500D02*
D03*
X39000Y88512D02*
D03*
X42000Y24500D02*
D03*
X45445Y24555D02*
D03*
X14000Y76500D02*
D03*
Y81500D02*
D03*
X46000Y10000D02*
D03*
X42000Y20500D02*
D03*
X81500Y44500D02*
D03*
X79000Y47500D02*
D03*
X75500Y10500D02*
D03*
Y15500D02*
D03*
X78500Y13000D02*
D03*
X37000Y76000D02*
D03*
X36000Y83000D02*
D03*
X31000Y78659D02*
D03*
X27000Y87000D02*
D03*
X20000Y77000D02*
D03*
D30*
X46000Y81500D02*
D03*
X54500D02*
D03*
D31*
X20000Y80047D02*
D03*
Y85953D02*
D03*
X39000D02*
D03*
Y80047D02*
D03*
D32*
X31000Y83000D02*
Y87201D01*
X3152Y5425D02*
X3790Y6063D01*
X1013Y6260D02*
X1848Y5425D01*
X3790Y6063D02*
X46000D01*
X1848Y5425D02*
X3152D01*
X0Y6260D02*
X1013D01*
X31000Y87201D02*
Y89468D01*
Y78659D02*
Y83000D01*
Y77567D02*
Y78659D01*
X46213Y6063D02*
X47924Y7774D01*
X19803Y85953D02*
X20000D01*
X21325Y81032D02*
X24500D01*
X20000Y80047D02*
X20341D01*
X21325Y81032D01*
X2500Y66260D02*
X9260D01*
X19925Y76925D01*
X0Y66260D02*
X2500D01*
X40650Y81500D02*
X46000D01*
X39591Y80441D02*
X40650Y81500D01*
X39000Y80047D02*
X39394Y80441D01*
X39591D01*
X31000Y77567D02*
X31032Y77535D01*
Y76000D02*
Y77535D01*
X31000Y89468D02*
X31032Y89500D01*
X20000Y85953D02*
X20287D01*
X21272Y84969D01*
X24500D01*
X20000Y77000D02*
Y80047D01*
D33*
X48500Y56000D02*
Y56320D01*
X49984Y57804D01*
Y67337D01*
X48274Y7774D02*
X48500Y8000D01*
X46000Y6063D02*
X46213D01*
X47924Y7774D02*
X48274D01*
X39000Y85953D02*
Y88512D01*
D34*
X0Y61260D02*
D03*
Y81260D02*
D03*
Y66260D02*
D03*
Y76260D02*
D03*
Y71260D02*
D03*
Y86260D02*
D03*
Y56260D02*
D03*
Y51260D02*
D03*
Y16260D02*
D03*
Y21260D02*
D03*
Y46260D02*
D03*
Y41260D02*
D03*
Y31260D02*
D03*
Y36260D02*
D03*
Y6260D02*
D03*
Y11260D02*
D03*
Y26260D02*
D03*
X98425Y6260D02*
D03*
Y11260D02*
D03*
Y16260D02*
D03*
Y21260D02*
D03*
Y26260D02*
D03*
Y31260D02*
D03*
Y36260D02*
D03*
Y41260D02*
D03*
Y46260D02*
D03*
Y51260D02*
D03*
Y56260D02*
D03*
Y61260D02*
D03*
Y66260D02*
D03*
Y71260D02*
D03*
Y76260D02*
D03*
Y81260D02*
D03*
Y86260D02*
D03*
M02*
