G04*
G04 #@! TF.GenerationSoftware,Altium Limited,Altium Designer,26.7.1 (11)*
G04*
G04 Layer_Color=8421504*
G04 Board_Origin=283254961|169887245*
%FSLAX25Y25*%
%MOIN*%
G70*
G04*
G04 #@! TF.SameCoordinates,EF0A1A49-9E27-4F19-A3BC-71090C91D45F*
G04*
G04*
G04 #@! TF.FilePolarity,Positive*
G04*
G01*
G75*
%ADD13R,0.02953X0.01378*%
%ADD14R,0.02953X0.01181*%
%ADD15C,0.01968*%
%ADD16C,0.01181*%
%ADD17O,0.01378X0.06201*%
%ADD18R,0.01595X0.01004*%
%ADD19R,0.01968X0.04961*%
G36*
X18425Y78866D02*
Y80047D01*
X19803Y81425D01*
X20197D01*
X21575Y80047D01*
Y78866D01*
X21378Y78669D01*
X18622D01*
X18425Y78866D01*
D02*
G37*
G36*
X21575Y87134D02*
Y85953D01*
X20197Y84575D01*
X19803D01*
X18425Y85953D01*
Y87134D01*
X18622Y87331D01*
X21378D01*
X21575Y87134D01*
D02*
G37*
G36*
X37425Y78866D02*
Y80047D01*
X38803Y81425D01*
X39197D01*
X40575Y80047D01*
Y78866D01*
X40378Y78669D01*
X37622D01*
X37425Y78866D01*
D02*
G37*
G36*
X40575Y87134D02*
Y85953D01*
X39197Y84575D01*
X38803D01*
X37425Y85953D01*
Y87134D01*
X37622Y87331D01*
X40378D01*
X40575Y87134D01*
D02*
G37*
D13*
X16059Y35850D02*
D03*
Y42150D02*
D03*
X10941Y35850D02*
D03*
Y42150D02*
D03*
X16059Y15850D02*
D03*
Y22150D02*
D03*
X10941Y15850D02*
D03*
Y22150D02*
D03*
X82382Y17134D02*
D03*
Y10835D02*
D03*
X87500Y17134D02*
D03*
Y10835D02*
D03*
X82382Y37134D02*
D03*
Y30835D02*
D03*
X87500Y37134D02*
D03*
Y30835D02*
D03*
X82382Y57134D02*
D03*
Y50835D02*
D03*
X87500Y57134D02*
D03*
Y50835D02*
D03*
X82382Y77134D02*
D03*
Y70835D02*
D03*
X87500Y77134D02*
D03*
Y70835D02*
D03*
X16059Y54350D02*
D03*
Y60650D02*
D03*
X10941Y54350D02*
D03*
Y60650D02*
D03*
D14*
X16059Y38016D02*
D03*
Y39984D02*
D03*
X10941Y38016D02*
D03*
Y39984D02*
D03*
X16059Y18016D02*
D03*
Y19984D02*
D03*
X10941Y18016D02*
D03*
Y19984D02*
D03*
X82382Y14968D02*
D03*
Y13000D02*
D03*
X87500Y14968D02*
D03*
Y13000D02*
D03*
X82382Y34969D02*
D03*
Y33000D02*
D03*
X87500Y34969D02*
D03*
Y33000D02*
D03*
X82382Y54969D02*
D03*
Y53000D02*
D03*
X87500Y54969D02*
D03*
Y53000D02*
D03*
X82382Y74968D02*
D03*
Y73000D02*
D03*
X87500Y74968D02*
D03*
Y73000D02*
D03*
X16059Y56516D02*
D03*
Y58484D02*
D03*
X10941Y56516D02*
D03*
Y58484D02*
D03*
D15*
X7531Y81500D02*
D03*
X11468D02*
D03*
X46000Y10000D02*
D03*
Y6063D02*
D03*
X7531Y76500D02*
D03*
X11468D02*
D03*
X29500Y62468D02*
D03*
Y58531D02*
D03*
X42968Y76000D02*
D03*
X39031D02*
D03*
X31032D02*
D03*
X34969D02*
D03*
X24500Y81032D02*
D03*
Y84969D02*
D03*
X34969Y89500D02*
D03*
X31032D02*
D03*
D16*
X2500Y12000D02*
D03*
X95500Y6500D02*
D03*
X2500Y17000D02*
D03*
X96000Y11500D02*
D03*
X2500Y22000D02*
D03*
X96000Y16500D02*
D03*
X2500Y27000D02*
D03*
X96000Y21500D02*
D03*
X2500Y32000D02*
D03*
X96000Y26500D02*
D03*
X2500Y37000D02*
D03*
X95500Y31500D02*
D03*
X2500Y42000D02*
D03*
X96000Y36500D02*
D03*
X2500Y47000D02*
D03*
X96000Y41500D02*
D03*
Y46500D02*
D03*
Y51500D02*
D03*
Y56500D02*
D03*
Y61500D02*
D03*
Y66500D02*
D03*
Y71500D02*
D03*
Y76500D02*
D03*
X2500Y82000D02*
D03*
Y77000D02*
D03*
Y52000D02*
D03*
Y57000D02*
D03*
Y62000D02*
D03*
Y67000D02*
D03*
Y7000D02*
D03*
D17*
X63764Y67337D02*
D03*
X61795D02*
D03*
X59827D02*
D03*
X57858D02*
D03*
X55890D02*
D03*
X53921D02*
D03*
X51953D02*
D03*
X49984D02*
D03*
X48016D02*
D03*
X46047D02*
D03*
X44079D02*
D03*
X42110D02*
D03*
X40142D02*
D03*
X38173D02*
D03*
X36205D02*
D03*
X34236D02*
D03*
X63764Y15663D02*
D03*
X61795D02*
D03*
X59827D02*
D03*
X57858D02*
D03*
X55890D02*
D03*
X53921D02*
D03*
X51953D02*
D03*
X49984D02*
D03*
X48016D02*
D03*
X46047D02*
D03*
X44079D02*
D03*
X42110D02*
D03*
X40142D02*
D03*
X38173D02*
D03*
X36205D02*
D03*
X34236D02*
D03*
D18*
X27850Y84969D02*
D03*
Y83000D02*
D03*
Y81032D02*
D03*
X34150D02*
D03*
Y83000D02*
D03*
Y84969D02*
D03*
D19*
X31000Y83000D02*
D03*
M02*
