G04*
G04 #@! TF.GenerationSoftware,Altium Limited,Altium Designer,26.7.1 (11)*
G04*
G04 Layer_Color=65535*
G04 Board_Origin=283254961|169887245*
%FSLAX25Y25*%
%MOIN*%
G70*
G04*
G04 #@! TF.SameCoordinates,EF0A1A49-9E27-4F19-A3BC-71090C91D45F*
G04*
G04*
G04 #@! TF.FilePolarity,Positive*
G04*
G01*
G75*
%ADD10C,0.00394*%
%ADD11C,0.00787*%
%ADD12C,0.00984*%
G36*
X53320Y54298D02*
X52936D01*
Y56068D01*
X51923D01*
Y54536D01*
X51539D01*
Y56068D01*
X50054D01*
Y56500D01*
X53320D01*
Y54298D01*
D02*
G37*
G36*
Y53102D02*
X51008Y52328D01*
X51003Y52325D01*
X50994Y52323D01*
X50977Y52318D01*
X50956Y52311D01*
X50928Y52302D01*
X50897Y52292D01*
X50864Y52280D01*
X50826Y52268D01*
X50748Y52242D01*
X50668Y52217D01*
X50628Y52205D01*
X50590Y52193D01*
X50557Y52181D01*
X50524Y52172D01*
X50526D01*
X50533Y52169D01*
X50543Y52165D01*
X50557Y52160D01*
X50576Y52155D01*
X50599Y52148D01*
X50625Y52139D01*
X50656Y52129D01*
X50691Y52118D01*
X50729Y52103D01*
X50772Y52089D01*
X50819Y52075D01*
X50871Y52056D01*
X50925Y52040D01*
X50984Y52018D01*
X51048Y51997D01*
X53320Y51214D01*
Y50631D01*
X50054D01*
Y51048D01*
X52787D01*
X50054Y51999D01*
Y52391D01*
X52834Y53333D01*
X50054D01*
Y53751D01*
X53320D01*
Y53102D01*
D02*
G37*
G36*
X50106Y50147D02*
X50144Y50144D01*
X50184Y50140D01*
X50231Y50133D01*
X50281Y50121D01*
X50330Y50104D01*
X50333D01*
X50340Y50100D01*
X50352Y50095D01*
X50368Y50088D01*
X50389Y50081D01*
X50413Y50069D01*
X50439Y50055D01*
X50467Y50041D01*
X50500Y50024D01*
X50533Y50003D01*
X50607Y49958D01*
X50684Y49904D01*
X50765Y49840D01*
X50767Y49838D01*
X50774Y49831D01*
X50786Y49821D01*
X50802Y49807D01*
X50824Y49788D01*
X50847Y49764D01*
X50876Y49739D01*
X50906Y49705D01*
X50942Y49670D01*
X50979Y49632D01*
X51020Y49590D01*
X51064Y49543D01*
X51109Y49491D01*
X51156Y49437D01*
X51206Y49378D01*
X51258Y49316D01*
X51260Y49314D01*
X51263Y49309D01*
X51270Y49302D01*
X51277Y49292D01*
X51289Y49281D01*
X51300Y49267D01*
X51331Y49231D01*
X51366Y49186D01*
X51411Y49139D01*
X51459Y49085D01*
X51510Y49028D01*
X51565Y48967D01*
X51621Y48908D01*
X51678Y48847D01*
X51737Y48790D01*
X51794Y48733D01*
X51848Y48684D01*
X51902Y48636D01*
X51952Y48599D01*
X51954Y48596D01*
X51964Y48592D01*
X51978Y48582D01*
X51994Y48568D01*
X52018Y48554D01*
X52044Y48540D01*
X52074Y48521D01*
X52108Y48504D01*
X52143Y48488D01*
X52181Y48469D01*
X52263Y48438D01*
X52306Y48426D01*
X52348Y48417D01*
X52391Y48412D01*
X52433Y48410D01*
X52435D01*
X52445D01*
X52457D01*
X52473Y48412D01*
X52495Y48415D01*
X52518Y48419D01*
X52544Y48424D01*
X52572Y48431D01*
X52603Y48441D01*
X52636Y48452D01*
X52669Y48467D01*
X52702Y48483D01*
X52738Y48502D01*
X52771Y48526D01*
X52804Y48551D01*
X52834Y48582D01*
X52837Y48584D01*
X52841Y48589D01*
X52849Y48599D01*
X52860Y48613D01*
X52872Y48629D01*
X52886Y48651D01*
X52903Y48674D01*
X52917Y48700D01*
X52934Y48731D01*
X52948Y48764D01*
X52962Y48802D01*
X52974Y48839D01*
X52985Y48882D01*
X52992Y48927D01*
X52997Y48974D01*
X53000Y49024D01*
Y49052D01*
X52997Y49071D01*
X52995Y49097D01*
X52990Y49125D01*
X52985Y49156D01*
X52978Y49191D01*
X52969Y49226D01*
X52957Y49264D01*
X52943Y49302D01*
X52926Y49342D01*
X52905Y49380D01*
X52882Y49418D01*
X52856Y49455D01*
X52825Y49488D01*
X52823Y49491D01*
X52818Y49496D01*
X52806Y49505D01*
X52794Y49514D01*
X52775Y49529D01*
X52754Y49543D01*
X52728Y49559D01*
X52700Y49573D01*
X52669Y49590D01*
X52631Y49606D01*
X52594Y49621D01*
X52551Y49635D01*
X52504Y49644D01*
X52454Y49654D01*
X52403Y49658D01*
X52346Y49661D01*
X52388Y50074D01*
X52391D01*
X52393D01*
X52400Y50071D01*
X52410D01*
X52433Y50069D01*
X52464Y50062D01*
X52502Y50055D01*
X52546Y50045D01*
X52596Y50034D01*
X52648Y50019D01*
X52705Y50001D01*
X52761Y49979D01*
X52820Y49953D01*
X52879Y49923D01*
X52936Y49890D01*
X52990Y49850D01*
X53042Y49807D01*
X53089Y49758D01*
X53092Y49755D01*
X53099Y49746D01*
X53113Y49729D01*
X53127Y49708D01*
X53146Y49680D01*
X53167Y49646D01*
X53188Y49606D01*
X53212Y49562D01*
X53233Y49510D01*
X53254Y49455D01*
X53276Y49394D01*
X53295Y49328D01*
X53311Y49257D01*
X53323Y49182D01*
X53330Y49101D01*
X53332Y49016D01*
Y48995D01*
X53330Y48972D01*
X53328Y48939D01*
X53325Y48898D01*
X53318Y48854D01*
X53311Y48802D01*
X53299Y48747D01*
X53285Y48688D01*
X53269Y48629D01*
X53247Y48566D01*
X53221Y48504D01*
X53191Y48443D01*
X53158Y48384D01*
X53118Y48327D01*
X53070Y48273D01*
X53068Y48271D01*
X53059Y48261D01*
X53044Y48247D01*
X53023Y48230D01*
X53000Y48209D01*
X52969Y48186D01*
X52934Y48160D01*
X52893Y48134D01*
X52849Y48110D01*
X52799Y48084D01*
X52745Y48061D01*
X52688Y48039D01*
X52627Y48023D01*
X52563Y48009D01*
X52495Y47999D01*
X52424Y47997D01*
X52421D01*
X52414D01*
X52405D01*
X52391D01*
X52372Y47999D01*
X52353Y48002D01*
X52329Y48004D01*
X52303Y48006D01*
X52244Y48016D01*
X52178Y48030D01*
X52110Y48051D01*
X52039Y48077D01*
X52037D01*
X52030Y48082D01*
X52020Y48087D01*
X52006Y48094D01*
X51990Y48101D01*
X51968Y48112D01*
X51945Y48124D01*
X51919Y48141D01*
X51890Y48157D01*
X51860Y48176D01*
X51791Y48224D01*
X51756Y48249D01*
X51718Y48278D01*
X51680Y48311D01*
X51640Y48344D01*
X51638Y48346D01*
X51631Y48353D01*
X51619Y48363D01*
X51602Y48379D01*
X51581Y48401D01*
X51555Y48426D01*
X51525Y48455D01*
X51489Y48490D01*
X51451Y48530D01*
X51409Y48577D01*
X51362Y48627D01*
X51310Y48684D01*
X51256Y48745D01*
X51196Y48811D01*
X51133Y48884D01*
X51067Y48962D01*
X51064Y48967D01*
X51053Y48979D01*
X51038Y48995D01*
X51017Y49019D01*
X50994Y49049D01*
X50965Y49080D01*
X50935Y49115D01*
X50902Y49153D01*
X50833Y49233D01*
X50798Y49271D01*
X50765Y49309D01*
X50732Y49345D01*
X50703Y49375D01*
X50677Y49404D01*
X50654Y49425D01*
X50649Y49429D01*
X50635Y49441D01*
X50614Y49460D01*
X50588Y49484D01*
X50555Y49510D01*
X50519Y49538D01*
X50479Y49566D01*
X50439Y49592D01*
Y47992D01*
X50054D01*
Y50149D01*
X50057D01*
X50061D01*
X50068D01*
X50078D01*
X50092D01*
X50106Y50147D01*
D02*
G37*
G36*
X51053Y47565D02*
X51078Y47563D01*
X51112Y47558D01*
X51147Y47553D01*
X51185Y47546D01*
X51225Y47539D01*
X51270Y47527D01*
X51312Y47515D01*
X51357Y47499D01*
X51402Y47480D01*
X51447Y47459D01*
X51489Y47435D01*
X51532Y47407D01*
X51534Y47405D01*
X51541Y47400D01*
X51553Y47390D01*
X51567Y47376D01*
X51584Y47360D01*
X51605Y47339D01*
X51626Y47315D01*
X51650Y47289D01*
X51673Y47256D01*
X51697Y47223D01*
X51723Y47185D01*
X51746Y47143D01*
X51768Y47098D01*
X51789Y47050D01*
X51808Y46999D01*
X51824Y46944D01*
Y46947D01*
X51829Y46956D01*
X51834Y46968D01*
X51841Y46984D01*
X51850Y47006D01*
X51862Y47029D01*
X51876Y47055D01*
X51890Y47084D01*
X51928Y47145D01*
X51973Y47206D01*
X52025Y47265D01*
X52053Y47291D01*
X52084Y47315D01*
X52086Y47317D01*
X52091Y47320D01*
X52100Y47327D01*
X52115Y47334D01*
X52131Y47343D01*
X52150Y47353D01*
X52174Y47364D01*
X52200Y47374D01*
X52228Y47386D01*
X52258Y47398D01*
X52292Y47407D01*
X52327Y47416D01*
X52405Y47431D01*
X52447Y47433D01*
X52490Y47435D01*
X52495D01*
X52506D01*
X52525Y47433D01*
X52549Y47431D01*
X52579Y47428D01*
X52615Y47421D01*
X52655Y47414D01*
X52697Y47402D01*
X52745Y47390D01*
X52792Y47374D01*
X52841Y47353D01*
X52893Y47327D01*
X52943Y47298D01*
X52995Y47265D01*
X53042Y47225D01*
X53089Y47180D01*
X53092Y47178D01*
X53099Y47168D01*
X53113Y47154D01*
X53127Y47133D01*
X53146Y47107D01*
X53167Y47076D01*
X53188Y47041D01*
X53212Y46999D01*
X53233Y46954D01*
X53254Y46902D01*
X53276Y46845D01*
X53295Y46784D01*
X53311Y46720D01*
X53323Y46649D01*
X53330Y46576D01*
X53332Y46498D01*
Y46479D01*
X53330Y46458D01*
X53328Y46428D01*
X53325Y46392D01*
X53318Y46350D01*
X53311Y46302D01*
X53302Y46253D01*
X53288Y46199D01*
X53271Y46142D01*
X53252Y46085D01*
X53226Y46029D01*
X53198Y45972D01*
X53165Y45915D01*
X53127Y45861D01*
X53082Y45812D01*
X53080Y45809D01*
X53070Y45800D01*
X53056Y45788D01*
X53037Y45771D01*
X53014Y45750D01*
X52985Y45729D01*
X52952Y45705D01*
X52915Y45679D01*
X52872Y45656D01*
X52825Y45632D01*
X52775Y45611D01*
X52723Y45590D01*
X52667Y45573D01*
X52605Y45561D01*
X52544Y45552D01*
X52478Y45550D01*
X52476D01*
X52469D01*
X52457D01*
X52440Y45552D01*
X52421Y45554D01*
X52398Y45557D01*
X52372Y45559D01*
X52343Y45564D01*
X52282Y45578D01*
X52216Y45599D01*
X52183Y45613D01*
X52150Y45630D01*
X52117Y45649D01*
X52084Y45670D01*
X52082Y45672D01*
X52077Y45675D01*
X52067Y45682D01*
X52056Y45693D01*
X52041Y45705D01*
X52027Y45722D01*
X52008Y45738D01*
X51990Y45760D01*
X51968Y45786D01*
X51947Y45812D01*
X51926Y45842D01*
X51904Y45873D01*
X51883Y45911D01*
X51862Y45948D01*
X51843Y45989D01*
X51824Y46033D01*
Y46031D01*
X51820Y46019D01*
X51815Y46005D01*
X51805Y45984D01*
X51796Y45958D01*
X51782Y45930D01*
X51768Y45897D01*
X51749Y45864D01*
X51727Y45826D01*
X51704Y45788D01*
X51678Y45750D01*
X51650Y45712D01*
X51619Y45675D01*
X51584Y45639D01*
X51548Y45604D01*
X51508Y45573D01*
X51506Y45571D01*
X51499Y45566D01*
X51487Y45559D01*
X51470Y45547D01*
X51449Y45535D01*
X51423Y45524D01*
X51395Y45509D01*
X51362Y45493D01*
X51324Y45479D01*
X51286Y45465D01*
X51241Y45453D01*
X51196Y45439D01*
X51147Y45429D01*
X51097Y45422D01*
X51043Y45417D01*
X50986Y45415D01*
X50982D01*
X50968D01*
X50946Y45417D01*
X50916Y45420D01*
X50880Y45425D01*
X50840Y45432D01*
X50793Y45441D01*
X50741Y45453D01*
X50687Y45467D01*
X50630Y45488D01*
X50573Y45512D01*
X50515Y45540D01*
X50453Y45575D01*
X50397Y45613D01*
X50337Y45660D01*
X50283Y45712D01*
X50281Y45715D01*
X50271Y45727D01*
X50257Y45743D01*
X50238Y45767D01*
X50217Y45795D01*
X50194Y45833D01*
X50168Y45873D01*
X50142Y45920D01*
X50116Y45974D01*
X50090Y46033D01*
X50066Y46097D01*
X50045Y46165D01*
X50026Y46241D01*
X50012Y46319D01*
X50002Y46404D01*
X50000Y46491D01*
Y46512D01*
X50002Y46538D01*
X50005Y46571D01*
X50009Y46612D01*
X50014Y46659D01*
X50024Y46713D01*
X50035Y46770D01*
X50052Y46831D01*
X50071Y46895D01*
X50092Y46959D01*
X50120Y47025D01*
X50153Y47091D01*
X50191Y47154D01*
X50236Y47213D01*
X50286Y47272D01*
X50288Y47275D01*
X50300Y47284D01*
X50314Y47301D01*
X50337Y47317D01*
X50366Y47341D01*
X50399Y47367D01*
X50437Y47393D01*
X50481Y47419D01*
X50531Y47447D01*
X50585Y47473D01*
X50644Y47499D01*
X50706Y47520D01*
X50774Y47539D01*
X50845Y47556D01*
X50920Y47565D01*
X50998Y47567D01*
X51003D01*
X51012D01*
X51029D01*
X51053Y47565D01*
D02*
G37*
G36*
X53320Y44728D02*
X50946Y43881D01*
X50944Y43879D01*
X50935Y43876D01*
X50918Y43872D01*
X50897Y43865D01*
X50873Y43855D01*
X50842Y43846D01*
X50810Y43834D01*
X50772Y43820D01*
X50732Y43808D01*
X50689Y43794D01*
X50599Y43765D01*
X50505Y43735D01*
X50411Y43709D01*
X50413D01*
X50422Y43706D01*
X50437Y43702D01*
X50455Y43695D01*
X50481Y43687D01*
X50510Y43681D01*
X50543Y43669D01*
X50578Y43659D01*
X50616Y43645D01*
X50658Y43633D01*
X50703Y43617D01*
X50748Y43603D01*
X50847Y43569D01*
X50946Y43532D01*
X53320Y42649D01*
Y42208D01*
X50054Y43487D01*
Y43933D01*
X53320Y45198D01*
Y44728D01*
D02*
G37*
G36*
X52513Y41672D02*
X52518Y41663D01*
X52528Y41644D01*
X52539Y41620D01*
X52553Y41592D01*
X52572Y41557D01*
X52594Y41519D01*
X52617Y41479D01*
X52646Y41434D01*
X52674Y41387D01*
X52740Y41287D01*
X52813Y41186D01*
X52893Y41089D01*
X52896Y41087D01*
X52903Y41077D01*
X52915Y41066D01*
X52931Y41049D01*
X52952Y41028D01*
X52976Y41004D01*
X53004Y40978D01*
X53033Y40950D01*
X53066Y40922D01*
X53101Y40891D01*
X53174Y40832D01*
X53252Y40778D01*
X53292Y40754D01*
X53332Y40733D01*
Y40473D01*
X50054D01*
Y40874D01*
X52608D01*
X52605Y40877D01*
X52601Y40881D01*
X52594Y40889D01*
X52584Y40900D01*
X52572Y40914D01*
X52556Y40933D01*
X52539Y40955D01*
X52521Y40976D01*
X52502Y41004D01*
X52478Y41032D01*
X52457Y41063D01*
X52431Y41096D01*
X52407Y41134D01*
X52381Y41172D01*
X52329Y41257D01*
X52327Y41259D01*
X52322Y41266D01*
X52315Y41280D01*
X52308Y41297D01*
X52296Y41316D01*
X52282Y41339D01*
X52268Y41368D01*
X52251Y41396D01*
X52218Y41462D01*
X52185Y41533D01*
X52152Y41606D01*
X52124Y41677D01*
X52511D01*
X52513Y41672D01*
D02*
G37*
G36*
X51739Y39444D02*
X51761D01*
X51808Y39442D01*
X51864Y39439D01*
X51928Y39437D01*
X51997Y39432D01*
X52070Y39425D01*
X52145Y39418D01*
X52301Y39397D01*
X52379Y39383D01*
X52454Y39366D01*
X52528Y39350D01*
X52596Y39329D01*
X52601Y39326D01*
X52613Y39324D01*
X52629Y39317D01*
X52655Y39307D01*
X52683Y39293D01*
X52719Y39279D01*
X52757Y39260D01*
X52797Y39239D01*
X52839Y39218D01*
X52884Y39189D01*
X52931Y39161D01*
X52976Y39130D01*
X53021Y39095D01*
X53063Y39057D01*
X53103Y39017D01*
X53141Y38975D01*
X53144Y38972D01*
X53151Y38963D01*
X53160Y38951D01*
X53172Y38932D01*
X53186Y38908D01*
X53202Y38880D01*
X53219Y38849D01*
X53238Y38812D01*
X53254Y38772D01*
X53271Y38727D01*
X53288Y38677D01*
X53302Y38625D01*
X53316Y38569D01*
X53325Y38510D01*
X53330Y38448D01*
X53332Y38382D01*
Y38356D01*
X53330Y38337D01*
Y38316D01*
X53328Y38288D01*
X53323Y38260D01*
X53318Y38227D01*
X53306Y38156D01*
X53288Y38078D01*
X53262Y37998D01*
X53245Y37960D01*
X53226Y37922D01*
Y37920D01*
X53221Y37913D01*
X53214Y37903D01*
X53207Y37889D01*
X53195Y37872D01*
X53181Y37854D01*
X53167Y37830D01*
X53148Y37806D01*
X53106Y37754D01*
X53052Y37700D01*
X52990Y37646D01*
X52919Y37596D01*
X52917Y37594D01*
X52910Y37592D01*
X52898Y37585D01*
X52884Y37575D01*
X52865Y37563D01*
X52841Y37552D01*
X52816Y37537D01*
X52785Y37523D01*
X52752Y37507D01*
X52714Y37490D01*
X52674Y37474D01*
X52631Y37455D01*
X52587Y37438D01*
X52539Y37424D01*
X52487Y37408D01*
X52435Y37393D01*
X52433D01*
X52421Y37391D01*
X52407Y37386D01*
X52384Y37382D01*
X52355Y37377D01*
X52320Y37370D01*
X52280Y37363D01*
X52233Y37356D01*
X52181Y37349D01*
X52122Y37341D01*
X52058Y37334D01*
X51990Y37330D01*
X51916Y37325D01*
X51836Y37320D01*
X51753Y37318D01*
X51664D01*
X51661D01*
X51657D01*
X51650D01*
X51638D01*
X51626D01*
X51609D01*
X51591Y37320D01*
X51569D01*
X51520Y37323D01*
X51463Y37325D01*
X51402Y37327D01*
X51333Y37332D01*
X51260Y37339D01*
X51185Y37346D01*
X51031Y37367D01*
X50953Y37382D01*
X50878Y37398D01*
X50805Y37417D01*
X50736Y37438D01*
X50732Y37441D01*
X50720Y37443D01*
X50703Y37450D01*
X50677Y37459D01*
X50649Y37474D01*
X50614Y37488D01*
X50576Y37507D01*
X50536Y37526D01*
X50493Y37549D01*
X50448Y37578D01*
X50404Y37606D01*
X50356Y37637D01*
X50311Y37672D01*
X50269Y37710D01*
X50229Y37750D01*
X50191Y37792D01*
X50189Y37795D01*
X50184Y37804D01*
X50175Y37816D01*
X50160Y37835D01*
X50146Y37858D01*
X50130Y37884D01*
X50113Y37917D01*
X50097Y37953D01*
X50078Y37995D01*
X50061Y38040D01*
X50045Y38087D01*
X50031Y38139D01*
X50019Y38196D01*
X50009Y38255D01*
X50002Y38316D01*
X50000Y38382D01*
Y38403D01*
X50002Y38427D01*
X50005Y38460D01*
X50009Y38500D01*
X50019Y38548D01*
X50028Y38597D01*
X50042Y38654D01*
X50059Y38713D01*
X50083Y38772D01*
X50109Y38833D01*
X50142Y38897D01*
X50179Y38958D01*
X50224Y39017D01*
X50276Y39074D01*
X50335Y39126D01*
X50337D01*
X50340Y39128D01*
X50347Y39133D01*
X50354Y39140D01*
X50366Y39147D01*
X50380Y39156D01*
X50394Y39166D01*
X50413Y39175D01*
X50434Y39187D01*
X50458Y39201D01*
X50484Y39213D01*
X50512Y39227D01*
X50545Y39241D01*
X50578Y39255D01*
X50616Y39272D01*
X50654Y39286D01*
X50696Y39300D01*
X50741Y39317D01*
X50788Y39331D01*
X50840Y39345D01*
X50892Y39359D01*
X50949Y39371D01*
X51005Y39385D01*
X51069Y39397D01*
X51133Y39406D01*
X51199Y39416D01*
X51270Y39425D01*
X51343Y39432D01*
X51418Y39439D01*
X51496Y39442D01*
X51579Y39447D01*
X51664D01*
X51666D01*
X51671D01*
X51678D01*
X51690D01*
X51704D01*
X51720D01*
X51739Y39444D01*
D02*
G37*
G36*
Y36907D02*
X51761D01*
X51808Y36905D01*
X51864Y36902D01*
X51928Y36900D01*
X51997Y36895D01*
X52070Y36888D01*
X52145Y36881D01*
X52301Y36860D01*
X52379Y36846D01*
X52454Y36829D01*
X52528Y36813D01*
X52596Y36792D01*
X52601Y36789D01*
X52613Y36787D01*
X52629Y36780D01*
X52655Y36770D01*
X52683Y36756D01*
X52719Y36742D01*
X52757Y36723D01*
X52797Y36702D01*
X52839Y36681D01*
X52884Y36652D01*
X52931Y36624D01*
X52976Y36593D01*
X53021Y36558D01*
X53063Y36520D01*
X53103Y36480D01*
X53141Y36438D01*
X53144Y36435D01*
X53151Y36426D01*
X53160Y36414D01*
X53172Y36395D01*
X53186Y36371D01*
X53202Y36343D01*
X53219Y36312D01*
X53238Y36275D01*
X53254Y36235D01*
X53271Y36190D01*
X53288Y36140D01*
X53302Y36088D01*
X53316Y36032D01*
X53325Y35973D01*
X53330Y35911D01*
X53332Y35845D01*
Y35819D01*
X53330Y35800D01*
Y35779D01*
X53328Y35751D01*
X53323Y35723D01*
X53318Y35689D01*
X53306Y35619D01*
X53288Y35541D01*
X53262Y35461D01*
X53245Y35423D01*
X53226Y35385D01*
Y35383D01*
X53221Y35376D01*
X53214Y35366D01*
X53207Y35352D01*
X53195Y35335D01*
X53181Y35317D01*
X53167Y35293D01*
X53148Y35269D01*
X53106Y35217D01*
X53052Y35163D01*
X52990Y35109D01*
X52919Y35059D01*
X52917Y35057D01*
X52910Y35055D01*
X52898Y35048D01*
X52884Y35038D01*
X52865Y35026D01*
X52841Y35015D01*
X52816Y35000D01*
X52785Y34986D01*
X52752Y34970D01*
X52714Y34953D01*
X52674Y34937D01*
X52631Y34918D01*
X52587Y34901D01*
X52539Y34887D01*
X52487Y34871D01*
X52435Y34856D01*
X52433D01*
X52421Y34854D01*
X52407Y34849D01*
X52384Y34845D01*
X52355Y34840D01*
X52320Y34833D01*
X52280Y34826D01*
X52233Y34819D01*
X52181Y34812D01*
X52122Y34804D01*
X52058Y34797D01*
X51990Y34793D01*
X51916Y34788D01*
X51836Y34783D01*
X51753Y34781D01*
X51664D01*
X51661D01*
X51657D01*
X51650D01*
X51638D01*
X51626D01*
X51609D01*
X51591Y34783D01*
X51569D01*
X51520Y34786D01*
X51463Y34788D01*
X51402Y34790D01*
X51333Y34795D01*
X51260Y34802D01*
X51185Y34809D01*
X51031Y34830D01*
X50953Y34845D01*
X50878Y34861D01*
X50805Y34880D01*
X50736Y34901D01*
X50732Y34904D01*
X50720Y34906D01*
X50703Y34913D01*
X50677Y34923D01*
X50649Y34937D01*
X50614Y34951D01*
X50576Y34970D01*
X50536Y34989D01*
X50493Y35012D01*
X50448Y35041D01*
X50404Y35069D01*
X50356Y35100D01*
X50311Y35135D01*
X50269Y35173D01*
X50229Y35213D01*
X50191Y35255D01*
X50189Y35258D01*
X50184Y35267D01*
X50175Y35279D01*
X50160Y35298D01*
X50146Y35321D01*
X50130Y35347D01*
X50113Y35380D01*
X50097Y35416D01*
X50078Y35458D01*
X50061Y35503D01*
X50045Y35550D01*
X50031Y35602D01*
X50019Y35659D01*
X50009Y35718D01*
X50002Y35779D01*
X50000Y35845D01*
Y35866D01*
X50002Y35890D01*
X50005Y35923D01*
X50009Y35963D01*
X50019Y36011D01*
X50028Y36060D01*
X50042Y36117D01*
X50059Y36176D01*
X50083Y36235D01*
X50109Y36296D01*
X50142Y36360D01*
X50179Y36421D01*
X50224Y36480D01*
X50276Y36537D01*
X50335Y36589D01*
X50337D01*
X50340Y36591D01*
X50347Y36596D01*
X50354Y36603D01*
X50366Y36610D01*
X50380Y36619D01*
X50394Y36629D01*
X50413Y36638D01*
X50434Y36650D01*
X50458Y36664D01*
X50484Y36676D01*
X50512Y36690D01*
X50545Y36704D01*
X50578Y36718D01*
X50616Y36735D01*
X50654Y36749D01*
X50696Y36763D01*
X50741Y36780D01*
X50788Y36794D01*
X50840Y36808D01*
X50892Y36822D01*
X50949Y36834D01*
X51005Y36848D01*
X51069Y36860D01*
X51133Y36869D01*
X51199Y36879D01*
X51270Y36888D01*
X51343Y36895D01*
X51418Y36902D01*
X51496Y36905D01*
X51579Y36910D01*
X51664D01*
X51666D01*
X51671D01*
X51678D01*
X51690D01*
X51704D01*
X51720D01*
X51739Y36907D01*
D02*
G37*
G36*
X51437Y33183D02*
X51034D01*
Y34420D01*
X51437D01*
Y33183D01*
D02*
G37*
G36*
X53320Y30347D02*
X52936D01*
Y31427D01*
X50054D01*
Y31859D01*
X52936D01*
Y32935D01*
X53320D01*
Y30347D01*
D02*
G37*
G36*
X51718Y30009D02*
X51751D01*
X51794Y30004D01*
X51843Y30002D01*
X51900Y29995D01*
X51961Y29985D01*
X52027Y29976D01*
X52098Y29962D01*
X52171Y29948D01*
X52247Y29929D01*
X52325Y29905D01*
X52405Y29879D01*
X52483Y29849D01*
X52561Y29813D01*
X52563D01*
X52565Y29811D01*
X52579Y29804D01*
X52601Y29792D01*
X52629Y29775D01*
X52662Y29757D01*
X52702Y29730D01*
X52747Y29700D01*
X52794Y29667D01*
X52844Y29629D01*
X52893Y29586D01*
X52945Y29539D01*
X52995Y29487D01*
X53044Y29431D01*
X53092Y29372D01*
X53136Y29308D01*
X53177Y29240D01*
X53179Y29235D01*
X53186Y29223D01*
X53195Y29202D01*
X53207Y29173D01*
X53224Y29138D01*
X53240Y29096D01*
X53259Y29046D01*
X53278Y28992D01*
X53295Y28931D01*
X53313Y28864D01*
X53330Y28794D01*
X53347Y28718D01*
X53358Y28638D01*
X53368Y28555D01*
X53375Y28468D01*
X53377Y28378D01*
Y28343D01*
X53375Y28319D01*
Y28286D01*
X53370Y28251D01*
X53368Y28211D01*
X53363Y28166D01*
X53356Y28116D01*
X53349Y28067D01*
X53328Y27958D01*
X53316Y27904D01*
X53299Y27847D01*
X53283Y27793D01*
X53262Y27739D01*
X53259Y27736D01*
X53257Y27727D01*
X53250Y27710D01*
X53240Y27692D01*
X53228Y27668D01*
X53214Y27639D01*
X53198Y27609D01*
X53179Y27573D01*
X53155Y27538D01*
X53132Y27503D01*
X53077Y27427D01*
X53014Y27354D01*
X52978Y27319D01*
X52941Y27288D01*
X52938Y27286D01*
X52931Y27281D01*
X52919Y27271D01*
X52903Y27262D01*
X52884Y27248D01*
X52858Y27231D01*
X52830Y27215D01*
X52797Y27196D01*
X52761Y27177D01*
X52719Y27156D01*
X52676Y27134D01*
X52629Y27116D01*
X52577Y27094D01*
X52523Y27075D01*
X52466Y27057D01*
X52405Y27040D01*
X52299Y27430D01*
X52301D01*
X52310Y27432D01*
X52322Y27437D01*
X52341Y27444D01*
X52360Y27451D01*
X52386Y27458D01*
X52412Y27470D01*
X52443Y27479D01*
X52504Y27507D01*
X52570Y27538D01*
X52634Y27573D01*
X52662Y27592D01*
X52690Y27614D01*
X52693Y27616D01*
X52697Y27618D01*
X52705Y27625D01*
X52714Y27632D01*
X52726Y27644D01*
X52740Y27658D01*
X52757Y27675D01*
X52773Y27694D01*
X52792Y27715D01*
X52811Y27736D01*
X52849Y27791D01*
X52886Y27854D01*
X52919Y27925D01*
Y27928D01*
X52924Y27935D01*
X52926Y27946D01*
X52934Y27961D01*
X52941Y27979D01*
X52948Y28003D01*
X52955Y28029D01*
X52964Y28057D01*
X52971Y28088D01*
X52978Y28123D01*
X52985Y28161D01*
X52992Y28199D01*
X53002Y28284D01*
X53007Y28374D01*
Y28402D01*
X53004Y28423D01*
Y28449D01*
X53002Y28480D01*
X53000Y28513D01*
X52995Y28548D01*
X52990Y28588D01*
X52985Y28631D01*
X52969Y28716D01*
X52945Y28803D01*
X52915Y28888D01*
Y28890D01*
X52910Y28897D01*
X52905Y28909D01*
X52898Y28923D01*
X52889Y28942D01*
X52879Y28964D01*
X52865Y28987D01*
X52851Y29011D01*
X52818Y29067D01*
X52775Y29124D01*
X52728Y29183D01*
X52676Y29235D01*
X52674Y29237D01*
X52669Y29240D01*
X52662Y29247D01*
X52650Y29256D01*
X52636Y29268D01*
X52622Y29280D01*
X52603Y29294D01*
X52582Y29310D01*
X52535Y29344D01*
X52480Y29379D01*
X52419Y29412D01*
X52355Y29443D01*
X52353Y29445D01*
X52341Y29447D01*
X52325Y29454D01*
X52303Y29462D01*
X52275Y29471D01*
X52242Y29480D01*
X52202Y29492D01*
X52159Y29504D01*
X52112Y29516D01*
X52063Y29528D01*
X52008Y29537D01*
X51949Y29546D01*
X51890Y29553D01*
X51827Y29561D01*
X51763Y29563D01*
X51697Y29565D01*
X51695D01*
X51692D01*
X51678D01*
X51654D01*
X51624Y29563D01*
X51586Y29561D01*
X51543Y29558D01*
X51494Y29553D01*
X51442Y29546D01*
X51385Y29539D01*
X51326Y29530D01*
X51265Y29516D01*
X51204Y29502D01*
X51142Y29485D01*
X51081Y29466D01*
X51022Y29443D01*
X50965Y29417D01*
X50963Y29414D01*
X50953Y29410D01*
X50937Y29400D01*
X50918Y29388D01*
X50892Y29372D01*
X50866Y29353D01*
X50835Y29332D01*
X50802Y29306D01*
X50767Y29275D01*
X50732Y29242D01*
X50694Y29207D01*
X50658Y29166D01*
X50623Y29124D01*
X50590Y29079D01*
X50559Y29030D01*
X50531Y28978D01*
X50529Y28975D01*
X50524Y28964D01*
X50517Y28949D01*
X50510Y28928D01*
X50498Y28902D01*
X50486Y28869D01*
X50474Y28834D01*
X50460Y28794D01*
X50446Y28749D01*
X50434Y28701D01*
X50422Y28652D01*
X50411Y28600D01*
X50404Y28543D01*
X50397Y28487D01*
X50392Y28428D01*
X50389Y28369D01*
Y28341D01*
X50392Y28322D01*
Y28296D01*
X50394Y28265D01*
X50399Y28232D01*
X50404Y28194D01*
X50408Y28154D01*
X50415Y28111D01*
X50434Y28019D01*
X50460Y27920D01*
X50477Y27871D01*
X50496Y27821D01*
X50498Y27819D01*
X50500Y27810D01*
X50507Y27795D01*
X50515Y27776D01*
X50524Y27755D01*
X50536Y27729D01*
X50550Y27701D01*
X50566Y27670D01*
X50599Y27604D01*
X50640Y27536D01*
X50682Y27470D01*
X50703Y27441D01*
X50727Y27413D01*
X51336D01*
Y28374D01*
X51720D01*
Y26991D01*
X50507D01*
X50505Y26995D01*
X50496Y27005D01*
X50484Y27021D01*
X50465Y27045D01*
X50446Y27075D01*
X50420Y27108D01*
X50394Y27149D01*
X50366Y27191D01*
X50335Y27241D01*
X50304Y27290D01*
X50271Y27345D01*
X50241Y27404D01*
X50179Y27524D01*
X50153Y27585D01*
X50127Y27649D01*
X50125Y27654D01*
X50123Y27663D01*
X50116Y27682D01*
X50109Y27708D01*
X50099Y27739D01*
X50087Y27774D01*
X50076Y27817D01*
X50064Y27861D01*
X50052Y27913D01*
X50040Y27968D01*
X50031Y28024D01*
X50019Y28083D01*
X50005Y28211D01*
X50002Y28277D01*
X50000Y28343D01*
Y28376D01*
X50002Y28390D01*
Y28423D01*
X50007Y28466D01*
X50012Y28515D01*
X50016Y28572D01*
X50026Y28633D01*
X50038Y28699D01*
X50050Y28768D01*
X50066Y28841D01*
X50087Y28916D01*
X50111Y28992D01*
X50137Y29067D01*
X50170Y29143D01*
X50205Y29218D01*
X50208Y29223D01*
X50215Y29235D01*
X50227Y29256D01*
X50243Y29282D01*
X50264Y29315D01*
X50290Y29353D01*
X50321Y29395D01*
X50356Y29440D01*
X50397Y29487D01*
X50441Y29537D01*
X50489Y29586D01*
X50543Y29636D01*
X50602Y29683D01*
X50663Y29730D01*
X50729Y29773D01*
X50800Y29813D01*
X50805Y29816D01*
X50819Y29822D01*
X50840Y29832D01*
X50868Y29844D01*
X50906Y29858D01*
X50949Y29877D01*
X51001Y29893D01*
X51055Y29912D01*
X51119Y29931D01*
X51185Y29948D01*
X51256Y29964D01*
X51333Y29981D01*
X51414Y29992D01*
X51496Y30002D01*
X51581Y30009D01*
X51671Y30011D01*
X51673D01*
X51676D01*
X51683D01*
X51692D01*
X51704D01*
X51718Y30009D01*
D02*
G37*
G36*
X53192Y77375D02*
X53225D01*
X53261Y77370D01*
X53301Y77368D01*
X53346Y77363D01*
X53395Y77356D01*
X53445Y77349D01*
X53553Y77328D01*
X53607Y77316D01*
X53664Y77299D01*
X53718Y77283D01*
X53773Y77262D01*
X53775Y77259D01*
X53785Y77257D01*
X53801Y77250D01*
X53820Y77240D01*
X53843Y77228D01*
X53872Y77214D01*
X53903Y77198D01*
X53938Y77179D01*
X53973Y77155D01*
X54009Y77132D01*
X54084Y77077D01*
X54157Y77014D01*
X54193Y76978D01*
X54223Y76941D01*
X54226Y76938D01*
X54230Y76931D01*
X54240Y76919D01*
X54249Y76903D01*
X54264Y76884D01*
X54280Y76858D01*
X54297Y76830D01*
X54316Y76797D01*
X54334Y76761D01*
X54356Y76719D01*
X54377Y76676D01*
X54396Y76629D01*
X54417Y76577D01*
X54436Y76523D01*
X54455Y76466D01*
X54471Y76405D01*
X54082Y76299D01*
Y76301D01*
X54080Y76310D01*
X54075Y76322D01*
X54068Y76341D01*
X54061Y76360D01*
X54053Y76386D01*
X54042Y76412D01*
X54032Y76443D01*
X54004Y76504D01*
X53973Y76570D01*
X53938Y76634D01*
X53919Y76662D01*
X53898Y76690D01*
X53895Y76693D01*
X53893Y76697D01*
X53886Y76705D01*
X53879Y76714D01*
X53867Y76726D01*
X53853Y76740D01*
X53836Y76757D01*
X53817Y76773D01*
X53796Y76792D01*
X53775Y76811D01*
X53721Y76849D01*
X53657Y76886D01*
X53586Y76919D01*
X53584D01*
X53577Y76924D01*
X53565Y76926D01*
X53551Y76933D01*
X53532Y76941D01*
X53508Y76948D01*
X53482Y76955D01*
X53454Y76964D01*
X53423Y76971D01*
X53388Y76978D01*
X53350Y76985D01*
X53312Y76992D01*
X53228Y77002D01*
X53138Y77007D01*
X53110D01*
X53088Y77004D01*
X53062D01*
X53032Y77002D01*
X52999Y77000D01*
X52963Y76995D01*
X52923Y76990D01*
X52881Y76985D01*
X52796Y76969D01*
X52708Y76945D01*
X52623Y76915D01*
X52621D01*
X52614Y76910D01*
X52602Y76905D01*
X52588Y76898D01*
X52569Y76889D01*
X52548Y76879D01*
X52524Y76865D01*
X52501Y76851D01*
X52444Y76818D01*
X52387Y76775D01*
X52328Y76728D01*
X52276Y76676D01*
X52274Y76674D01*
X52272Y76669D01*
X52265Y76662D01*
X52255Y76650D01*
X52243Y76636D01*
X52232Y76622D01*
X52217Y76603D01*
X52201Y76582D01*
X52168Y76535D01*
X52132Y76480D01*
X52099Y76419D01*
X52069Y76355D01*
X52066Y76353D01*
X52064Y76341D01*
X52057Y76325D01*
X52050Y76303D01*
X52040Y76275D01*
X52031Y76242D01*
X52019Y76202D01*
X52007Y76159D01*
X51996Y76112D01*
X51984Y76063D01*
X51974Y76008D01*
X51965Y75949D01*
X51958Y75890D01*
X51951Y75827D01*
X51948Y75763D01*
X51946Y75697D01*
Y75695D01*
Y75692D01*
Y75678D01*
Y75654D01*
X51948Y75624D01*
X51951Y75586D01*
X51953Y75543D01*
X51958Y75494D01*
X51965Y75442D01*
X51972Y75385D01*
X51981Y75326D01*
X51996Y75265D01*
X52010Y75204D01*
X52026Y75142D01*
X52045Y75081D01*
X52069Y75022D01*
X52095Y74965D01*
X52097Y74963D01*
X52102Y74953D01*
X52111Y74937D01*
X52123Y74918D01*
X52140Y74892D01*
X52158Y74866D01*
X52180Y74835D01*
X52206Y74802D01*
X52236Y74767D01*
X52269Y74732D01*
X52305Y74694D01*
X52345Y74658D01*
X52387Y74623D01*
X52432Y74590D01*
X52482Y74559D01*
X52534Y74531D01*
X52536Y74529D01*
X52548Y74524D01*
X52562Y74517D01*
X52583Y74510D01*
X52609Y74498D01*
X52642Y74486D01*
X52678Y74474D01*
X52718Y74460D01*
X52763Y74446D01*
X52810Y74434D01*
X52859Y74422D01*
X52911Y74411D01*
X52968Y74404D01*
X53025Y74397D01*
X53084Y74392D01*
X53143Y74389D01*
X53171D01*
X53190Y74392D01*
X53216D01*
X53246Y74394D01*
X53279Y74399D01*
X53317Y74404D01*
X53357Y74408D01*
X53400Y74415D01*
X53492Y74434D01*
X53591Y74460D01*
X53641Y74477D01*
X53690Y74496D01*
X53692Y74498D01*
X53702Y74500D01*
X53716Y74507D01*
X53735Y74515D01*
X53756Y74524D01*
X53782Y74536D01*
X53810Y74550D01*
X53841Y74566D01*
X53907Y74599D01*
X53976Y74640D01*
X54042Y74682D01*
X54070Y74703D01*
X54098Y74727D01*
Y75336D01*
X53138D01*
Y75720D01*
X54521D01*
Y74507D01*
X54516Y74505D01*
X54507Y74496D01*
X54490Y74484D01*
X54466Y74465D01*
X54436Y74446D01*
X54403Y74420D01*
X54363Y74394D01*
X54320Y74366D01*
X54271Y74335D01*
X54221Y74304D01*
X54167Y74271D01*
X54108Y74241D01*
X53987Y74179D01*
X53926Y74153D01*
X53862Y74127D01*
X53858Y74125D01*
X53848Y74123D01*
X53829Y74116D01*
X53803Y74109D01*
X53773Y74099D01*
X53737Y74087D01*
X53695Y74076D01*
X53650Y74064D01*
X53598Y74052D01*
X53544Y74040D01*
X53487Y74031D01*
X53428Y74019D01*
X53301Y74005D01*
X53235Y74002D01*
X53168Y74000D01*
X53136D01*
X53121Y74002D01*
X53088D01*
X53046Y74007D01*
X52996Y74012D01*
X52940Y74016D01*
X52878Y74026D01*
X52812Y74038D01*
X52744Y74050D01*
X52671Y74066D01*
X52595Y74087D01*
X52520Y74111D01*
X52444Y74137D01*
X52368Y74170D01*
X52293Y74205D01*
X52288Y74208D01*
X52276Y74215D01*
X52255Y74227D01*
X52229Y74243D01*
X52196Y74264D01*
X52158Y74290D01*
X52116Y74321D01*
X52071Y74356D01*
X52024Y74397D01*
X51974Y74441D01*
X51925Y74489D01*
X51875Y74543D01*
X51828Y74602D01*
X51781Y74663D01*
X51738Y74729D01*
X51698Y74800D01*
X51696Y74805D01*
X51689Y74819D01*
X51679Y74840D01*
X51668Y74869D01*
X51653Y74906D01*
X51635Y74949D01*
X51618Y75001D01*
X51599Y75055D01*
X51580Y75119D01*
X51564Y75185D01*
X51547Y75256D01*
X51531Y75333D01*
X51519Y75414D01*
X51509Y75496D01*
X51502Y75581D01*
X51500Y75671D01*
Y75673D01*
Y75676D01*
Y75683D01*
Y75692D01*
Y75704D01*
X51502Y75718D01*
Y75751D01*
X51507Y75794D01*
X51509Y75843D01*
X51516Y75900D01*
X51526Y75961D01*
X51535Y76027D01*
X51550Y76098D01*
X51564Y76171D01*
X51583Y76247D01*
X51606Y76325D01*
X51632Y76405D01*
X51663Y76483D01*
X51698Y76561D01*
Y76563D01*
X51701Y76565D01*
X51708Y76579D01*
X51719Y76601D01*
X51736Y76629D01*
X51755Y76662D01*
X51781Y76702D01*
X51811Y76747D01*
X51845Y76794D01*
X51882Y76844D01*
X51925Y76893D01*
X51972Y76945D01*
X52024Y76995D01*
X52081Y77044D01*
X52140Y77092D01*
X52203Y77136D01*
X52272Y77177D01*
X52276Y77179D01*
X52288Y77186D01*
X52310Y77195D01*
X52338Y77207D01*
X52373Y77224D01*
X52416Y77240D01*
X52465Y77259D01*
X52520Y77278D01*
X52581Y77295D01*
X52647Y77313D01*
X52718Y77330D01*
X52793Y77346D01*
X52873Y77358D01*
X52956Y77368D01*
X53043Y77375D01*
X53133Y77377D01*
X53168D01*
X53192Y77375D01*
D02*
G37*
G36*
X57726Y74054D02*
X57280D01*
X55569Y76617D01*
Y74054D01*
X55153D01*
Y77320D01*
X55597D01*
X57310Y74755D01*
Y77320D01*
X57726D01*
Y74054D01*
D02*
G37*
G36*
X59670Y77318D02*
X59708D01*
X59748Y77316D01*
X59793D01*
X59887Y77309D01*
X59984Y77302D01*
X60031Y77295D01*
X60076Y77290D01*
X60119Y77283D01*
X60159Y77273D01*
X60161D01*
X60171Y77271D01*
X60185Y77266D01*
X60206Y77262D01*
X60230Y77252D01*
X60258Y77243D01*
X60289Y77233D01*
X60324Y77219D01*
X60397Y77188D01*
X60477Y77146D01*
X60558Y77099D01*
X60598Y77070D01*
X60636Y77040D01*
X60638Y77037D01*
X60647Y77030D01*
X60662Y77016D01*
X60678Y77000D01*
X60699Y76978D01*
X60725Y76952D01*
X60751Y76922D01*
X60782Y76889D01*
X60813Y76849D01*
X60843Y76806D01*
X60876Y76761D01*
X60909Y76712D01*
X60940Y76657D01*
X60968Y76603D01*
X60997Y76542D01*
X61023Y76480D01*
X61025Y76476D01*
X61027Y76464D01*
X61034Y76447D01*
X61044Y76421D01*
X61053Y76388D01*
X61063Y76351D01*
X61075Y76306D01*
X61089Y76256D01*
X61101Y76202D01*
X61112Y76140D01*
X61122Y76077D01*
X61131Y76008D01*
X61141Y75938D01*
X61148Y75862D01*
X61150Y75784D01*
X61152Y75704D01*
Y75699D01*
Y75687D01*
Y75669D01*
X61150Y75640D01*
Y75609D01*
X61148Y75572D01*
X61145Y75529D01*
X61141Y75482D01*
X61136Y75432D01*
X61131Y75378D01*
X61115Y75267D01*
X61093Y75154D01*
X61065Y75043D01*
Y75041D01*
X61060Y75031D01*
X61056Y75015D01*
X61049Y74996D01*
X61041Y74972D01*
X61030Y74944D01*
X61018Y74911D01*
X61004Y74878D01*
X60973Y74802D01*
X60933Y74722D01*
X60890Y74644D01*
X60841Y74569D01*
X60839Y74566D01*
X60834Y74562D01*
X60827Y74550D01*
X60817Y74538D01*
X60805Y74522D01*
X60789Y74503D01*
X60754Y74460D01*
X60709Y74413D01*
X60659Y74363D01*
X60602Y74316D01*
X60544Y74271D01*
X60541D01*
X60536Y74267D01*
X60527Y74262D01*
X60515Y74255D01*
X60499Y74245D01*
X60480Y74236D01*
X60459Y74224D01*
X60435Y74212D01*
X60407Y74198D01*
X60378Y74184D01*
X60345Y74172D01*
X60312Y74158D01*
X60237Y74132D01*
X60154Y74109D01*
X60152D01*
X60145Y74106D01*
X60131Y74104D01*
X60114Y74099D01*
X60093Y74097D01*
X60067Y74092D01*
X60036Y74087D01*
X60003Y74083D01*
X59965Y74076D01*
X59925Y74071D01*
X59883Y74066D01*
X59835Y74064D01*
X59788Y74059D01*
X59736Y74057D01*
X59630Y74054D01*
X58453D01*
Y77320D01*
X59640D01*
X59670Y77318D01*
D02*
G37*
G36*
X51527Y89335D02*
X51551D01*
X51579Y89330D01*
X51610Y89328D01*
X51643Y89323D01*
X51681Y89316D01*
X51718Y89309D01*
X51801Y89288D01*
X51846Y89276D01*
X51888Y89259D01*
X51931Y89243D01*
X51973Y89221D01*
X51976Y89219D01*
X51983Y89217D01*
X51995Y89210D01*
X52011Y89200D01*
X52030Y89188D01*
X52051Y89174D01*
X52075Y89158D01*
X52101Y89139D01*
X52157Y89094D01*
X52214Y89040D01*
X52268Y88978D01*
X52294Y88943D01*
X52318Y88907D01*
X52320Y88905D01*
X52323Y88898D01*
X52330Y88889D01*
X52337Y88872D01*
X52346Y88856D01*
X52356Y88832D01*
X52368Y88808D01*
X52379Y88780D01*
X52389Y88749D01*
X52400Y88719D01*
X52419Y88648D01*
X52434Y88570D01*
X52436Y88530D01*
X52438Y88487D01*
Y88485D01*
Y88478D01*
Y88466D01*
X52436Y88452D01*
Y88433D01*
X52431Y88412D01*
X52429Y88386D01*
X52424Y88360D01*
X52410Y88299D01*
X52389Y88235D01*
X52377Y88202D01*
X52360Y88166D01*
X52344Y88133D01*
X52323Y88100D01*
X52320Y88098D01*
X52318Y88093D01*
X52311Y88084D01*
X52301Y88072D01*
X52290Y88058D01*
X52275Y88041D01*
X52259Y88023D01*
X52238Y88001D01*
X52216Y87980D01*
X52191Y87959D01*
X52165Y87935D01*
X52134Y87912D01*
X52101Y87890D01*
X52065Y87867D01*
X52028Y87845D01*
X51987Y87827D01*
X51990D01*
X51999Y87824D01*
X52016Y87820D01*
X52035Y87813D01*
X52061Y87805D01*
X52089Y87794D01*
X52120Y87782D01*
X52153Y87765D01*
X52188Y87749D01*
X52226Y87727D01*
X52264Y87706D01*
X52301Y87680D01*
X52337Y87652D01*
X52372Y87621D01*
X52408Y87586D01*
X52438Y87548D01*
X52441Y87546D01*
X52445Y87539D01*
X52452Y87527D01*
X52464Y87510D01*
X52476Y87489D01*
X52490Y87466D01*
X52504Y87437D01*
X52518Y87404D01*
X52533Y87366D01*
X52549Y87326D01*
X52561Y87284D01*
X52573Y87237D01*
X52585Y87187D01*
X52592Y87135D01*
X52596Y87081D01*
X52599Y87022D01*
Y87017D01*
Y87003D01*
X52596Y86979D01*
X52594Y86951D01*
X52589Y86913D01*
X52582Y86871D01*
X52573Y86824D01*
X52559Y86772D01*
X52542Y86715D01*
X52523Y86658D01*
X52497Y86597D01*
X52467Y86536D01*
X52431Y86474D01*
X52389Y86413D01*
X52339Y86354D01*
X52285Y86297D01*
X52280Y86295D01*
X52271Y86286D01*
X52254Y86269D01*
X52228Y86250D01*
X52198Y86229D01*
X52162Y86203D01*
X52117Y86177D01*
X52070Y86149D01*
X52016Y86120D01*
X51955Y86094D01*
X51891Y86068D01*
X51820Y86047D01*
X51747Y86028D01*
X51667Y86012D01*
X51584Y86002D01*
X51497Y86000D01*
X51478D01*
X51454Y86002D01*
X51426Y86005D01*
X51388Y86007D01*
X51346Y86014D01*
X51298Y86021D01*
X51247Y86033D01*
X51192Y86045D01*
X51133Y86061D01*
X51074Y86083D01*
X51013Y86109D01*
X50954Y86137D01*
X50895Y86170D01*
X50836Y86210D01*
X50782Y86255D01*
X50779Y86257D01*
X50770Y86267D01*
X50756Y86281D01*
X50737Y86302D01*
X50716Y86328D01*
X50690Y86359D01*
X50664Y86394D01*
X50635Y86434D01*
X50607Y86479D01*
X50579Y86531D01*
X50553Y86585D01*
X50527Y86644D01*
X50505Y86708D01*
X50484Y86774D01*
X50470Y86845D01*
X50461Y86920D01*
X50862Y86975D01*
Y86970D01*
X50864Y86961D01*
X50869Y86942D01*
X50876Y86918D01*
X50883Y86890D01*
X50893Y86859D01*
X50904Y86824D01*
X50916Y86786D01*
X50949Y86703D01*
X50989Y86623D01*
X51013Y86583D01*
X51039Y86545D01*
X51065Y86512D01*
X51095Y86481D01*
X51098Y86479D01*
X51103Y86474D01*
X51112Y86467D01*
X51126Y86458D01*
X51140Y86446D01*
X51161Y86434D01*
X51183Y86420D01*
X51209Y86408D01*
X51237Y86394D01*
X51268Y86380D01*
X51301Y86368D01*
X51336Y86356D01*
X51374Y86347D01*
X51414Y86340D01*
X51454Y86335D01*
X51499Y86333D01*
X51511D01*
X51527Y86335D01*
X51546D01*
X51572Y86340D01*
X51600Y86342D01*
X51631Y86349D01*
X51667Y86356D01*
X51702Y86368D01*
X51742Y86380D01*
X51782Y86396D01*
X51822Y86415D01*
X51862Y86439D01*
X51903Y86465D01*
X51940Y86493D01*
X51978Y86529D01*
X51980Y86531D01*
X51987Y86538D01*
X51997Y86547D01*
X52009Y86564D01*
X52023Y86583D01*
X52039Y86607D01*
X52058Y86633D01*
X52077Y86663D01*
X52094Y86696D01*
X52113Y86734D01*
X52129Y86772D01*
X52143Y86817D01*
X52155Y86861D01*
X52165Y86909D01*
X52172Y86961D01*
X52174Y87012D01*
Y87015D01*
Y87024D01*
Y87038D01*
X52172Y87060D01*
X52169Y87081D01*
X52165Y87109D01*
X52160Y87140D01*
X52150Y87173D01*
X52141Y87208D01*
X52129Y87246D01*
X52115Y87284D01*
X52098Y87322D01*
X52077Y87359D01*
X52051Y87397D01*
X52025Y87432D01*
X51992Y87468D01*
X51990Y87470D01*
X51985Y87475D01*
X51973Y87484D01*
X51959Y87496D01*
X51943Y87510D01*
X51921Y87525D01*
X51895Y87541D01*
X51867Y87558D01*
X51837Y87574D01*
X51801Y87591D01*
X51763Y87605D01*
X51723Y87619D01*
X51681Y87631D01*
X51634Y87640D01*
X51586Y87645D01*
X51534Y87647D01*
X51513D01*
X51490Y87645D01*
X51456Y87643D01*
X51414Y87638D01*
X51367Y87628D01*
X51313Y87619D01*
X51251Y87605D01*
X51296Y87956D01*
X51303D01*
X51310Y87954D01*
X51320D01*
X51341Y87952D01*
X51386D01*
X51402Y87954D01*
X51426Y87956D01*
X51452Y87959D01*
X51480Y87963D01*
X51513Y87968D01*
X51549Y87975D01*
X51584Y87985D01*
X51662Y88008D01*
X51702Y88023D01*
X51742Y88041D01*
X51782Y88060D01*
X51820Y88084D01*
X51822Y88086D01*
X51829Y88091D01*
X51839Y88098D01*
X51853Y88110D01*
X51867Y88124D01*
X51886Y88140D01*
X51903Y88162D01*
X51924Y88185D01*
X51943Y88214D01*
X51962Y88244D01*
X51978Y88277D01*
X51992Y88315D01*
X52006Y88355D01*
X52016Y88400D01*
X52023Y88447D01*
X52025Y88497D01*
Y88499D01*
Y88506D01*
Y88518D01*
X52023Y88535D01*
X52021Y88551D01*
X52018Y88575D01*
X52013Y88598D01*
X52006Y88624D01*
X51987Y88681D01*
X51976Y88712D01*
X51962Y88742D01*
X51945Y88773D01*
X51924Y88804D01*
X51900Y88832D01*
X51874Y88860D01*
X51872Y88863D01*
X51867Y88867D01*
X51860Y88875D01*
X51848Y88884D01*
X51832Y88893D01*
X51815Y88907D01*
X51794Y88919D01*
X51770Y88933D01*
X51744Y88948D01*
X51716Y88959D01*
X51683Y88974D01*
X51650Y88983D01*
X51612Y88993D01*
X51574Y89000D01*
X51532Y89004D01*
X51490Y89007D01*
X51466D01*
X51452Y89004D01*
X51431Y89002D01*
X51407Y89000D01*
X51381Y88995D01*
X51353Y88988D01*
X51291Y88971D01*
X51261Y88959D01*
X51228Y88943D01*
X51195Y88926D01*
X51161Y88907D01*
X51131Y88884D01*
X51100Y88858D01*
X51098Y88856D01*
X51093Y88851D01*
X51086Y88841D01*
X51074Y88830D01*
X51062Y88815D01*
X51048Y88797D01*
X51034Y88773D01*
X51018Y88749D01*
X51001Y88719D01*
X50985Y88686D01*
X50966Y88650D01*
X50951Y88610D01*
X50935Y88568D01*
X50923Y88523D01*
X50911Y88473D01*
X50902Y88419D01*
X50501Y88490D01*
Y88492D01*
Y88494D01*
X50505Y88509D01*
X50510Y88528D01*
X50517Y88556D01*
X50527Y88591D01*
X50538Y88629D01*
X50553Y88671D01*
X50569Y88719D01*
X50590Y88768D01*
X50614Y88820D01*
X50642Y88872D01*
X50673Y88924D01*
X50706Y88976D01*
X50744Y89025D01*
X50786Y89073D01*
X50833Y89115D01*
X50836Y89118D01*
X50845Y89125D01*
X50859Y89136D01*
X50881Y89151D01*
X50907Y89167D01*
X50937Y89186D01*
X50973Y89205D01*
X51013Y89226D01*
X51058Y89247D01*
X51107Y89266D01*
X51159Y89285D01*
X51216Y89302D01*
X51277Y89316D01*
X51343Y89328D01*
X51412Y89335D01*
X51482Y89337D01*
X51508D01*
X51527Y89335D01*
D02*
G37*
G36*
X45948D02*
X45972D01*
X46000Y89330D01*
X46031Y89328D01*
X46064Y89323D01*
X46102Y89316D01*
X46139Y89309D01*
X46222Y89288D01*
X46267Y89276D01*
X46309Y89259D01*
X46352Y89243D01*
X46394Y89221D01*
X46397Y89219D01*
X46404Y89217D01*
X46416Y89210D01*
X46432Y89200D01*
X46451Y89188D01*
X46472Y89174D01*
X46496Y89158D01*
X46522Y89139D01*
X46578Y89094D01*
X46635Y89040D01*
X46689Y88978D01*
X46715Y88943D01*
X46739Y88907D01*
X46741Y88905D01*
X46744Y88898D01*
X46751Y88889D01*
X46758Y88872D01*
X46767Y88856D01*
X46777Y88832D01*
X46788Y88808D01*
X46800Y88780D01*
X46810Y88749D01*
X46821Y88719D01*
X46840Y88648D01*
X46854Y88570D01*
X46857Y88530D01*
X46859Y88487D01*
Y88485D01*
Y88478D01*
Y88466D01*
X46857Y88452D01*
Y88433D01*
X46852Y88412D01*
X46850Y88386D01*
X46845Y88360D01*
X46831Y88299D01*
X46810Y88235D01*
X46798Y88202D01*
X46781Y88166D01*
X46765Y88133D01*
X46744Y88100D01*
X46741Y88098D01*
X46739Y88093D01*
X46732Y88084D01*
X46722Y88072D01*
X46711Y88058D01*
X46696Y88041D01*
X46680Y88023D01*
X46659Y88001D01*
X46637Y87980D01*
X46611Y87959D01*
X46586Y87935D01*
X46555Y87912D01*
X46522Y87890D01*
X46486Y87867D01*
X46449Y87845D01*
X46409Y87827D01*
X46411D01*
X46420Y87824D01*
X46437Y87820D01*
X46456Y87813D01*
X46482Y87805D01*
X46510Y87794D01*
X46541Y87782D01*
X46574Y87765D01*
X46609Y87749D01*
X46647Y87727D01*
X46685Y87706D01*
X46722Y87680D01*
X46758Y87652D01*
X46793Y87621D01*
X46829Y87586D01*
X46859Y87548D01*
X46862Y87546D01*
X46866Y87539D01*
X46873Y87527D01*
X46885Y87510D01*
X46897Y87489D01*
X46911Y87466D01*
X46925Y87437D01*
X46940Y87404D01*
X46954Y87366D01*
X46970Y87326D01*
X46982Y87284D01*
X46994Y87237D01*
X47006Y87187D01*
X47013Y87135D01*
X47017Y87081D01*
X47020Y87022D01*
Y87017D01*
Y87003D01*
X47017Y86979D01*
X47015Y86951D01*
X47010Y86913D01*
X47003Y86871D01*
X46994Y86824D01*
X46980Y86772D01*
X46963Y86715D01*
X46944Y86658D01*
X46918Y86597D01*
X46888Y86536D01*
X46852Y86474D01*
X46810Y86413D01*
X46760Y86354D01*
X46706Y86297D01*
X46701Y86295D01*
X46692Y86286D01*
X46675Y86269D01*
X46649Y86250D01*
X46619Y86229D01*
X46583Y86203D01*
X46538Y86177D01*
X46491Y86149D01*
X46437Y86120D01*
X46375Y86094D01*
X46312Y86068D01*
X46241Y86047D01*
X46168Y86028D01*
X46088Y86012D01*
X46005Y86002D01*
X45918Y86000D01*
X45899D01*
X45875Y86002D01*
X45847Y86005D01*
X45809Y86007D01*
X45767Y86014D01*
X45719Y86021D01*
X45667Y86033D01*
X45613Y86045D01*
X45554Y86061D01*
X45495Y86083D01*
X45434Y86109D01*
X45375Y86137D01*
X45316Y86170D01*
X45257Y86210D01*
X45202Y86255D01*
X45200Y86257D01*
X45191Y86267D01*
X45177Y86281D01*
X45158Y86302D01*
X45136Y86328D01*
X45110Y86359D01*
X45085Y86394D01*
X45056Y86434D01*
X45028Y86479D01*
X45000Y86531D01*
X44974Y86585D01*
X44948Y86644D01*
X44926Y86708D01*
X44905Y86774D01*
X44891Y86845D01*
X44882Y86920D01*
X45283Y86975D01*
Y86970D01*
X45285Y86961D01*
X45290Y86942D01*
X45297Y86918D01*
X45304Y86890D01*
X45313Y86859D01*
X45325Y86824D01*
X45337Y86786D01*
X45370Y86703D01*
X45410Y86623D01*
X45434Y86583D01*
X45460Y86545D01*
X45486Y86512D01*
X45516Y86481D01*
X45519Y86479D01*
X45524Y86474D01*
X45533Y86467D01*
X45547Y86458D01*
X45561Y86446D01*
X45583Y86434D01*
X45604Y86420D01*
X45630Y86408D01*
X45658Y86394D01*
X45689Y86380D01*
X45722Y86368D01*
X45757Y86356D01*
X45795Y86347D01*
X45835Y86340D01*
X45875Y86335D01*
X45920Y86333D01*
X45932D01*
X45948Y86335D01*
X45967D01*
X45993Y86340D01*
X46021Y86342D01*
X46052Y86349D01*
X46088Y86356D01*
X46123Y86368D01*
X46163Y86380D01*
X46203Y86396D01*
X46243Y86415D01*
X46283Y86439D01*
X46323Y86465D01*
X46361Y86493D01*
X46399Y86529D01*
X46401Y86531D01*
X46409Y86538D01*
X46418Y86547D01*
X46430Y86564D01*
X46444Y86583D01*
X46460Y86607D01*
X46479Y86633D01*
X46498Y86663D01*
X46515Y86696D01*
X46534Y86734D01*
X46550Y86772D01*
X46564Y86817D01*
X46576Y86861D01*
X46586Y86909D01*
X46593Y86961D01*
X46595Y87012D01*
Y87015D01*
Y87024D01*
Y87038D01*
X46593Y87060D01*
X46590Y87081D01*
X46586Y87109D01*
X46581Y87140D01*
X46571Y87173D01*
X46562Y87208D01*
X46550Y87246D01*
X46536Y87284D01*
X46519Y87322D01*
X46498Y87359D01*
X46472Y87397D01*
X46446Y87432D01*
X46413Y87468D01*
X46411Y87470D01*
X46406Y87475D01*
X46394Y87484D01*
X46380Y87496D01*
X46364Y87510D01*
X46342Y87525D01*
X46316Y87541D01*
X46288Y87558D01*
X46257Y87574D01*
X46222Y87591D01*
X46184Y87605D01*
X46144Y87619D01*
X46102Y87631D01*
X46055Y87640D01*
X46007Y87645D01*
X45955Y87647D01*
X45934D01*
X45911Y87645D01*
X45878Y87643D01*
X45835Y87638D01*
X45788Y87628D01*
X45733Y87619D01*
X45672Y87605D01*
X45717Y87956D01*
X45724D01*
X45731Y87954D01*
X45741D01*
X45762Y87952D01*
X45807D01*
X45823Y87954D01*
X45847Y87956D01*
X45873Y87959D01*
X45901Y87963D01*
X45934Y87968D01*
X45970Y87975D01*
X46005Y87985D01*
X46083Y88008D01*
X46123Y88023D01*
X46163Y88041D01*
X46203Y88060D01*
X46241Y88084D01*
X46243Y88086D01*
X46250Y88091D01*
X46260Y88098D01*
X46274Y88110D01*
X46288Y88124D01*
X46307Y88140D01*
X46323Y88162D01*
X46345Y88185D01*
X46364Y88214D01*
X46382Y88244D01*
X46399Y88277D01*
X46413Y88315D01*
X46427Y88355D01*
X46437Y88400D01*
X46444Y88447D01*
X46446Y88497D01*
Y88499D01*
Y88506D01*
Y88518D01*
X46444Y88535D01*
X46442Y88551D01*
X46439Y88575D01*
X46434Y88598D01*
X46427Y88624D01*
X46409Y88681D01*
X46397Y88712D01*
X46382Y88742D01*
X46366Y88773D01*
X46345Y88804D01*
X46321Y88832D01*
X46295Y88860D01*
X46293Y88863D01*
X46288Y88867D01*
X46281Y88875D01*
X46269Y88884D01*
X46253Y88893D01*
X46236Y88907D01*
X46215Y88919D01*
X46191Y88933D01*
X46165Y88948D01*
X46137Y88959D01*
X46104Y88974D01*
X46071Y88983D01*
X46033Y88993D01*
X45996Y89000D01*
X45953Y89004D01*
X45911Y89007D01*
X45887D01*
X45873Y89004D01*
X45851Y89002D01*
X45828Y89000D01*
X45802Y88995D01*
X45774Y88988D01*
X45712Y88971D01*
X45682Y88959D01*
X45649Y88943D01*
X45616Y88926D01*
X45583Y88907D01*
X45552Y88884D01*
X45521Y88858D01*
X45519Y88856D01*
X45514Y88851D01*
X45507Y88841D01*
X45495Y88830D01*
X45483Y88815D01*
X45469Y88797D01*
X45455Y88773D01*
X45439Y88749D01*
X45422Y88719D01*
X45406Y88686D01*
X45387Y88650D01*
X45372Y88610D01*
X45356Y88568D01*
X45344Y88523D01*
X45332Y88473D01*
X45323Y88419D01*
X44922Y88490D01*
Y88492D01*
Y88494D01*
X44926Y88509D01*
X44931Y88528D01*
X44938Y88556D01*
X44948Y88591D01*
X44959Y88629D01*
X44974Y88671D01*
X44990Y88719D01*
X45011Y88768D01*
X45035Y88820D01*
X45063Y88872D01*
X45094Y88924D01*
X45127Y88976D01*
X45165Y89025D01*
X45207Y89073D01*
X45254Y89115D01*
X45257Y89118D01*
X45266Y89125D01*
X45280Y89136D01*
X45302Y89151D01*
X45328Y89167D01*
X45358Y89186D01*
X45394Y89205D01*
X45434Y89226D01*
X45479Y89247D01*
X45528Y89266D01*
X45580Y89285D01*
X45637Y89302D01*
X45698Y89316D01*
X45764Y89328D01*
X45833Y89335D01*
X45903Y89337D01*
X45929D01*
X45948Y89335D01*
D02*
G37*
G36*
X48955Y86059D02*
X48509D01*
X47244Y89325D01*
X47714D01*
X48561Y86951D01*
X48563Y86949D01*
X48566Y86939D01*
X48570Y86923D01*
X48577Y86901D01*
X48587Y86878D01*
X48596Y86847D01*
X48608Y86814D01*
X48622Y86776D01*
X48634Y86736D01*
X48648Y86694D01*
X48676Y86604D01*
X48707Y86510D01*
X48733Y86415D01*
Y86418D01*
X48735Y86427D01*
X48740Y86441D01*
X48747Y86460D01*
X48754Y86486D01*
X48761Y86515D01*
X48773Y86547D01*
X48783Y86583D01*
X48797Y86621D01*
X48809Y86663D01*
X48825Y86708D01*
X48839Y86753D01*
X48872Y86852D01*
X48910Y86951D01*
X49793Y89325D01*
X50234D01*
X48955Y86059D01*
D02*
G37*
G36*
X43343Y89323D02*
X43376D01*
X43414Y89320D01*
X43494Y89318D01*
X43576Y89311D01*
X43657Y89304D01*
X43694Y89297D01*
X43727Y89292D01*
X43730D01*
X43739Y89290D01*
X43751Y89288D01*
X43768Y89285D01*
X43789Y89280D01*
X43813Y89273D01*
X43838Y89266D01*
X43869Y89259D01*
X43933Y89238D01*
X43999Y89210D01*
X44067Y89179D01*
X44131Y89139D01*
X44133Y89136D01*
X44138Y89134D01*
X44148Y89127D01*
X44157Y89118D01*
X44171Y89108D01*
X44188Y89094D01*
X44207Y89077D01*
X44225Y89059D01*
X44244Y89037D01*
X44266Y89014D01*
X44310Y88959D01*
X44353Y88896D01*
X44393Y88825D01*
X44395Y88823D01*
X44398Y88815D01*
X44403Y88804D01*
X44410Y88789D01*
X44417Y88771D01*
X44424Y88747D01*
X44433Y88721D01*
X44443Y88693D01*
X44452Y88662D01*
X44462Y88627D01*
X44469Y88591D01*
X44476Y88551D01*
X44487Y88469D01*
X44492Y88379D01*
Y88374D01*
Y88360D01*
X44490Y88339D01*
X44487Y88310D01*
X44485Y88273D01*
X44478Y88233D01*
X44471Y88185D01*
X44459Y88136D01*
X44445Y88082D01*
X44426Y88025D01*
X44405Y87966D01*
X44379Y87907D01*
X44348Y87848D01*
X44313Y87789D01*
X44273Y87730D01*
X44225Y87676D01*
X44223Y87673D01*
X44214Y87664D01*
X44197Y87650D01*
X44174Y87631D01*
X44143Y87609D01*
X44105Y87584D01*
X44060Y87558D01*
X44006Y87532D01*
X43945Y87506D01*
X43876Y87480D01*
X43796Y87454D01*
X43711Y87432D01*
X43614Y87414D01*
X43562Y87407D01*
X43508Y87400D01*
X43451Y87395D01*
X43392Y87390D01*
X43331Y87388D01*
X42432D01*
Y86059D01*
X42000D01*
Y89325D01*
X43310D01*
X43343Y89323D01*
D02*
G37*
%LPC*%
G36*
X52504Y47022D02*
X52502D01*
X52495D01*
X52483D01*
X52466Y47020D01*
X52445Y47017D01*
X52424Y47015D01*
X52398Y47010D01*
X52369Y47003D01*
X52310Y46987D01*
X52280Y46975D01*
X52247Y46961D01*
X52216Y46944D01*
X52185Y46923D01*
X52155Y46902D01*
X52126Y46876D01*
X52124Y46874D01*
X52119Y46869D01*
X52112Y46859D01*
X52103Y46850D01*
X52093Y46833D01*
X52079Y46817D01*
X52067Y46796D01*
X52053Y46772D01*
X52039Y46746D01*
X52027Y46715D01*
X52013Y46685D01*
X52004Y46649D01*
X51994Y46614D01*
X51987Y46574D01*
X51982Y46531D01*
X51980Y46489D01*
Y46468D01*
X51982Y46451D01*
X51985Y46430D01*
X51987Y46409D01*
X51992Y46383D01*
X51999Y46354D01*
X52015Y46295D01*
X52027Y46265D01*
X52041Y46232D01*
X52058Y46201D01*
X52077Y46170D01*
X52098Y46140D01*
X52124Y46111D01*
X52126Y46109D01*
X52131Y46104D01*
X52138Y46097D01*
X52150Y46088D01*
X52164Y46076D01*
X52181Y46064D01*
X52202Y46050D01*
X52223Y46036D01*
X52249Y46024D01*
X52275Y46010D01*
X52336Y45986D01*
X52369Y45977D01*
X52405Y45970D01*
X52443Y45965D01*
X52480Y45963D01*
X52483D01*
X52490D01*
X52502D01*
X52518Y45965D01*
X52537Y45967D01*
X52558Y45970D01*
X52582Y45974D01*
X52610Y45981D01*
X52667Y46000D01*
X52697Y46012D01*
X52731Y46026D01*
X52761Y46045D01*
X52792Y46066D01*
X52823Y46090D01*
X52851Y46116D01*
X52853Y46118D01*
X52858Y46123D01*
X52865Y46132D01*
X52874Y46142D01*
X52886Y46158D01*
X52898Y46175D01*
X52912Y46196D01*
X52926Y46220D01*
X52941Y46246D01*
X52955Y46274D01*
X52966Y46305D01*
X52978Y46338D01*
X52988Y46376D01*
X52995Y46413D01*
X53000Y46451D01*
X53002Y46494D01*
Y46515D01*
X53000Y46531D01*
X52997Y46550D01*
X52995Y46574D01*
X52990Y46600D01*
X52983Y46626D01*
X52966Y46687D01*
X52955Y46718D01*
X52938Y46751D01*
X52922Y46782D01*
X52903Y46815D01*
X52879Y46845D01*
X52853Y46874D01*
X52851Y46876D01*
X52846Y46881D01*
X52839Y46888D01*
X52827Y46897D01*
X52813Y46909D01*
X52797Y46921D01*
X52778Y46935D01*
X52754Y46947D01*
X52731Y46961D01*
X52705Y46975D01*
X52643Y46999D01*
X52613Y47008D01*
X52577Y47015D01*
X52542Y47020D01*
X52504Y47022D01*
D02*
G37*
G36*
X50996Y47154D02*
X50994D01*
X50989D01*
X50979D01*
X50968Y47152D01*
X50951D01*
X50935Y47150D01*
X50913Y47147D01*
X50892Y47145D01*
X50840Y47135D01*
X50786Y47121D01*
X50727Y47100D01*
X50665Y47074D01*
X50663D01*
X50658Y47069D01*
X50651Y47065D01*
X50640Y47060D01*
X50625Y47050D01*
X50611Y47041D01*
X50573Y47013D01*
X50536Y46980D01*
X50493Y46940D01*
X50453Y46890D01*
X50418Y46833D01*
Y46831D01*
X50413Y46826D01*
X50411Y46817D01*
X50404Y46805D01*
X50397Y46791D01*
X50389Y46772D01*
X50382Y46753D01*
X50375Y46730D01*
X50359Y46678D01*
X50345Y46621D01*
X50335Y46557D01*
X50330Y46489D01*
Y46477D01*
X50333Y46461D01*
Y46442D01*
X50335Y46416D01*
X50340Y46387D01*
X50347Y46357D01*
X50354Y46321D01*
X50363Y46286D01*
X50375Y46246D01*
X50389Y46208D01*
X50408Y46168D01*
X50429Y46128D01*
X50453Y46088D01*
X50481Y46050D01*
X50515Y46014D01*
X50517Y46012D01*
X50524Y46007D01*
X50533Y45998D01*
X50547Y45986D01*
X50566Y45972D01*
X50588Y45956D01*
X50614Y45939D01*
X50642Y45920D01*
X50675Y45904D01*
X50710Y45887D01*
X50748Y45871D01*
X50791Y45856D01*
X50835Y45845D01*
X50883Y45835D01*
X50932Y45830D01*
X50984Y45828D01*
X50986D01*
X50996D01*
X51012Y45830D01*
X51031D01*
X51057Y45833D01*
X51086Y45838D01*
X51116Y45845D01*
X51152Y45852D01*
X51189Y45864D01*
X51227Y45875D01*
X51267Y45892D01*
X51307Y45911D01*
X51348Y45932D01*
X51385Y45958D01*
X51425Y45989D01*
X51461Y46022D01*
X51463Y46024D01*
X51470Y46031D01*
X51480Y46040D01*
X51491Y46057D01*
X51506Y46076D01*
X51522Y46097D01*
X51539Y46123D01*
X51558Y46154D01*
X51574Y46187D01*
X51591Y46222D01*
X51607Y46262D01*
X51621Y46305D01*
X51635Y46350D01*
X51645Y46399D01*
X51650Y46449D01*
X51652Y46503D01*
Y46531D01*
X51650Y46550D01*
X51647Y46574D01*
X51643Y46602D01*
X51635Y46633D01*
X51628Y46668D01*
X51619Y46704D01*
X51607Y46741D01*
X51591Y46779D01*
X51572Y46819D01*
X51551Y46859D01*
X51525Y46897D01*
X51496Y46935D01*
X51463Y46970D01*
X51461Y46973D01*
X51454Y46977D01*
X51444Y46987D01*
X51430Y46999D01*
X51411Y47013D01*
X51390Y47029D01*
X51364Y47046D01*
X51336Y47062D01*
X51303Y47079D01*
X51267Y47095D01*
X51230Y47112D01*
X51187Y47126D01*
X51142Y47138D01*
X51097Y47147D01*
X51048Y47152D01*
X50996Y47154D01*
D02*
G37*
G36*
X51737Y39034D02*
X51664D01*
X51661D01*
X51654D01*
X51645D01*
X51628D01*
X51609D01*
X51588Y39031D01*
X51562D01*
X51534D01*
X51503Y39029D01*
X51470D01*
X51395Y39024D01*
X51315Y39017D01*
X51230Y39010D01*
X51140Y39001D01*
X51050Y38989D01*
X50960Y38972D01*
X50873Y38956D01*
X50791Y38934D01*
X50717Y38908D01*
X50682Y38894D01*
X50651Y38880D01*
X50621Y38864D01*
X50595Y38847D01*
X50592Y38845D01*
X50583Y38838D01*
X50571Y38828D01*
X50555Y38814D01*
X50533Y38795D01*
X50512Y38772D01*
X50486Y38748D01*
X50463Y38717D01*
X50439Y38687D01*
X50413Y38651D01*
X50392Y38614D01*
X50373Y38571D01*
X50354Y38529D01*
X50342Y38481D01*
X50333Y38432D01*
X50330Y38382D01*
Y38370D01*
X50333Y38356D01*
X50335Y38337D01*
X50337Y38314D01*
X50345Y38285D01*
X50352Y38255D01*
X50363Y38222D01*
X50378Y38186D01*
X50394Y38149D01*
X50415Y38111D01*
X50441Y38071D01*
X50472Y38033D01*
X50507Y37993D01*
X50547Y37955D01*
X50595Y37920D01*
X50597Y37917D01*
X50609Y37913D01*
X50625Y37903D01*
X50649Y37889D01*
X50682Y37875D01*
X50722Y37861D01*
X50769Y37842D01*
X50828Y37825D01*
X50861Y37816D01*
X50897Y37809D01*
X50932Y37799D01*
X50972Y37790D01*
X51015Y37783D01*
X51060Y37776D01*
X51107Y37766D01*
X51159Y37759D01*
X51211Y37754D01*
X51267Y37747D01*
X51326Y37743D01*
X51388Y37738D01*
X51451Y37736D01*
X51520Y37733D01*
X51591Y37731D01*
X51664D01*
X51666D01*
X51673D01*
X51685D01*
X51699D01*
X51718D01*
X51739D01*
X51765Y37733D01*
X51794D01*
X51824Y37736D01*
X51860D01*
X51933Y37740D01*
X52013Y37747D01*
X52100Y37754D01*
X52188Y37764D01*
X52277Y37776D01*
X52367Y37792D01*
X52454Y37811D01*
X52537Y37832D01*
X52610Y37858D01*
X52646Y37872D01*
X52676Y37887D01*
X52707Y37903D01*
X52733Y37920D01*
X52735Y37922D01*
X52745Y37929D01*
X52757Y37939D01*
X52775Y37953D01*
X52794Y37972D01*
X52818Y37993D01*
X52841Y38019D01*
X52867Y38047D01*
X52891Y38080D01*
X52915Y38116D01*
X52938Y38153D01*
X52957Y38196D01*
X52976Y38241D01*
X52988Y38285D01*
X52997Y38335D01*
X53000Y38387D01*
Y38399D01*
X52997Y38413D01*
X52995Y38432D01*
X52992Y38455D01*
X52988Y38484D01*
X52981Y38512D01*
X52971Y38545D01*
X52957Y38581D01*
X52943Y38616D01*
X52924Y38654D01*
X52900Y38689D01*
X52874Y38727D01*
X52844Y38762D01*
X52806Y38795D01*
X52766Y38828D01*
X52764Y38831D01*
X52752Y38838D01*
X52733Y38847D01*
X52707Y38861D01*
X52671Y38875D01*
X52629Y38892D01*
X52577Y38911D01*
X52516Y38930D01*
X52483Y38942D01*
X52445Y38951D01*
X52407Y38960D01*
X52365Y38967D01*
X52322Y38977D01*
X52275Y38986D01*
X52226Y38993D01*
X52174Y39001D01*
X52119Y39008D01*
X52063Y39015D01*
X52004Y39020D01*
X51942Y39024D01*
X51876Y39029D01*
X51808Y39031D01*
X51737Y39034D01*
D02*
G37*
G36*
Y36497D02*
X51664D01*
X51661D01*
X51654D01*
X51645D01*
X51628D01*
X51609D01*
X51588Y36494D01*
X51562D01*
X51534D01*
X51503Y36492D01*
X51470D01*
X51395Y36487D01*
X51315Y36480D01*
X51230Y36473D01*
X51140Y36464D01*
X51050Y36452D01*
X50960Y36435D01*
X50873Y36419D01*
X50791Y36397D01*
X50717Y36371D01*
X50682Y36357D01*
X50651Y36343D01*
X50621Y36327D01*
X50595Y36310D01*
X50592Y36308D01*
X50583Y36301D01*
X50571Y36291D01*
X50555Y36277D01*
X50533Y36258D01*
X50512Y36235D01*
X50486Y36211D01*
X50463Y36180D01*
X50439Y36150D01*
X50413Y36114D01*
X50392Y36077D01*
X50373Y36034D01*
X50354Y35992D01*
X50342Y35944D01*
X50333Y35895D01*
X50330Y35845D01*
Y35833D01*
X50333Y35819D01*
X50335Y35800D01*
X50337Y35777D01*
X50345Y35748D01*
X50352Y35718D01*
X50363Y35685D01*
X50378Y35649D01*
X50394Y35612D01*
X50415Y35574D01*
X50441Y35534D01*
X50472Y35496D01*
X50507Y35456D01*
X50547Y35418D01*
X50595Y35383D01*
X50597Y35380D01*
X50609Y35376D01*
X50625Y35366D01*
X50649Y35352D01*
X50682Y35338D01*
X50722Y35324D01*
X50769Y35305D01*
X50828Y35288D01*
X50861Y35279D01*
X50897Y35272D01*
X50932Y35262D01*
X50972Y35253D01*
X51015Y35246D01*
X51060Y35239D01*
X51107Y35229D01*
X51159Y35222D01*
X51211Y35217D01*
X51267Y35210D01*
X51326Y35206D01*
X51388Y35201D01*
X51451Y35199D01*
X51520Y35196D01*
X51591Y35194D01*
X51664D01*
X51666D01*
X51673D01*
X51685D01*
X51699D01*
X51718D01*
X51739D01*
X51765Y35196D01*
X51794D01*
X51824Y35199D01*
X51860D01*
X51933Y35203D01*
X52013Y35210D01*
X52100Y35217D01*
X52188Y35227D01*
X52277Y35239D01*
X52367Y35255D01*
X52454Y35274D01*
X52537Y35295D01*
X52610Y35321D01*
X52646Y35335D01*
X52676Y35350D01*
X52707Y35366D01*
X52733Y35383D01*
X52735Y35385D01*
X52745Y35392D01*
X52757Y35402D01*
X52775Y35416D01*
X52794Y35435D01*
X52818Y35456D01*
X52841Y35482D01*
X52867Y35510D01*
X52891Y35543D01*
X52915Y35579D01*
X52938Y35616D01*
X52957Y35659D01*
X52976Y35704D01*
X52988Y35748D01*
X52997Y35798D01*
X53000Y35850D01*
Y35862D01*
X52997Y35876D01*
X52995Y35895D01*
X52992Y35918D01*
X52988Y35947D01*
X52981Y35975D01*
X52971Y36008D01*
X52957Y36044D01*
X52943Y36079D01*
X52924Y36117D01*
X52900Y36152D01*
X52874Y36190D01*
X52844Y36225D01*
X52806Y36258D01*
X52766Y36291D01*
X52764Y36294D01*
X52752Y36301D01*
X52733Y36310D01*
X52707Y36324D01*
X52671Y36338D01*
X52629Y36355D01*
X52577Y36374D01*
X52516Y36393D01*
X52483Y36405D01*
X52445Y36414D01*
X52407Y36424D01*
X52365Y36430D01*
X52322Y36440D01*
X52275Y36449D01*
X52226Y36457D01*
X52174Y36464D01*
X52119Y36471D01*
X52063Y36478D01*
X52004Y36483D01*
X51942Y36487D01*
X51876Y36492D01*
X51808Y36494D01*
X51737Y36497D01*
D02*
G37*
G36*
X59640Y76936D02*
X58884D01*
Y74439D01*
X59635D01*
X59661Y74441D01*
X59692D01*
X59727Y74444D01*
X59765Y74446D01*
X59845Y74453D01*
X59930Y74465D01*
X60013Y74479D01*
X60050Y74489D01*
X60086Y74498D01*
X60088D01*
X60093Y74500D01*
X60105Y74505D01*
X60116Y74510D01*
X60133Y74515D01*
X60149Y74524D01*
X60192Y74543D01*
X60239Y74566D01*
X60289Y74595D01*
X60336Y74630D01*
X60381Y74668D01*
X60383Y74670D01*
X60388Y74675D01*
X60395Y74684D01*
X60407Y74696D01*
X60418Y74710D01*
X60433Y74729D01*
X60449Y74753D01*
X60468Y74776D01*
X60487Y74805D01*
X60506Y74835D01*
X60527Y74871D01*
X60546Y74906D01*
X60565Y74946D01*
X60584Y74989D01*
X60602Y75034D01*
X60619Y75081D01*
Y75083D01*
X60624Y75093D01*
X60626Y75107D01*
X60633Y75128D01*
X60640Y75152D01*
X60647Y75182D01*
X60654Y75218D01*
X60664Y75258D01*
X60671Y75300D01*
X60678Y75350D01*
X60685Y75402D01*
X60692Y75456D01*
X60699Y75515D01*
X60702Y75577D01*
X60706Y75643D01*
Y75711D01*
Y75713D01*
Y75716D01*
Y75723D01*
Y75735D01*
Y75746D01*
Y75761D01*
X60704Y75796D01*
X60702Y75838D01*
X60697Y75888D01*
X60692Y75942D01*
X60685Y76001D01*
X60676Y76063D01*
X60664Y76129D01*
X60652Y76192D01*
X60636Y76258D01*
X60614Y76322D01*
X60593Y76384D01*
X60567Y76443D01*
X60536Y76497D01*
X60534Y76499D01*
X60529Y76509D01*
X60520Y76523D01*
X60506Y76542D01*
X60489Y76563D01*
X60470Y76589D01*
X60449Y76617D01*
X60423Y76648D01*
X60395Y76679D01*
X60364Y76709D01*
X60329Y76740D01*
X60293Y76771D01*
X60256Y76799D01*
X60216Y76825D01*
X60173Y76849D01*
X60128Y76867D01*
X60126D01*
X60121Y76870D01*
X60109Y76875D01*
X60095Y76879D01*
X60076Y76884D01*
X60053Y76889D01*
X60024Y76896D01*
X59994Y76903D01*
X59956Y76907D01*
X59916Y76915D01*
X59869Y76919D01*
X59819Y76926D01*
X59762Y76929D01*
X59703Y76933D01*
X59640Y76936D01*
D02*
G37*
G36*
X43319Y88941D02*
X42432D01*
Y87772D01*
X43314D01*
X43343Y87775D01*
X43376Y87777D01*
X43416Y87782D01*
X43459Y87787D01*
X43506Y87791D01*
X43602Y87810D01*
X43652Y87822D01*
X43702Y87838D01*
X43749Y87855D01*
X43794Y87876D01*
X43834Y87900D01*
X43869Y87928D01*
X43872Y87931D01*
X43876Y87935D01*
X43886Y87945D01*
X43897Y87956D01*
X43909Y87973D01*
X43926Y87992D01*
X43942Y88015D01*
X43959Y88041D01*
X43975Y88072D01*
X43990Y88103D01*
X44006Y88140D01*
X44018Y88178D01*
X44030Y88221D01*
X44039Y88268D01*
X44044Y88315D01*
X44046Y88367D01*
Y88369D01*
Y88376D01*
Y88386D01*
X44044Y88402D01*
Y88419D01*
X44041Y88440D01*
X44037Y88464D01*
X44034Y88487D01*
X44020Y88542D01*
X44001Y88601D01*
X43978Y88660D01*
X43961Y88688D01*
X43942Y88716D01*
Y88719D01*
X43938Y88723D01*
X43931Y88731D01*
X43923Y88740D01*
X43900Y88766D01*
X43869Y88797D01*
X43829Y88827D01*
X43784Y88860D01*
X43730Y88889D01*
X43668Y88910D01*
X43666D01*
X43664Y88912D01*
X43657D01*
X43647Y88915D01*
X43635Y88917D01*
X43619Y88919D01*
X43600Y88922D01*
X43576Y88926D01*
X43551Y88929D01*
X43522Y88931D01*
X43489Y88933D01*
X43451Y88936D01*
X43411Y88938D01*
X43366D01*
X43319Y88941D01*
D02*
G37*
%LPD*%
D10*
X18815Y34276D02*
G03*
X18815Y34276I-197J0D01*
G01*
Y14276D02*
G03*
X18815Y14276I-197J0D01*
G01*
X90256Y9260D02*
G03*
X90256Y9260I-197J0D01*
G01*
Y29260D02*
G03*
X90256Y29260I-197J0D01*
G01*
Y49260D02*
G03*
X90256Y49260I-197J0D01*
G01*
Y69260D02*
G03*
X90256Y69260I-197J0D01*
G01*
X8579Y62224D02*
G03*
X8579Y62224I-197J0D01*
G01*
X26768Y87429D02*
G03*
X26768Y87429I-197J0D01*
G01*
D11*
X58035Y81500D02*
G03*
X58035Y81500I-3536J0D01*
G01*
X49536D02*
G03*
X49536Y81500I-3536J0D01*
G01*
X65339Y20339D02*
Y62661D01*
X32661Y20339D02*
Y62661D01*
D12*
X33127Y20310D02*
G03*
X33127Y20310I-492J0D01*
G01*
M02*
